G04*
G04 #@! TF.GenerationSoftware,Altium Limited,Altium Designer,22.1.2 (22)*
G04*
G04 Layer_Color=16711935*
%FSLAX44Y44*%
%MOMM*%
G71*
G04*
G04 #@! TF.SameCoordinates,9297B7E3-83E3-42CA-A819-2C289E2C524A*
G04*
G04*
G04 #@! TF.FilePolarity,Negative*
G04*
G01*
G75*
%ADD20C,1.7272*%
%ADD21C,2.0032*%
D20*
X168450Y253000D02*
D03*
X92250Y252998D02*
D03*
X117650D02*
D03*
X143050D02*
D03*
X250000Y176800D02*
D03*
Y49800D02*
D03*
Y75200D02*
D03*
Y202200D02*
D03*
X219250Y-1000D02*
D03*
X168450D02*
D03*
X143050D02*
D03*
X117650D02*
D03*
X193850D02*
D03*
X16050D02*
D03*
X41450D02*
D03*
X66850D02*
D03*
X92250D02*
D03*
X219250Y253000D02*
D03*
X193850D02*
D03*
X41450D02*
D03*
X66850D02*
D03*
X16050D02*
D03*
D21*
X168450Y227600D02*
D03*
X193850D02*
D03*
X219250D02*
D03*
X92250Y227598D02*
D03*
X117650D02*
D03*
X143050D02*
D03*
X224250Y176800D02*
D03*
Y202200D02*
D03*
X219250Y24400D02*
D03*
X193850D02*
D03*
X168450D02*
D03*
X143050D02*
D03*
X117650D02*
D03*
X92250D02*
D03*
X66850D02*
D03*
X41450D02*
D03*
X16050D02*
D03*
X224250Y49800D02*
D03*
Y75200D02*
D03*
X66850Y227600D02*
D03*
X41450D02*
D03*
X16050D02*
D03*
M02*
