G04*
G04 #@! TF.GenerationSoftware,Altium Limited,Altium Designer,22.1.2 (22)*
G04*
G04 Layer_Color=255*
%FSLAX44Y44*%
%MOMM*%
G71*
G04*
G04 #@! TF.SameCoordinates,9D4E6BE8-3612-48C0-9491-DCB64648DD3D*
G04*
G04*
G04 #@! TF.FilePolarity,Positive*
G04*
G01*
G75*
%ADD22O,1.8000X3.5000*%
%ADD23O,2.5000X1.2000*%
%ADD24O,1.2000X2.5000*%
%ADD25O,3.5000X1.8000*%
%ADD26R,0.8500X0.8500*%
%ADD27R,2.4000X3.3000*%
%ADD28R,2.4000X1.0000*%
%ADD30C,1.5240*%
%ADD31C,1.8000*%
D22*
X168450Y243000D02*
D03*
X143050Y242998D02*
D03*
X92250D02*
D03*
X117650D02*
D03*
X168450Y9000D02*
D03*
X92250D02*
D03*
X66850D02*
D03*
X143050D02*
D03*
X117650D02*
D03*
X41450D02*
D03*
X16050D02*
D03*
X219250D02*
D03*
X193850D02*
D03*
X219250Y243000D02*
D03*
X193850D02*
D03*
X41450D02*
D03*
X66850D02*
D03*
X16050D02*
D03*
D23*
X126250Y186250D02*
D03*
Y166250D02*
D03*
Y66250D02*
D03*
Y106250D02*
D03*
Y86250D02*
D03*
Y146250D02*
D03*
Y126250D02*
D03*
D24*
X96250Y201250D02*
D03*
X56250D02*
D03*
X76250D02*
D03*
X16250D02*
D03*
X36250D02*
D03*
X96250Y51250D02*
D03*
X56250D02*
D03*
X76250D02*
D03*
X16250D02*
D03*
X36250D02*
D03*
D25*
X240000Y176800D02*
D03*
Y49800D02*
D03*
Y75200D02*
D03*
Y202200D02*
D03*
D26*
X169150Y64600D02*
D03*
X155150D02*
D03*
X169150Y80600D02*
D03*
X155150D02*
D03*
X169350Y185600D02*
D03*
X155350D02*
D03*
X169150Y170600D02*
D03*
X155150D02*
D03*
X169750Y200500D02*
D03*
X155750D02*
D03*
D27*
X224150Y125600D02*
D03*
D28*
X166150Y102600D02*
D03*
Y125600D02*
D03*
Y148600D02*
D03*
D30*
X168450Y253000D02*
D03*
X92250Y252998D02*
D03*
X117650D02*
D03*
X143050D02*
D03*
X250000Y176800D02*
D03*
Y49800D02*
D03*
Y75200D02*
D03*
Y202200D02*
D03*
X219250Y-1000D02*
D03*
X168450D02*
D03*
X143050D02*
D03*
X117650D02*
D03*
X193850D02*
D03*
X16050D02*
D03*
X41450D02*
D03*
X66850D02*
D03*
X92250D02*
D03*
X219250Y253000D02*
D03*
X193850D02*
D03*
X41450D02*
D03*
X66850D02*
D03*
X16050D02*
D03*
D31*
X168450Y227600D02*
D03*
X193850D02*
D03*
X219250D02*
D03*
X92250Y227598D02*
D03*
X117650D02*
D03*
X143050D02*
D03*
X224250Y176800D02*
D03*
Y202200D02*
D03*
X219250Y24400D02*
D03*
X193850D02*
D03*
X168450D02*
D03*
X143050D02*
D03*
X117650D02*
D03*
X92250D02*
D03*
X66850D02*
D03*
X41450D02*
D03*
X16050D02*
D03*
X224250Y49800D02*
D03*
Y75200D02*
D03*
X66850Y227600D02*
D03*
X41450D02*
D03*
X16050D02*
D03*
M02*
