G04*
G04 #@! TF.GenerationSoftware,Altium Limited,Altium Designer,22.1.2 (22)*
G04*
G04 Layer_Color=32896*
%FSLAX44Y44*%
%MOMM*%
G71*
G04*
G04 #@! TF.SameCoordinates,9297B7E3-83E3-42CA-A819-2C289E2C524A*
G04*
G04*
G04 #@! TF.FilePolarity,Positive*
G04*
G01*
G75*
G36*
X146730Y162860D02*
X144315D01*
Y165103D01*
X146730D01*
Y162860D01*
D02*
G37*
G36*
X132758D02*
X130343D01*
Y164067D01*
Y164240D01*
Y165103D01*
X132758D01*
Y162860D01*
D02*
G37*
G36*
X162945Y164067D02*
Y163895D01*
Y162687D01*
X165360D01*
Y160445D01*
X160702D01*
Y165103D01*
X162945D01*
Y164067D01*
D02*
G37*
G36*
X139657Y160445D02*
X137415D01*
Y164067D01*
Y164240D01*
Y165103D01*
X139657D01*
Y160445D01*
D02*
G37*
G36*
X127928D02*
X125685D01*
Y165103D01*
X127928D01*
Y160445D01*
D02*
G37*
G36*
X144315Y158202D02*
X142072D01*
Y160100D01*
Y160273D01*
Y160445D01*
X144315D01*
Y158202D01*
D02*
G37*
G36*
X158287Y160445D02*
X160702D01*
Y158375D01*
Y158202D01*
Y158030D01*
X162945D01*
Y155787D01*
X158287D01*
Y160445D01*
X156045D01*
Y162860D01*
X151388D01*
Y158202D01*
X148973D01*
Y160445D01*
X146730D01*
Y162687D01*
X148973D01*
Y165103D01*
X158287D01*
Y160445D01*
D02*
G37*
G36*
X148973Y155787D02*
X144315D01*
Y158030D01*
X148973D01*
Y155787D01*
D02*
G37*
G36*
X137415Y158202D02*
X135000D01*
Y155787D01*
X132758D01*
Y159928D01*
Y160100D01*
Y160445D01*
X137415D01*
Y158202D01*
D02*
G37*
G36*
X130343Y159065D02*
Y158892D01*
Y155787D01*
X125685D01*
Y158030D01*
X128100D01*
Y160445D01*
X130343D01*
Y159065D01*
D02*
G37*
G36*
X165360Y155098D02*
Y154925D01*
Y153545D01*
X163118D01*
Y155787D01*
X165360D01*
Y155098D01*
D02*
G37*
G36*
X183990Y148888D02*
X167775D01*
Y154062D01*
Y154235D01*
Y165103D01*
X183990D01*
Y148888D01*
D02*
G37*
G36*
X146730D02*
X144315D01*
Y150612D01*
Y150785D01*
Y151130D01*
X146730D01*
Y148888D01*
D02*
G37*
G36*
X142072D02*
X139657D01*
Y151130D01*
X137415D01*
Y151302D01*
Y153372D01*
X139657D01*
Y158030D01*
X142072D01*
Y148888D01*
D02*
G37*
G36*
X135000Y151130D02*
X137415D01*
Y148888D01*
X135000D01*
Y151130D01*
X132758D01*
Y153372D01*
X135000D01*
Y151130D01*
D02*
G37*
G36*
X123270Y148888D02*
X107055D01*
Y165103D01*
X123270D01*
Y148888D01*
D02*
G37*
G36*
X156045Y155787D02*
X158287D01*
Y151130D01*
X160702D01*
Y150957D01*
Y150785D01*
Y146473D01*
X158287D01*
Y151130D01*
X156045D01*
Y146473D01*
X158287D01*
Y144230D01*
X156045D01*
Y146128D01*
Y146300D01*
Y146473D01*
X153630D01*
Y144058D01*
X156045D01*
Y141815D01*
X158287D01*
Y139400D01*
X160702D01*
Y141815D01*
X158287D01*
Y144058D01*
X162945D01*
Y139400D01*
X165360D01*
Y138710D01*
Y138538D01*
Y137157D01*
X162945D01*
Y134742D01*
X160702D01*
Y132500D01*
X158287D01*
Y139400D01*
X156045D01*
Y132500D01*
X153630D01*
Y127843D01*
X151388D01*
Y130085D01*
X149145D01*
Y130258D01*
X148973D01*
Y134742D01*
X151388D01*
Y137157D01*
X153630D01*
Y141815D01*
X151388D01*
Y139572D01*
X151215D01*
Y139400D01*
X149145D01*
Y139572D01*
X148973D01*
Y141815D01*
X144315D01*
Y144058D01*
Y144230D01*
Y146300D01*
X144487D01*
Y146473D01*
X146730D01*
Y148715D01*
X148973D01*
Y151130D01*
X146730D01*
Y153372D01*
X156045D01*
Y155787D01*
X153630D01*
Y158030D01*
X156045D01*
Y155787D01*
D02*
G37*
G36*
X127928Y146473D02*
X125685D01*
Y148888D01*
Y149060D01*
Y151130D01*
X127928D01*
Y146473D01*
D02*
G37*
G36*
X183990Y144230D02*
X179333D01*
Y146473D01*
X183990D01*
Y144230D01*
D02*
G37*
G36*
X165360D02*
X163118D01*
Y151130D01*
X165360D01*
Y144230D01*
D02*
G37*
G36*
X141900Y146300D02*
X142072D01*
Y146128D01*
Y145955D01*
Y144230D01*
X139657D01*
Y146300D01*
X139830D01*
Y146473D01*
X141900D01*
Y146300D01*
D02*
G37*
G36*
X132758Y148715D02*
X135000D01*
Y141815D01*
X137242D01*
Y141643D01*
X137415D01*
Y139400D01*
X139657D01*
Y141643D01*
X139830D01*
Y141815D01*
X141900D01*
Y141643D01*
X142072D01*
Y139400D01*
X144315D01*
Y137157D01*
X137415D01*
Y134742D01*
X139657D01*
Y132500D01*
X135000D01*
Y130085D01*
X139657D01*
Y127843D01*
X137415D01*
Y125600D01*
X137242D01*
Y125428D01*
X130515D01*
Y125600D01*
X130343D01*
Y127843D01*
X125685D01*
Y130085D01*
X121027D01*
Y127843D01*
X125685D01*
Y125428D01*
X127928D01*
Y123185D01*
X130343D01*
Y120770D01*
X127928D01*
Y120253D01*
Y120080D01*
Y118527D01*
X125685D01*
Y120770D01*
X118785D01*
Y123185D01*
X125685D01*
Y125428D01*
X121027D01*
Y127153D01*
Y127325D01*
Y127843D01*
X116370D01*
Y130085D01*
X118785D01*
Y134742D01*
X121027D01*
Y132500D01*
X127928D01*
Y130085D01*
X130343D01*
Y141643D01*
X130515D01*
Y141815D01*
X132758D01*
Y144230D01*
X130343D01*
Y141815D01*
X125685D01*
Y139400D01*
X127928D01*
Y137157D01*
X125685D01*
Y139400D01*
X121027D01*
Y141815D01*
X114128D01*
Y144058D01*
X113955D01*
Y144230D01*
X111713D01*
Y146473D01*
X116370D01*
Y144058D01*
X118785D01*
Y146473D01*
X125685D01*
Y144058D01*
X128100D01*
Y146473D01*
X130343D01*
Y151130D01*
X132758D01*
Y148715D01*
D02*
G37*
G36*
X176917Y144058D02*
X179333D01*
Y141815D01*
X183990D01*
Y139400D01*
X179333D01*
Y141815D01*
X176917D01*
Y132500D01*
X179333D01*
Y125428D01*
X177090D01*
Y130085D01*
X174675D01*
Y134742D01*
X172432D01*
Y137157D01*
X174675D01*
Y139400D01*
X172260D01*
Y137157D01*
X170018D01*
Y139400D01*
X165360D01*
Y141815D01*
X167775D01*
Y146473D01*
X170018D01*
Y144058D01*
X172260D01*
Y141815D01*
X174675D01*
Y146473D01*
X176917D01*
Y144058D01*
D02*
G37*
G36*
X109298Y141815D02*
X107055D01*
Y146473D01*
X109298D01*
Y141815D01*
D02*
G37*
G36*
X111713Y137157D02*
X107055D01*
Y138883D01*
Y139055D01*
Y139400D01*
X109470D01*
Y141815D01*
X111713D01*
Y137157D01*
D02*
G37*
G36*
X121027Y137502D02*
Y137330D01*
Y137157D01*
X123270D01*
Y136295D01*
Y136123D01*
Y134742D01*
X121027D01*
Y137157D01*
X118612D01*
Y134742D01*
X114128D01*
Y139400D01*
X121027D01*
Y137502D01*
D02*
G37*
G36*
X181575Y132500D02*
X179333D01*
Y132673D01*
Y137157D01*
X181575D01*
Y132500D01*
D02*
G37*
G36*
X167603D02*
X165360D01*
Y134052D01*
Y134225D01*
Y134742D01*
X167603D01*
Y132500D01*
D02*
G37*
G36*
X109298Y130085D02*
X107055D01*
Y132500D01*
X109298D01*
Y130085D01*
D02*
G37*
G36*
X146730Y127843D02*
X144315D01*
Y130085D01*
X142072D01*
Y132500D01*
X144315D01*
Y134742D01*
X146730D01*
Y127843D01*
D02*
G37*
G36*
X162945Y123185D02*
X160702D01*
Y125428D01*
X162945D01*
Y123185D01*
D02*
G37*
G36*
X118612D02*
X116370D01*
Y124738D01*
Y124910D01*
Y125428D01*
X118612D01*
Y123185D01*
D02*
G37*
G36*
X158287Y120770D02*
X153802D01*
Y120942D01*
X153630D01*
Y122668D01*
Y122840D01*
Y123013D01*
X153802D01*
Y123185D01*
X158287D01*
Y120770D01*
D02*
G37*
G36*
X181575Y118527D02*
X179333D01*
Y118700D01*
Y120770D01*
X177090D01*
Y123185D01*
X181575D01*
Y118527D01*
D02*
G37*
G36*
X144315Y123185D02*
X146558D01*
Y123013D01*
X146730D01*
Y120942D01*
X146558D01*
Y120770D01*
X142072D01*
Y118527D01*
X139657D01*
Y125083D01*
Y125255D01*
Y127670D01*
X139830D01*
Y127843D01*
X144315D01*
Y123185D01*
D02*
G37*
G36*
X135000Y118527D02*
X132758D01*
Y121115D01*
Y121287D01*
Y123185D01*
X135000D01*
Y118527D01*
D02*
G37*
G36*
X165360Y116285D02*
X165187D01*
Y116112D01*
X163118D01*
Y120770D01*
X165360D01*
Y116285D01*
D02*
G37*
G36*
X137242Y118355D02*
X137415D01*
Y116803D01*
Y116630D01*
Y116285D01*
X137242D01*
Y116112D01*
X135173D01*
Y116285D01*
X135000D01*
Y118355D01*
X135173D01*
Y118527D01*
X137242D01*
Y118355D01*
D02*
G37*
G36*
X144315Y113870D02*
X142072D01*
Y116112D01*
X144315D01*
Y113870D01*
D02*
G37*
G36*
X139657D02*
X137415D01*
Y116112D01*
X139657D01*
Y113870D01*
D02*
G37*
G36*
X109298D02*
X107055D01*
Y116112D01*
X109298D01*
Y113870D01*
D02*
G37*
G36*
X155872Y113698D02*
X156045D01*
Y111628D01*
X155872D01*
Y111455D01*
X153802D01*
Y111628D01*
X153630D01*
Y113180D01*
Y113352D01*
Y113698D01*
X153802D01*
Y113870D01*
X155872D01*
Y113698D01*
D02*
G37*
G36*
X123270Y111455D02*
X121027D01*
Y113870D01*
X123270D01*
Y111455D01*
D02*
G37*
G36*
X172260Y130085D02*
X170018D01*
Y124392D01*
Y124220D01*
Y123185D01*
X172432D01*
Y130085D01*
X174675D01*
Y125428D01*
X176917D01*
Y123185D01*
X174675D01*
Y118527D01*
X179333D01*
Y113870D01*
X181747D01*
Y118527D01*
X183990D01*
Y111800D01*
Y111628D01*
Y111455D01*
X181575D01*
Y109213D01*
X179333D01*
Y113870D01*
X174675D01*
Y118527D01*
X172432D01*
Y120770D01*
X170018D01*
Y123185D01*
X167775D01*
Y125428D01*
X165360D01*
Y127843D01*
X160702D01*
Y125600D01*
X160530D01*
Y125428D01*
X153802D01*
Y125600D01*
X153630D01*
Y127670D01*
X153802D01*
Y127843D01*
X156045D01*
Y130085D01*
X167775D01*
Y132500D01*
X170018D01*
Y134742D01*
X172260D01*
Y130085D01*
D02*
G37*
G36*
X146558Y113698D02*
X146730D01*
Y109213D01*
X144315D01*
Y109385D01*
Y109558D01*
Y113698D01*
X144487D01*
Y113870D01*
X146558D01*
Y113698D01*
D02*
G37*
G36*
X125685Y109213D02*
X123442D01*
Y111455D01*
X125685D01*
Y109213D01*
D02*
G37*
G36*
X116370Y118527D02*
X123270D01*
Y117837D01*
Y117665D01*
Y116112D01*
X118612D01*
Y109213D01*
X116370D01*
Y118527D01*
X114128D01*
Y122150D01*
Y122323D01*
Y123185D01*
X116370D01*
Y118527D01*
D02*
G37*
G36*
X183990Y106798D02*
X181747D01*
Y109040D01*
X183990D01*
Y106798D01*
D02*
G37*
G36*
X123270Y108868D02*
Y106798D01*
X121027D01*
Y109040D01*
X123270D01*
Y108868D01*
D02*
G37*
G36*
X113955Y125428D02*
X111713D01*
Y116112D01*
X113955D01*
Y114560D01*
Y114388D01*
Y106798D01*
X111713D01*
Y109213D01*
X109470D01*
Y111455D01*
X111713D01*
Y116112D01*
X109470D01*
Y118527D01*
X107055D01*
Y120770D01*
X109470D01*
Y125428D01*
X107055D01*
Y127843D01*
X111713D01*
Y132500D01*
X109470D01*
Y134742D01*
X113955D01*
Y125428D01*
D02*
G37*
G36*
X109298Y106798D02*
X107055D01*
Y107315D01*
Y107487D01*
Y109040D01*
X109298D01*
Y106798D01*
D02*
G37*
G36*
X153630Y99897D02*
X151388D01*
Y102140D01*
X144315D01*
Y104555D01*
X139657D01*
Y106798D01*
X142072D01*
Y109040D01*
X144315D01*
Y106798D01*
X146730D01*
Y109040D01*
X148973D01*
Y104382D01*
X151388D01*
Y105763D01*
Y105935D01*
Y109040D01*
X153630D01*
Y99897D01*
D02*
G37*
G36*
X181575Y102140D02*
X179333D01*
Y104382D01*
X181575D01*
Y102140D01*
D02*
G37*
G36*
X144315Y100588D02*
Y100415D01*
Y97483D01*
X137415D01*
Y102140D01*
X139657D01*
Y99725D01*
X142072D01*
Y102140D01*
X144315D01*
Y100588D01*
D02*
G37*
G36*
X148973Y97483D02*
X146730D01*
Y99380D01*
Y99552D01*
Y99725D01*
X148973D01*
Y97483D01*
D02*
G37*
G36*
X183990Y95240D02*
X181747D01*
Y97483D01*
X183990D01*
Y95240D01*
D02*
G37*
G36*
X151215Y123013D02*
X151388D01*
Y118527D01*
X158287D01*
Y116112D01*
X162945D01*
Y111455D01*
X165360D01*
Y109040D01*
X167603D01*
Y109213D01*
X167775D01*
Y111455D01*
X165360D01*
Y116112D01*
X167603D01*
Y113870D01*
X170018D01*
Y111455D01*
X176917D01*
Y104555D01*
X174675D01*
Y102140D01*
X179333D01*
Y99725D01*
X181575D01*
Y97483D01*
X179333D01*
Y95240D01*
X177090D01*
Y99725D01*
X176917D01*
Y99897D01*
X174675D01*
Y97483D01*
X172260D01*
Y92825D01*
X174675D01*
Y88167D01*
X172432D01*
Y90410D01*
X172260D01*
Y90583D01*
X170018D01*
Y92825D01*
X167603D01*
Y90583D01*
X163118D01*
Y92825D01*
X160702D01*
Y90583D01*
X158287D01*
Y92825D01*
X153630D01*
Y95240D01*
X151388D01*
Y97483D01*
X153630D01*
Y99725D01*
X156045D01*
Y95068D01*
X158287D01*
Y99897D01*
X156045D01*
Y102140D01*
X158287D01*
Y113870D01*
X156045D01*
Y116112D01*
X153630D01*
Y113870D01*
X151388D01*
Y109213D01*
X148973D01*
Y113870D01*
X146730D01*
Y115077D01*
Y115250D01*
Y120770D01*
X148973D01*
Y123013D01*
X149145D01*
Y123185D01*
X151215D01*
Y123013D01*
D02*
G37*
G36*
X130343Y116112D02*
X132758D01*
Y111455D01*
X135000D01*
Y113698D01*
X135173D01*
Y113870D01*
X137242D01*
Y113698D01*
X137415D01*
Y111455D01*
X139657D01*
Y113698D01*
X139830D01*
Y113870D01*
X141900D01*
Y113698D01*
X142072D01*
Y109213D01*
X132758D01*
Y106970D01*
X132585D01*
Y106798D01*
X130343D01*
Y104555D01*
X128100D01*
Y104382D01*
X127928D01*
Y102140D01*
X130343D01*
Y104382D01*
X135000D01*
Y102140D01*
X132758D01*
Y99725D01*
X135000D01*
Y97483D01*
X137415D01*
Y95240D01*
X135000D01*
Y96620D01*
Y96792D01*
Y97483D01*
X132758D01*
Y95240D01*
X130343D01*
Y99897D01*
X125685D01*
Y100070D01*
Y100243D01*
Y109040D01*
X130343D01*
Y113870D01*
X127928D01*
Y111455D01*
X125857D01*
Y111628D01*
X125685D01*
Y116112D01*
X128100D01*
Y118527D01*
X130343D01*
Y116112D01*
D02*
G37*
G36*
X151388Y88167D02*
X139657D01*
Y90583D01*
X137415D01*
Y92825D01*
Y92998D01*
Y95068D01*
X139657D01*
Y92825D01*
X146730D01*
Y95068D01*
X151388D01*
Y88167D01*
D02*
G37*
G36*
X135000Y94377D02*
Y94205D01*
Y92825D01*
X132758D01*
Y95068D01*
X135000D01*
Y94377D01*
D02*
G37*
G36*
X127928Y95413D02*
Y95240D01*
Y92825D01*
X125685D01*
Y97483D01*
X127928D01*
Y95413D01*
D02*
G37*
G36*
X183990Y90583D02*
X181747D01*
Y92825D01*
X183990D01*
Y90583D01*
D02*
G37*
G36*
X179333Y88340D02*
Y88167D01*
X177090D01*
Y90410D01*
X179333D01*
Y88340D01*
D02*
G37*
G36*
X170018Y88167D02*
X167775D01*
Y90410D01*
X170018D01*
Y88167D01*
D02*
G37*
G36*
X162945D02*
X160702D01*
Y90410D01*
X162945D01*
Y88167D01*
D02*
G37*
G36*
X158287D02*
X156045D01*
Y90410D01*
X158287D01*
Y88167D01*
D02*
G37*
G36*
X132758D02*
X125685D01*
Y90410D01*
X132758D01*
Y88167D01*
D02*
G37*
G36*
X123270Y100760D02*
Y100588D01*
Y88167D01*
X107055D01*
Y104382D01*
X123270D01*
Y100760D01*
D02*
G37*
G36*
X46067Y149841D02*
X44417D01*
Y155282D01*
X41767D01*
Y150391D01*
X40118D01*
Y155282D01*
X37961D01*
Y150024D01*
X36312D01*
Y157256D01*
X46067D01*
Y149841D01*
D02*
G37*
G36*
X43191Y148643D02*
X43473Y148586D01*
X43741Y148502D01*
X43980Y148431D01*
X44206Y148333D01*
X44417Y148234D01*
X44601Y148135D01*
X44770Y148037D01*
X44911Y147938D01*
X45038Y147839D01*
X45150Y147755D01*
X45249Y147670D01*
X45320Y147614D01*
X45362Y147557D01*
X45390Y147529D01*
X45404Y147515D01*
X45559Y147318D01*
X45686Y147106D01*
X45799Y146881D01*
X45898Y146641D01*
X45968Y146416D01*
X46038Y146176D01*
X46137Y145711D01*
X46179Y145499D01*
X46208Y145302D01*
X46222Y145133D01*
X46236Y144978D01*
X46250Y144851D01*
Y144668D01*
X46236Y144216D01*
X46194Y143808D01*
X46137Y143441D01*
X46109Y143286D01*
X46067Y143131D01*
X46038Y143004D01*
X46010Y142891D01*
X45982Y142793D01*
X45954Y142708D01*
X45926Y142638D01*
X45912Y142595D01*
X45898Y142567D01*
Y142553D01*
X45743Y142243D01*
X45573Y141989D01*
X45404Y141749D01*
X45221Y141566D01*
X45066Y141425D01*
X44925Y141312D01*
X44840Y141256D01*
X44826Y141228D01*
X44812D01*
X44530Y141073D01*
X44262Y140946D01*
X43994Y140861D01*
X43741Y140805D01*
X43543Y140777D01*
X43445Y140763D01*
X43374Y140749D01*
X43318D01*
X43275D01*
X43247D01*
X43233D01*
X42895Y140763D01*
X42599Y140805D01*
X42331Y140875D01*
X42105Y140946D01*
X41922Y141016D01*
X41795Y141087D01*
X41711Y141129D01*
X41683Y141143D01*
X41457Y141298D01*
X41260Y141482D01*
X41090Y141665D01*
X40950Y141834D01*
X40837Y141989D01*
X40752Y142116D01*
X40696Y142200D01*
X40682Y142215D01*
Y142229D01*
X40611Y142370D01*
X40541Y142511D01*
X40414Y142849D01*
X40301Y143201D01*
X40188Y143540D01*
X40146Y143695D01*
X40104Y143850D01*
X40061Y143991D01*
X40033Y144104D01*
X40005Y144202D01*
X39991Y144273D01*
X39977Y144329D01*
Y144343D01*
X39906Y144597D01*
X39850Y144823D01*
X39794Y145034D01*
X39737Y145231D01*
X39681Y145386D01*
X39624Y145541D01*
X39568Y145668D01*
X39526Y145781D01*
X39483Y145880D01*
X39441Y145950D01*
X39413Y146021D01*
X39385Y146063D01*
X39343Y146134D01*
X39328Y146148D01*
X39230Y146246D01*
X39131Y146317D01*
X39032Y146359D01*
X38934Y146387D01*
X38863Y146416D01*
X38793Y146430D01*
X38750D01*
X38736D01*
X38595Y146416D01*
X38482Y146387D01*
X38370Y146331D01*
X38285Y146274D01*
X38215Y146218D01*
X38172Y146162D01*
X38144Y146134D01*
X38130Y146119D01*
X38003Y145922D01*
X37919Y145711D01*
X37848Y145485D01*
X37806Y145274D01*
X37778Y145090D01*
X37764Y144935D01*
Y144794D01*
X37778Y144498D01*
X37820Y144245D01*
X37876Y144033D01*
X37933Y143864D01*
X37989Y143723D01*
X38045Y143624D01*
X38088Y143568D01*
X38102Y143554D01*
X38243Y143413D01*
X38412Y143286D01*
X38581Y143187D01*
X38765Y143117D01*
X38920Y143060D01*
X39046Y143032D01*
X39145Y143004D01*
X39159D01*
X39173D01*
X39103Y141031D01*
X38849Y141045D01*
X38623Y141087D01*
X38398Y141143D01*
X38201Y141214D01*
X38003Y141284D01*
X37820Y141369D01*
X37665Y141453D01*
X37510Y141538D01*
X37383Y141637D01*
X37270Y141721D01*
X37171Y141806D01*
X37087Y141876D01*
X37031Y141933D01*
X36988Y141975D01*
X36960Y142003D01*
X36946Y142017D01*
X36805Y142200D01*
X36678Y142398D01*
X36565Y142609D01*
X36467Y142835D01*
X36396Y143060D01*
X36326Y143286D01*
X36227Y143737D01*
X36199Y143948D01*
X36171Y144132D01*
X36156Y144315D01*
X36142Y144470D01*
X36128Y144597D01*
Y144766D01*
X36142Y145175D01*
X36185Y145541D01*
X36241Y145866D01*
X36298Y146148D01*
X36340Y146274D01*
X36368Y146387D01*
X36396Y146472D01*
X36424Y146557D01*
X36453Y146613D01*
X36467Y146655D01*
X36481Y146683D01*
Y146697D01*
X36622Y146979D01*
X36777Y147219D01*
X36946Y147430D01*
X37101Y147600D01*
X37242Y147741D01*
X37355Y147825D01*
X37439Y147896D01*
X37453Y147910D01*
X37468D01*
X37707Y148051D01*
X37961Y148149D01*
X38201Y148220D01*
X38412Y148262D01*
X38595Y148290D01*
X38736Y148319D01*
X38793D01*
X38835D01*
X38849D01*
X38863D01*
X39075Y148305D01*
X39286Y148276D01*
X39469Y148234D01*
X39653Y148178D01*
X39991Y148037D01*
X40287Y147867D01*
X40414Y147797D01*
X40512Y147712D01*
X40611Y147642D01*
X40696Y147571D01*
X40752Y147515D01*
X40795Y147473D01*
X40823Y147445D01*
X40837Y147430D01*
X40935Y147304D01*
X41034Y147149D01*
X41133Y146994D01*
X41217Y146810D01*
X41386Y146458D01*
X41528Y146091D01*
X41584Y145908D01*
X41640Y145753D01*
X41683Y145598D01*
X41725Y145471D01*
X41753Y145372D01*
X41781Y145288D01*
X41795Y145231D01*
Y145217D01*
X41852Y144992D01*
X41908Y144794D01*
X41950Y144611D01*
X41993Y144442D01*
X42035Y144301D01*
X42063Y144174D01*
X42105Y144061D01*
X42134Y143963D01*
X42148Y143878D01*
X42176Y143808D01*
X42204Y143709D01*
X42232Y143652D01*
Y143638D01*
X42303Y143455D01*
X42373Y143314D01*
X42444Y143187D01*
X42514Y143089D01*
X42571Y143018D01*
X42613Y142976D01*
X42641Y142948D01*
X42655Y142934D01*
X42754Y142863D01*
X42853Y142807D01*
X42951Y142779D01*
X43036Y142750D01*
X43120Y142736D01*
X43191Y142722D01*
X43233D01*
X43247D01*
X43445Y142736D01*
X43614Y142793D01*
X43783Y142877D01*
X43924Y142962D01*
X44037Y143060D01*
X44121Y143131D01*
X44178Y143187D01*
X44192Y143216D01*
X44319Y143413D01*
X44417Y143638D01*
X44488Y143878D01*
X44530Y144104D01*
X44558Y144315D01*
X44587Y144484D01*
Y144639D01*
X44573Y144964D01*
X44516Y145246D01*
X44446Y145485D01*
X44361Y145697D01*
X44276Y145866D01*
X44206Y145978D01*
X44149Y146049D01*
X44135Y146077D01*
X43938Y146260D01*
X43727Y146401D01*
X43487Y146528D01*
X43247Y146613D01*
X43036Y146683D01*
X42867Y146740D01*
X42810Y146754D01*
X42754D01*
X42726Y146768D01*
X42712D01*
X42895Y148685D01*
X43191Y148643D01*
D02*
G37*
G36*
X46067Y137097D02*
X42387D01*
Y135349D01*
X42373Y135138D01*
Y134941D01*
X42359Y134757D01*
X42345Y134588D01*
X42331Y134433D01*
X42317Y134306D01*
Y134179D01*
X42303Y134081D01*
X42289Y133982D01*
X42275Y133912D01*
Y133855D01*
X42260Y133813D01*
Y133785D01*
X42204Y133587D01*
X42134Y133404D01*
X42063Y133235D01*
X41979Y133080D01*
X41908Y132953D01*
X41852Y132854D01*
X41809Y132798D01*
X41795Y132770D01*
X41654Y132586D01*
X41499Y132431D01*
X41330Y132276D01*
X41189Y132163D01*
X41048Y132065D01*
X40935Y131994D01*
X40865Y131952D01*
X40837Y131938D01*
X40597Y131825D01*
X40343Y131741D01*
X40075Y131684D01*
X39836Y131642D01*
X39639Y131614D01*
X39540D01*
X39469Y131600D01*
X39399D01*
X39357D01*
X39328D01*
X39314D01*
X38905Y131628D01*
X38525Y131684D01*
X38215Y131783D01*
X37933Y131882D01*
X37820Y131938D01*
X37721Y131994D01*
X37637Y132037D01*
X37552Y132093D01*
X37496Y132121D01*
X37453Y132149D01*
X37439Y132177D01*
X37425D01*
X37171Y132403D01*
X36960Y132629D01*
X36791Y132868D01*
X36664Y133080D01*
X36579Y133277D01*
X36509Y133432D01*
X36495Y133489D01*
X36481Y133531D01*
X36467Y133559D01*
Y133573D01*
X36439Y133686D01*
X36410Y133827D01*
X36396Y133996D01*
X36382Y134165D01*
X36354Y134560D01*
X36326Y134955D01*
Y135321D01*
X36312Y135476D01*
Y139071D01*
X46067D01*
Y137097D01*
D02*
G37*
G36*
X43459Y126539D02*
X41584D01*
Y130218D01*
X43459D01*
Y126539D01*
D02*
G37*
G36*
X46067Y123621D02*
X39639D01*
X46067Y119659D01*
Y117686D01*
X36312D01*
Y119504D01*
X42881D01*
X36312Y123536D01*
Y125439D01*
X46067D01*
Y123621D01*
D02*
G37*
G36*
X41683Y115994D02*
X42091Y115952D01*
X42472Y115896D01*
X42824Y115811D01*
X43149Y115712D01*
X43445Y115599D01*
X43727Y115487D01*
X43966Y115360D01*
X44192Y115247D01*
X44375Y115134D01*
X44544Y115021D01*
X44685Y114923D01*
X44784Y114838D01*
X44868Y114782D01*
X44911Y114740D01*
X44925Y114726D01*
X45164Y114472D01*
X45362Y114204D01*
X45545Y113936D01*
X45686Y113640D01*
X45813Y113358D01*
X45926Y113062D01*
X46010Y112794D01*
X46081Y112512D01*
X46137Y112259D01*
X46179Y112019D01*
X46208Y111807D01*
X46222Y111624D01*
X46236Y111483D01*
X46250Y111370D01*
Y111272D01*
X46236Y110877D01*
X46194Y110510D01*
X46123Y110158D01*
X46038Y109834D01*
X45940Y109524D01*
X45827Y109242D01*
X45714Y108988D01*
X45587Y108748D01*
X45461Y108551D01*
X45348Y108368D01*
X45235Y108213D01*
X45136Y108086D01*
X45052Y107973D01*
X44981Y107902D01*
X44939Y107860D01*
X44925Y107846D01*
X44657Y107621D01*
X44375Y107423D01*
X44079Y107240D01*
X43783Y107099D01*
X43473Y106972D01*
X43163Y106859D01*
X42853Y106775D01*
X42557Y106704D01*
X42289Y106662D01*
X42021Y106620D01*
X41795Y106592D01*
X41598Y106563D01*
X41429D01*
X41302Y106549D01*
X41231D01*
X41203D01*
X40766Y106563D01*
X40357Y106606D01*
X39977Y106662D01*
X39610Y106747D01*
X39286Y106845D01*
X38976Y106958D01*
X38694Y107071D01*
X38454Y107198D01*
X38229Y107324D01*
X38031Y107437D01*
X37862Y107550D01*
X37721Y107649D01*
X37623Y107719D01*
X37538Y107790D01*
X37496Y107832D01*
X37482Y107846D01*
X37242Y108100D01*
X37031Y108368D01*
X36847Y108650D01*
X36692Y108932D01*
X36565Y109228D01*
X36453Y109510D01*
X36368Y109791D01*
X36298Y110059D01*
X36241Y110313D01*
X36199Y110553D01*
X36171Y110764D01*
X36142Y110948D01*
Y111088D01*
X36128Y111201D01*
Y111300D01*
X36142Y111723D01*
X36185Y112132D01*
X36255Y112484D01*
X36326Y112794D01*
X36368Y112921D01*
X36396Y113048D01*
X36424Y113147D01*
X36467Y113231D01*
X36481Y113302D01*
X36509Y113358D01*
X36523Y113386D01*
Y113400D01*
X36636Y113654D01*
X36777Y113894D01*
X36932Y114105D01*
X37073Y114288D01*
X37200Y114444D01*
X37313Y114570D01*
X37383Y114641D01*
X37397Y114655D01*
X37411Y114669D01*
X37637Y114866D01*
X37876Y115050D01*
X38088Y115205D01*
X38299Y115332D01*
X38482Y115430D01*
X38623Y115515D01*
X38680Y115529D01*
X38722Y115557D01*
X38736Y115571D01*
X38750D01*
X39145Y115712D01*
X39568Y115825D01*
X39991Y115896D01*
X40386Y115952D01*
X40569Y115966D01*
X40738Y115980D01*
X40879Y115994D01*
X41006D01*
X41119Y116008D01*
X41189D01*
X41246D01*
X41260D01*
X41683Y115994D01*
D02*
G37*
G36*
X46067Y101305D02*
X46053Y100925D01*
X46038Y100572D01*
X46010Y100276D01*
X45968Y100036D01*
X45926Y99839D01*
X45898Y99684D01*
X45883Y99642D01*
Y99599D01*
X45869Y99585D01*
Y99571D01*
X45757Y99261D01*
X45630Y98979D01*
X45503Y98753D01*
X45376Y98556D01*
X45263Y98401D01*
X45179Y98288D01*
X45122Y98218D01*
X45094Y98190D01*
X44826Y97950D01*
X44544Y97739D01*
X44248Y97555D01*
X43980Y97414D01*
X43727Y97302D01*
X43628Y97245D01*
X43543Y97217D01*
X43459Y97189D01*
X43402Y97161D01*
X43374Y97147D01*
X43360D01*
X43022Y97048D01*
X42669Y96963D01*
X42331Y96907D01*
X42007Y96879D01*
X41852Y96865D01*
X41711Y96851D01*
X41598D01*
X41485Y96836D01*
X41401D01*
X41344D01*
X41302D01*
X41288D01*
X40795Y96851D01*
X40357Y96893D01*
X40146Y96907D01*
X39963Y96935D01*
X39780Y96963D01*
X39624Y96991D01*
X39483Y97034D01*
X39357Y97062D01*
X39244Y97090D01*
X39159Y97104D01*
X39089Y97132D01*
X39032Y97147D01*
X39004Y97161D01*
X38990D01*
X38652Y97288D01*
X38342Y97443D01*
X38074Y97598D01*
X37848Y97753D01*
X37665Y97879D01*
X37524Y97992D01*
X37439Y98063D01*
X37411Y98077D01*
Y98091D01*
X37186Y98331D01*
X37002Y98570D01*
X36847Y98824D01*
X36720Y99050D01*
X36622Y99247D01*
X36551Y99416D01*
X36537Y99473D01*
X36523Y99515D01*
X36509Y99543D01*
Y99557D01*
X36439Y99825D01*
X36396Y100121D01*
X36354Y100431D01*
X36340Y100727D01*
X36326Y100995D01*
X36312Y101108D01*
Y104999D01*
X46067D01*
Y101305D01*
D02*
G37*
G36*
Y87744D02*
X44417D01*
Y93185D01*
X41767D01*
Y88294D01*
X40118D01*
Y93185D01*
X37961D01*
Y87927D01*
X36312D01*
Y95159D01*
X46067D01*
Y87744D01*
D02*
G37*
G36*
X209817Y166842D02*
X208167D01*
Y172284D01*
X205517D01*
Y167392D01*
X203868D01*
Y172284D01*
X201711D01*
Y167026D01*
X200062D01*
Y174257D01*
X209817D01*
Y166842D01*
D02*
G37*
G36*
Y158243D02*
X208167D01*
Y163149D01*
X200132D01*
Y165122D01*
X209817D01*
Y158243D01*
D02*
G37*
G36*
Y149418D02*
X208167D01*
Y154860D01*
X205517D01*
Y149968D01*
X203868D01*
Y154860D01*
X201711D01*
Y149602D01*
X200062D01*
Y156833D01*
X209817D01*
Y149418D01*
D02*
G37*
G36*
X193783Y152809D02*
X194051D01*
X194290Y152795D01*
X194516Y152781D01*
X194713Y152766D01*
X194897Y152752D01*
X195066Y152724D01*
X195207Y152710D01*
X195333Y152696D01*
X195446Y152682D01*
X195531Y152668D01*
X195601Y152654D01*
X195644D01*
X195672Y152640D01*
X195686D01*
X195897Y152569D01*
X196095Y152499D01*
X196278Y152400D01*
X196433Y152315D01*
X196574Y152231D01*
X196687Y152160D01*
X196743Y152104D01*
X196771Y152090D01*
X196955Y151921D01*
X197124Y151737D01*
X197265Y151540D01*
X197392Y151357D01*
X197490Y151202D01*
X197561Y151061D01*
X197603Y150976D01*
X197617Y150962D01*
Y150948D01*
X197674Y150807D01*
X197716Y150652D01*
X197800Y150299D01*
X197857Y149947D01*
X197885Y149609D01*
X197899Y149454D01*
X197913Y149299D01*
Y149172D01*
X197927Y149045D01*
Y148819D01*
X197913Y148410D01*
X197885Y148044D01*
X197829Y147720D01*
X197772Y147452D01*
X197758Y147339D01*
X197730Y147226D01*
X197702Y147142D01*
X197674Y147071D01*
X197659Y147015D01*
X197645Y146973D01*
X197631Y146959D01*
Y146944D01*
X197519Y146691D01*
X197377Y146465D01*
X197251Y146268D01*
X197124Y146098D01*
X197011Y145972D01*
X196926Y145873D01*
X196870Y145817D01*
X196842Y145802D01*
X196644Y145647D01*
X196433Y145521D01*
X196236Y145422D01*
X196038Y145337D01*
X195869Y145281D01*
X195728Y145239D01*
X195686Y145225D01*
X195644D01*
X195630Y145210D01*
X195615D01*
X195460Y145182D01*
X195291Y145154D01*
X195108Y145126D01*
X194925Y145112D01*
X194502Y145084D01*
X194093Y145055D01*
X193910D01*
X193726D01*
X193557Y145041D01*
X193416D01*
X193304D01*
X193205D01*
X193148D01*
X193134D01*
X187989D01*
Y147015D01*
X193402D01*
X193614D01*
X193811D01*
X193994Y147029D01*
X194163D01*
X194304Y147043D01*
X194445D01*
X194572Y147057D01*
X194685D01*
X194854Y147085D01*
X194981Y147099D01*
X195051Y147114D01*
X195080D01*
X195263Y147156D01*
X195418Y147226D01*
X195559Y147311D01*
X195686Y147395D01*
X195785Y147480D01*
X195855Y147550D01*
X195897Y147607D01*
X195911Y147621D01*
X196024Y147790D01*
X196109Y148002D01*
X196165Y148199D01*
X196208Y148410D01*
X196236Y148594D01*
X196250Y148735D01*
Y148876D01*
X196236Y149172D01*
X196193Y149425D01*
X196137Y149651D01*
X196066Y149848D01*
X196010Y149989D01*
X195954Y150102D01*
X195911Y150159D01*
X195897Y150187D01*
X195756Y150342D01*
X195587Y150469D01*
X195432Y150581D01*
X195277Y150652D01*
X195136Y150708D01*
X195023Y150751D01*
X194953Y150779D01*
X194925D01*
X194840Y150793D01*
X194755Y150807D01*
X194643D01*
X194516Y150821D01*
X194248Y150835D01*
X193966D01*
X193712Y150849D01*
X193599D01*
X193487D01*
X193402D01*
X193346D01*
X193304D01*
X193289D01*
X187989D01*
Y152823D01*
X193205D01*
X193501D01*
X193783Y152809D01*
D02*
G37*
G36*
X205447Y148079D02*
X205841Y148037D01*
X206222Y147980D01*
X206560Y147896D01*
X206884Y147811D01*
X207195Y147698D01*
X207463Y147586D01*
X207702Y147473D01*
X207928Y147360D01*
X208125Y147247D01*
X208280Y147135D01*
X208421Y147050D01*
X208520Y146966D01*
X208604Y146909D01*
X208647Y146867D01*
X208661Y146853D01*
X208900Y146613D01*
X209098Y146359D01*
X209281Y146091D01*
X209422Y145824D01*
X209549Y145556D01*
X209662Y145288D01*
X209746Y145034D01*
X209817Y144795D01*
X209873Y144555D01*
X209915Y144344D01*
X209944Y144146D01*
X209958Y143991D01*
X209972Y143850D01*
X209986Y143751D01*
Y143667D01*
X209972Y143371D01*
X209958Y143103D01*
X209915Y142835D01*
X209859Y142595D01*
X209803Y142370D01*
X209746Y142158D01*
X209676Y141961D01*
X209591Y141778D01*
X209521Y141623D01*
X209450Y141482D01*
X209394Y141355D01*
X209337Y141256D01*
X209281Y141172D01*
X209239Y141115D01*
X209225Y141087D01*
X209211Y141073D01*
X209056Y140890D01*
X208886Y140721D01*
X208506Y140410D01*
X208111Y140157D01*
X207730Y139959D01*
X207547Y139875D01*
X207378Y139804D01*
X207223Y139748D01*
X207096Y139691D01*
X206983Y139649D01*
X206899Y139621D01*
X206842Y139607D01*
X206828D01*
X206236Y141524D01*
X206617Y141637D01*
X206941Y141764D01*
X207209Y141891D01*
X207434Y142031D01*
X207603Y142144D01*
X207716Y142243D01*
X207787Y142313D01*
X207815Y142342D01*
X207984Y142567D01*
X208097Y142793D01*
X208181Y143018D01*
X208252Y143216D01*
X208280Y143399D01*
X208294Y143554D01*
X208308Y143610D01*
Y143681D01*
X208294Y143878D01*
X208280Y144061D01*
X208181Y144400D01*
X208069Y144696D01*
X207914Y144936D01*
X207773Y145133D01*
X207660Y145274D01*
X207603Y145330D01*
X207561Y145372D01*
X207547Y145387D01*
X207533Y145401D01*
X207378Y145513D01*
X207195Y145612D01*
X206997Y145711D01*
X206786Y145781D01*
X206349Y145894D01*
X205912Y145979D01*
X205700Y146007D01*
X205517Y146021D01*
X205334Y146049D01*
X205179D01*
X205066Y146063D01*
X204967D01*
X204897D01*
X204883D01*
X204559Y146049D01*
X204263Y146035D01*
X203995Y146007D01*
X203741Y145965D01*
X203515Y145908D01*
X203304Y145852D01*
X203121Y145795D01*
X202952Y145725D01*
X202810Y145669D01*
X202684Y145612D01*
X202585Y145556D01*
X202500Y145499D01*
X202430Y145457D01*
X202388Y145429D01*
X202359Y145401D01*
X202345D01*
X202204Y145274D01*
X202078Y145133D01*
X201979Y144992D01*
X201894Y144837D01*
X201753Y144541D01*
X201655Y144259D01*
X201598Y144019D01*
X201584Y143906D01*
X201570Y143822D01*
X201556Y143737D01*
Y143639D01*
X201570Y143357D01*
X201626Y143103D01*
X201697Y142877D01*
X201781Y142680D01*
X201866Y142525D01*
X201936Y142412D01*
X201993Y142342D01*
X202007Y142313D01*
X202176Y142130D01*
X202374Y141961D01*
X202571Y141834D01*
X202768Y141735D01*
X202937Y141665D01*
X203064Y141623D01*
X203121Y141594D01*
X203163D01*
X203177Y141580D01*
X203191D01*
X202726Y139635D01*
X202317Y139776D01*
X201965Y139931D01*
X201655Y140100D01*
X201401Y140255D01*
X201203Y140410D01*
X201119Y140467D01*
X201048Y140523D01*
X201006Y140566D01*
X200964Y140608D01*
X200936Y140622D01*
Y140636D01*
X200752Y140847D01*
X200583Y141087D01*
X200442Y141313D01*
X200329Y141552D01*
X200217Y141806D01*
X200132Y142046D01*
X200062Y142285D01*
X200005Y142511D01*
X199963Y142722D01*
X199935Y142920D01*
X199907Y143089D01*
X199892Y143244D01*
X199878Y143371D01*
Y143540D01*
X199892Y143906D01*
X199935Y144273D01*
X200005Y144597D01*
X200090Y144921D01*
X200189Y145203D01*
X200301Y145485D01*
X200428Y145725D01*
X200555Y145950D01*
X200682Y146162D01*
X200809Y146331D01*
X200921Y146486D01*
X201020Y146613D01*
X201105Y146712D01*
X201175Y146782D01*
X201218Y146825D01*
X201232Y146839D01*
X201500Y147064D01*
X201781Y147247D01*
X202078Y147417D01*
X202388Y147558D01*
X202712Y147684D01*
X203022Y147783D01*
X203332Y147868D01*
X203628Y147938D01*
X203924Y147995D01*
X204178Y148023D01*
X204418Y148051D01*
X204615Y148079D01*
X204784D01*
X204911Y148093D01*
X204996D01*
X205010D01*
X205024D01*
X205447Y148079D01*
D02*
G37*
G36*
X194868Y143434D02*
X195150Y143378D01*
X195418Y143293D01*
X195658Y143223D01*
X195883Y143124D01*
X196095Y143025D01*
X196278Y142927D01*
X196447Y142828D01*
X196588Y142729D01*
X196715Y142631D01*
X196828Y142546D01*
X196926Y142462D01*
X196997Y142405D01*
X197039Y142349D01*
X197067Y142320D01*
X197082Y142306D01*
X197237Y142109D01*
X197363Y141898D01*
X197476Y141672D01*
X197575Y141432D01*
X197645Y141207D01*
X197716Y140967D01*
X197815Y140502D01*
X197857Y140291D01*
X197885Y140093D01*
X197899Y139924D01*
X197913Y139769D01*
X197927Y139642D01*
Y139459D01*
X197913Y139008D01*
X197871Y138599D01*
X197815Y138232D01*
X197786Y138077D01*
X197744Y137922D01*
X197716Y137795D01*
X197688Y137683D01*
X197659Y137584D01*
X197631Y137499D01*
X197603Y137429D01*
X197589Y137387D01*
X197575Y137358D01*
Y137344D01*
X197420Y137034D01*
X197251Y136780D01*
X197082Y136541D01*
X196898Y136357D01*
X196743Y136216D01*
X196602Y136104D01*
X196518Y136047D01*
X196504Y136019D01*
X196489D01*
X196208Y135864D01*
X195940Y135737D01*
X195672Y135653D01*
X195418Y135596D01*
X195221Y135568D01*
X195122Y135554D01*
X195051Y135540D01*
X194995D01*
X194953D01*
X194925D01*
X194911D01*
X194572Y135554D01*
X194276Y135596D01*
X194008Y135667D01*
X193783Y135737D01*
X193599Y135808D01*
X193473Y135878D01*
X193388Y135920D01*
X193360Y135935D01*
X193134Y136090D01*
X192937Y136273D01*
X192768Y136456D01*
X192627Y136625D01*
X192514Y136780D01*
X192430Y136907D01*
X192373Y136992D01*
X192359Y137006D01*
Y137020D01*
X192288Y137161D01*
X192218Y137302D01*
X192091Y137640D01*
X191978Y137993D01*
X191866Y138331D01*
X191823Y138486D01*
X191781Y138641D01*
X191739Y138782D01*
X191710Y138895D01*
X191682Y138994D01*
X191668Y139064D01*
X191654Y139121D01*
Y139135D01*
X191584Y139388D01*
X191527Y139614D01*
X191471Y139825D01*
X191415Y140023D01*
X191358Y140178D01*
X191302Y140333D01*
X191245Y140460D01*
X191203Y140573D01*
X191161Y140671D01*
X191119Y140742D01*
X191090Y140812D01*
X191062Y140855D01*
X191020Y140925D01*
X191006Y140939D01*
X190907Y141038D01*
X190808Y141108D01*
X190710Y141151D01*
X190611Y141179D01*
X190541Y141207D01*
X190470Y141221D01*
X190428D01*
X190414D01*
X190273Y141207D01*
X190160Y141179D01*
X190047Y141122D01*
X189963Y141066D01*
X189892Y141010D01*
X189850Y140953D01*
X189821Y140925D01*
X189807Y140911D01*
X189681Y140714D01*
X189596Y140502D01*
X189526Y140276D01*
X189483Y140065D01*
X189455Y139882D01*
X189441Y139727D01*
Y139586D01*
X189455Y139290D01*
X189497Y139036D01*
X189554Y138825D01*
X189610Y138655D01*
X189667Y138514D01*
X189723Y138416D01*
X189765Y138359D01*
X189779Y138345D01*
X189920Y138204D01*
X190089Y138077D01*
X190259Y137979D01*
X190442Y137908D01*
X190597Y137852D01*
X190724Y137824D01*
X190822Y137795D01*
X190837D01*
X190851D01*
X190780Y135822D01*
X190526Y135836D01*
X190301Y135878D01*
X190075Y135935D01*
X189878Y136005D01*
X189681Y136076D01*
X189497Y136160D01*
X189342Y136245D01*
X189187Y136329D01*
X189060Y136428D01*
X188948Y136513D01*
X188849Y136597D01*
X188764Y136668D01*
X188708Y136724D01*
X188666Y136766D01*
X188637Y136795D01*
X188623Y136809D01*
X188482Y136992D01*
X188356Y137189D01*
X188243Y137401D01*
X188144Y137626D01*
X188074Y137852D01*
X188003Y138077D01*
X187904Y138528D01*
X187876Y138740D01*
X187848Y138923D01*
X187834Y139106D01*
X187820Y139262D01*
X187806Y139388D01*
Y139558D01*
X187820Y139966D01*
X187862Y140333D01*
X187918Y140657D01*
X187975Y140939D01*
X188017Y141066D01*
X188045Y141179D01*
X188074Y141263D01*
X188102Y141348D01*
X188130Y141404D01*
X188144Y141447D01*
X188158Y141475D01*
Y141489D01*
X188299Y141771D01*
X188454Y142010D01*
X188623Y142222D01*
X188778Y142391D01*
X188919Y142532D01*
X189032Y142617D01*
X189117Y142687D01*
X189131Y142701D01*
X189145D01*
X189384Y142842D01*
X189638Y142941D01*
X189878Y143011D01*
X190089Y143054D01*
X190273Y143082D01*
X190414Y143110D01*
X190470D01*
X190512D01*
X190526D01*
X190541D01*
X190752Y143096D01*
X190963Y143068D01*
X191147Y143025D01*
X191330Y142969D01*
X191668Y142828D01*
X191964Y142659D01*
X192091Y142588D01*
X192190Y142504D01*
X192288Y142433D01*
X192373Y142363D01*
X192430Y142306D01*
X192472Y142264D01*
X192500Y142236D01*
X192514Y142222D01*
X192613Y142095D01*
X192711Y141940D01*
X192810Y141785D01*
X192895Y141602D01*
X193064Y141249D01*
X193205Y140883D01*
X193261Y140699D01*
X193318Y140544D01*
X193360Y140389D01*
X193402Y140262D01*
X193430Y140164D01*
X193459Y140079D01*
X193473Y140023D01*
Y140009D01*
X193529Y139783D01*
X193585Y139586D01*
X193628Y139403D01*
X193670Y139233D01*
X193712Y139092D01*
X193741Y138966D01*
X193783Y138853D01*
X193811Y138754D01*
X193825Y138669D01*
X193853Y138599D01*
X193881Y138500D01*
X193910Y138444D01*
Y138430D01*
X193980Y138246D01*
X194051Y138105D01*
X194121Y137979D01*
X194192Y137880D01*
X194248Y137809D01*
X194290Y137767D01*
X194319Y137739D01*
X194333Y137725D01*
X194431Y137654D01*
X194530Y137598D01*
X194629Y137570D01*
X194713Y137542D01*
X194798Y137528D01*
X194868Y137514D01*
X194911D01*
X194925D01*
X195122Y137528D01*
X195291Y137584D01*
X195460Y137669D01*
X195601Y137753D01*
X195714Y137852D01*
X195799Y137922D01*
X195855Y137979D01*
X195869Y138007D01*
X195996Y138204D01*
X196095Y138430D01*
X196165Y138669D01*
X196208Y138895D01*
X196236Y139106D01*
X196264Y139276D01*
Y139431D01*
X196250Y139755D01*
X196193Y140037D01*
X196123Y140276D01*
X196038Y140488D01*
X195954Y140657D01*
X195883Y140770D01*
X195827Y140840D01*
X195813Y140869D01*
X195615Y141052D01*
X195404Y141193D01*
X195164Y141320D01*
X194925Y141404D01*
X194713Y141475D01*
X194544Y141531D01*
X194488Y141545D01*
X194431D01*
X194403Y141559D01*
X194389D01*
X194572Y143476D01*
X194868Y143434D01*
D02*
G37*
G36*
X201711Y135702D02*
X209817D01*
Y133728D01*
X201711D01*
Y130853D01*
X200062D01*
Y138592D01*
X201711D01*
Y135702D01*
D02*
G37*
G36*
X197744Y126447D02*
X196095D01*
Y131889D01*
X193444D01*
Y126997D01*
X191795D01*
Y131889D01*
X189638D01*
Y126631D01*
X187989D01*
Y133862D01*
X197744D01*
Y126447D01*
D02*
G37*
G36*
X209817Y127596D02*
X205743D01*
Y126962D01*
X205757Y126764D01*
X205771Y126595D01*
X205799Y126454D01*
X205813Y126342D01*
X205841Y126271D01*
X205856Y126229D01*
Y126215D01*
X205912Y126102D01*
X205968Y125989D01*
X206039Y125891D01*
X206095Y125792D01*
X206166Y125721D01*
X206222Y125665D01*
X206250Y125637D01*
X206264Y125623D01*
X206335Y125566D01*
X206405Y125496D01*
X206617Y125341D01*
X206842Y125171D01*
X207096Y124988D01*
X207322Y124833D01*
X207434Y124763D01*
X207519Y124706D01*
X207589Y124650D01*
X207646Y124608D01*
X207688Y124594D01*
X207702Y124579D01*
X209817Y123170D01*
Y120801D01*
X207914Y122000D01*
X207716Y122127D01*
X207519Y122254D01*
X207350Y122366D01*
X207195Y122479D01*
X207054Y122578D01*
X206913Y122662D01*
X206701Y122831D01*
X206532Y122958D01*
X206419Y123043D01*
X206349Y123113D01*
X206335Y123127D01*
X206166Y123282D01*
X206010Y123466D01*
X205884Y123635D01*
X205757Y123804D01*
X205658Y123945D01*
X205588Y124058D01*
X205531Y124142D01*
X205517Y124157D01*
Y124171D01*
X205475Y123931D01*
X205418Y123720D01*
X205362Y123522D01*
X205292Y123325D01*
X205221Y123156D01*
X205151Y123001D01*
X205080Y122845D01*
X204996Y122719D01*
X204925Y122606D01*
X204855Y122507D01*
X204784Y122423D01*
X204728Y122366D01*
X204685Y122310D01*
X204643Y122268D01*
X204629Y122254D01*
X204615Y122239D01*
X204474Y122127D01*
X204333Y122028D01*
X204023Y121859D01*
X203727Y121746D01*
X203431Y121676D01*
X203177Y121619D01*
X203078Y121605D01*
X202980D01*
X202909Y121591D01*
X202839D01*
X202810D01*
X202796D01*
X202486Y121605D01*
X202190Y121661D01*
X201936Y121732D01*
X201711Y121802D01*
X201528Y121887D01*
X201387Y121957D01*
X201344Y121986D01*
X201302Y122014D01*
X201288Y122028D01*
X201274D01*
X201034Y122197D01*
X200837Y122380D01*
X200682Y122564D01*
X200541Y122747D01*
X200456Y122916D01*
X200386Y123043D01*
X200343Y123127D01*
X200329Y123142D01*
Y123156D01*
X200287Y123297D01*
X200245Y123452D01*
X200174Y123804D01*
X200132Y124185D01*
X200090Y124551D01*
Y124734D01*
X200076Y124890D01*
Y125045D01*
X200062Y125171D01*
Y129570D01*
X209817D01*
Y127596D01*
D02*
G37*
G36*
X197744Y122796D02*
X193599D01*
Y118722D01*
X191950D01*
Y122796D01*
X189638D01*
Y118074D01*
X187989D01*
Y124770D01*
X197744D01*
Y122796D01*
D02*
G37*
G36*
X205433Y120125D02*
X205841Y120083D01*
X206222Y120026D01*
X206574Y119942D01*
X206899Y119843D01*
X207195Y119730D01*
X207477Y119617D01*
X207716Y119490D01*
X207942Y119378D01*
X208125Y119265D01*
X208294Y119152D01*
X208435Y119053D01*
X208534Y118969D01*
X208619Y118912D01*
X208661Y118870D01*
X208675Y118856D01*
X208915Y118602D01*
X209112Y118335D01*
X209295Y118067D01*
X209436Y117771D01*
X209563Y117489D01*
X209676Y117193D01*
X209760Y116925D01*
X209831Y116643D01*
X209887Y116389D01*
X209930Y116150D01*
X209958Y115938D01*
X209972Y115755D01*
X209986Y115614D01*
X210000Y115501D01*
Y115402D01*
X209986Y115008D01*
X209944Y114641D01*
X209873Y114289D01*
X209788Y113964D01*
X209690Y113654D01*
X209577Y113372D01*
X209464Y113119D01*
X209337Y112879D01*
X209211Y112682D01*
X209098Y112498D01*
X208985Y112343D01*
X208886Y112216D01*
X208802Y112104D01*
X208731Y112033D01*
X208689Y111991D01*
X208675Y111977D01*
X208407Y111751D01*
X208125Y111554D01*
X207829Y111371D01*
X207533Y111230D01*
X207223Y111103D01*
X206913Y110990D01*
X206603Y110905D01*
X206307Y110835D01*
X206039Y110793D01*
X205771Y110750D01*
X205545Y110722D01*
X205348Y110694D01*
X205179D01*
X205052Y110680D01*
X204981D01*
X204953D01*
X204516Y110694D01*
X204107Y110736D01*
X203727Y110793D01*
X203360Y110877D01*
X203036Y110976D01*
X202726Y111089D01*
X202444Y111201D01*
X202204Y111328D01*
X201979Y111455D01*
X201781Y111568D01*
X201612Y111681D01*
X201471Y111779D01*
X201373Y111850D01*
X201288Y111920D01*
X201246Y111963D01*
X201232Y111977D01*
X200992Y112231D01*
X200781Y112498D01*
X200597Y112780D01*
X200442Y113062D01*
X200315Y113358D01*
X200203Y113640D01*
X200118Y113922D01*
X200047Y114190D01*
X199991Y114444D01*
X199949Y114683D01*
X199921Y114895D01*
X199892Y115078D01*
Y115219D01*
X199878Y115332D01*
Y115430D01*
X199892Y115853D01*
X199935Y116262D01*
X200005Y116615D01*
X200076Y116925D01*
X200118Y117052D01*
X200146Y117178D01*
X200174Y117277D01*
X200217Y117362D01*
X200231Y117432D01*
X200259Y117489D01*
X200273Y117517D01*
Y117531D01*
X200386Y117785D01*
X200527Y118024D01*
X200682Y118236D01*
X200823Y118419D01*
X200950Y118574D01*
X201063Y118701D01*
X201133Y118771D01*
X201147Y118786D01*
X201161Y118800D01*
X201387Y118997D01*
X201626Y119180D01*
X201838Y119335D01*
X202049Y119462D01*
X202232Y119561D01*
X202374Y119646D01*
X202430Y119660D01*
X202472Y119688D01*
X202486Y119702D01*
X202500D01*
X202895Y119843D01*
X203318Y119956D01*
X203741Y120026D01*
X204136Y120083D01*
X204319Y120097D01*
X204488Y120111D01*
X204629Y120125D01*
X204756D01*
X204869Y120139D01*
X204939D01*
X204996D01*
X205010D01*
X205433Y120125D01*
D02*
G37*
G36*
X193783Y116453D02*
X194051D01*
X194290Y116439D01*
X194516Y116424D01*
X194713Y116410D01*
X194897Y116396D01*
X195066Y116368D01*
X195207Y116354D01*
X195333Y116340D01*
X195446Y116326D01*
X195531Y116312D01*
X195601Y116298D01*
X195644D01*
X195672Y116283D01*
X195686D01*
X195897Y116213D01*
X196095Y116142D01*
X196278Y116044D01*
X196433Y115959D01*
X196574Y115875D01*
X196687Y115804D01*
X196743Y115748D01*
X196771Y115734D01*
X196955Y115564D01*
X197124Y115381D01*
X197265Y115184D01*
X197392Y115001D01*
X197490Y114846D01*
X197561Y114705D01*
X197603Y114620D01*
X197617Y114606D01*
Y114592D01*
X197674Y114451D01*
X197716Y114296D01*
X197800Y113943D01*
X197857Y113591D01*
X197885Y113252D01*
X197899Y113097D01*
X197913Y112942D01*
Y112816D01*
X197927Y112689D01*
Y112463D01*
X197913Y112054D01*
X197885Y111688D01*
X197829Y111363D01*
X197772Y111096D01*
X197758Y110983D01*
X197730Y110870D01*
X197702Y110786D01*
X197674Y110715D01*
X197659Y110659D01*
X197645Y110616D01*
X197631Y110602D01*
Y110588D01*
X197519Y110335D01*
X197377Y110109D01*
X197251Y109911D01*
X197124Y109742D01*
X197011Y109615D01*
X196926Y109517D01*
X196870Y109460D01*
X196842Y109446D01*
X196644Y109291D01*
X196433Y109164D01*
X196236Y109066D01*
X196038Y108981D01*
X195869Y108925D01*
X195728Y108883D01*
X195686Y108868D01*
X195644D01*
X195630Y108854D01*
X195615D01*
X195460Y108826D01*
X195291Y108798D01*
X195108Y108770D01*
X194925Y108756D01*
X194502Y108727D01*
X194093Y108699D01*
X193910D01*
X193726D01*
X193557Y108685D01*
X193416D01*
X193304D01*
X193205D01*
X193148D01*
X193134D01*
X187989D01*
Y110659D01*
X193402D01*
X193614D01*
X193811D01*
X193994Y110673D01*
X194163D01*
X194304Y110687D01*
X194445D01*
X194572Y110701D01*
X194685D01*
X194854Y110729D01*
X194981Y110743D01*
X195051Y110757D01*
X195080D01*
X195263Y110800D01*
X195418Y110870D01*
X195559Y110955D01*
X195686Y111039D01*
X195785Y111124D01*
X195855Y111194D01*
X195897Y111251D01*
X195911Y111265D01*
X196024Y111434D01*
X196109Y111645D01*
X196165Y111843D01*
X196208Y112054D01*
X196236Y112238D01*
X196250Y112379D01*
Y112520D01*
X196236Y112816D01*
X196193Y113069D01*
X196137Y113295D01*
X196066Y113492D01*
X196010Y113633D01*
X195954Y113746D01*
X195911Y113802D01*
X195897Y113830D01*
X195756Y113986D01*
X195587Y114112D01*
X195432Y114225D01*
X195277Y114296D01*
X195136Y114352D01*
X195023Y114394D01*
X194953Y114423D01*
X194925D01*
X194840Y114437D01*
X194755Y114451D01*
X194643D01*
X194516Y114465D01*
X194248Y114479D01*
X193966D01*
X193712Y114493D01*
X193599D01*
X193487D01*
X193402D01*
X193346D01*
X193304D01*
X193289D01*
X187989D01*
Y116467D01*
X193205D01*
X193501D01*
X193783Y116453D01*
D02*
G37*
G36*
X209817Y107311D02*
X203389D01*
X209817Y103349D01*
Y101376D01*
X200062D01*
Y103194D01*
X206631D01*
X200062Y107226D01*
Y109129D01*
X209817D01*
Y107311D01*
D02*
G37*
G36*
X197744Y99677D02*
X196095D01*
Y104583D01*
X188059D01*
Y106557D01*
X197744D01*
Y99677D01*
D02*
G37*
G36*
X209817Y97386D02*
X200062D01*
Y99360D01*
X209817D01*
Y97386D01*
D02*
G37*
G36*
X205447Y95836D02*
X205841Y95793D01*
X206222Y95737D01*
X206560Y95652D01*
X206884Y95568D01*
X207195Y95455D01*
X207463Y95342D01*
X207702Y95230D01*
X207928Y95117D01*
X208125Y95004D01*
X208280Y94891D01*
X208421Y94807D01*
X208520Y94722D01*
X208604Y94666D01*
X208647Y94623D01*
X208661Y94609D01*
X208900Y94370D01*
X209098Y94116D01*
X209281Y93848D01*
X209422Y93580D01*
X209549Y93312D01*
X209662Y93045D01*
X209746Y92791D01*
X209817Y92551D01*
X209873Y92311D01*
X209915Y92100D01*
X209944Y91903D01*
X209958Y91748D01*
X209972Y91607D01*
X209986Y91508D01*
Y91423D01*
X209972Y91127D01*
X209958Y90859D01*
X209915Y90592D01*
X209859Y90352D01*
X209803Y90126D01*
X209746Y89915D01*
X209676Y89718D01*
X209591Y89534D01*
X209521Y89379D01*
X209450Y89238D01*
X209394Y89111D01*
X209337Y89013D01*
X209281Y88928D01*
X209239Y88872D01*
X209225Y88844D01*
X209211Y88829D01*
X209056Y88646D01*
X208886Y88477D01*
X208506Y88167D01*
X208111Y87913D01*
X207730Y87716D01*
X207547Y87631D01*
X207378Y87561D01*
X207223Y87504D01*
X207096Y87448D01*
X206983Y87406D01*
X206899Y87378D01*
X206842Y87363D01*
X206828D01*
X206236Y89281D01*
X206617Y89393D01*
X206941Y89520D01*
X207209Y89647D01*
X207434Y89788D01*
X207603Y89901D01*
X207716Y90000D01*
X207787Y90070D01*
X207815Y90098D01*
X207984Y90324D01*
X208097Y90549D01*
X208181Y90775D01*
X208252Y90972D01*
X208280Y91156D01*
X208294Y91311D01*
X208308Y91367D01*
Y91437D01*
X208294Y91635D01*
X208280Y91818D01*
X208181Y92156D01*
X208069Y92452D01*
X207914Y92692D01*
X207773Y92889D01*
X207660Y93030D01*
X207603Y93087D01*
X207561Y93129D01*
X207547Y93143D01*
X207533Y93157D01*
X207378Y93270D01*
X207195Y93369D01*
X206997Y93467D01*
X206786Y93538D01*
X206349Y93651D01*
X205912Y93735D01*
X205700Y93763D01*
X205517Y93778D01*
X205334Y93806D01*
X205179D01*
X205066Y93820D01*
X204967D01*
X204897D01*
X204883D01*
X204559Y93806D01*
X204263Y93792D01*
X203995Y93763D01*
X203741Y93721D01*
X203515Y93665D01*
X203304Y93608D01*
X203121Y93552D01*
X202952Y93482D01*
X202810Y93425D01*
X202684Y93369D01*
X202585Y93312D01*
X202500Y93256D01*
X202430Y93214D01*
X202388Y93185D01*
X202359Y93157D01*
X202345D01*
X202204Y93030D01*
X202078Y92889D01*
X201979Y92748D01*
X201894Y92593D01*
X201753Y92297D01*
X201655Y92015D01*
X201598Y91776D01*
X201584Y91663D01*
X201570Y91578D01*
X201556Y91494D01*
Y91395D01*
X201570Y91113D01*
X201626Y90859D01*
X201697Y90634D01*
X201781Y90436D01*
X201866Y90281D01*
X201936Y90169D01*
X201993Y90098D01*
X202007Y90070D01*
X202176Y89887D01*
X202374Y89718D01*
X202571Y89591D01*
X202768Y89492D01*
X202937Y89422D01*
X203064Y89379D01*
X203121Y89351D01*
X203163D01*
X203177Y89337D01*
X203191D01*
X202726Y87392D01*
X202317Y87533D01*
X201965Y87688D01*
X201655Y87857D01*
X201401Y88012D01*
X201203Y88167D01*
X201119Y88223D01*
X201048Y88280D01*
X201006Y88322D01*
X200964Y88364D01*
X200936Y88378D01*
Y88392D01*
X200752Y88604D01*
X200583Y88844D01*
X200442Y89069D01*
X200329Y89309D01*
X200217Y89563D01*
X200132Y89802D01*
X200062Y90042D01*
X200005Y90267D01*
X199963Y90479D01*
X199935Y90676D01*
X199907Y90845D01*
X199892Y91000D01*
X199878Y91127D01*
Y91296D01*
X199892Y91663D01*
X199935Y92029D01*
X200005Y92354D01*
X200090Y92678D01*
X200189Y92960D01*
X200301Y93242D01*
X200428Y93482D01*
X200555Y93707D01*
X200682Y93919D01*
X200809Y94088D01*
X200921Y94243D01*
X201020Y94370D01*
X201105Y94468D01*
X201175Y94539D01*
X201218Y94581D01*
X201232Y94595D01*
X201500Y94821D01*
X201781Y95004D01*
X202078Y95173D01*
X202388Y95314D01*
X202712Y95441D01*
X203022Y95540D01*
X203332Y95624D01*
X203628Y95695D01*
X203924Y95751D01*
X204178Y95779D01*
X204418Y95808D01*
X204615Y95836D01*
X204784D01*
X204911Y95850D01*
X204996D01*
X205010D01*
X205024D01*
X205447Y95836D01*
D02*
G37*
G36*
X206941Y86137D02*
X207223Y86081D01*
X207491Y85996D01*
X207730Y85926D01*
X207956Y85827D01*
X208167Y85728D01*
X208351Y85629D01*
X208520Y85531D01*
X208661Y85432D01*
X208788Y85333D01*
X208900Y85249D01*
X208999Y85164D01*
X209070Y85108D01*
X209112Y85051D01*
X209140Y85023D01*
X209154Y85009D01*
X209309Y84812D01*
X209436Y84600D01*
X209549Y84375D01*
X209648Y84135D01*
X209718Y83910D01*
X209788Y83670D01*
X209887Y83205D01*
X209930Y82993D01*
X209958Y82796D01*
X209972Y82627D01*
X209986Y82472D01*
X210000Y82345D01*
Y82162D01*
X209986Y81711D01*
X209944Y81302D01*
X209887Y80935D01*
X209859Y80780D01*
X209817Y80625D01*
X209788Y80498D01*
X209760Y80385D01*
X209732Y80287D01*
X209704Y80202D01*
X209676Y80132D01*
X209662Y80089D01*
X209648Y80061D01*
Y80047D01*
X209492Y79737D01*
X209323Y79483D01*
X209154Y79243D01*
X208971Y79060D01*
X208816Y78919D01*
X208675Y78807D01*
X208590Y78750D01*
X208576Y78722D01*
X208562D01*
X208280Y78567D01*
X208012Y78440D01*
X207745Y78355D01*
X207491Y78299D01*
X207293Y78271D01*
X207195Y78257D01*
X207124Y78243D01*
X207068D01*
X207026D01*
X206997D01*
X206983D01*
X206645Y78257D01*
X206349Y78299D01*
X206081Y78369D01*
X205856Y78440D01*
X205672Y78510D01*
X205545Y78581D01*
X205461Y78623D01*
X205433Y78637D01*
X205207Y78792D01*
X205010Y78976D01*
X204841Y79159D01*
X204699Y79328D01*
X204587Y79483D01*
X204502Y79610D01*
X204446Y79695D01*
X204432Y79709D01*
Y79723D01*
X204361Y79864D01*
X204291Y80005D01*
X204164Y80343D01*
X204051Y80695D01*
X203938Y81034D01*
X203896Y81189D01*
X203854Y81344D01*
X203811Y81485D01*
X203783Y81598D01*
X203755Y81696D01*
X203741Y81767D01*
X203727Y81823D01*
Y81837D01*
X203656Y82091D01*
X203600Y82317D01*
X203544Y82528D01*
X203487Y82725D01*
X203431Y82880D01*
X203374Y83036D01*
X203318Y83162D01*
X203276Y83275D01*
X203233Y83374D01*
X203191Y83444D01*
X203163Y83515D01*
X203135Y83557D01*
X203092Y83628D01*
X203078Y83642D01*
X202980Y83740D01*
X202881Y83811D01*
X202782Y83853D01*
X202684Y83881D01*
X202613Y83910D01*
X202543Y83924D01*
X202500D01*
X202486D01*
X202345Y83910D01*
X202232Y83881D01*
X202120Y83825D01*
X202035Y83769D01*
X201965Y83712D01*
X201922Y83656D01*
X201894Y83628D01*
X201880Y83614D01*
X201753Y83416D01*
X201669Y83205D01*
X201598Y82979D01*
X201556Y82768D01*
X201528Y82584D01*
X201514Y82429D01*
Y82289D01*
X201528Y81992D01*
X201570Y81739D01*
X201626Y81527D01*
X201683Y81358D01*
X201739Y81217D01*
X201796Y81118D01*
X201838Y81062D01*
X201852Y81048D01*
X201993Y80907D01*
X202162Y80780D01*
X202331Y80681D01*
X202514Y80611D01*
X202670Y80555D01*
X202796Y80526D01*
X202895Y80498D01*
X202909D01*
X202923D01*
X202853Y78525D01*
X202599Y78539D01*
X202374Y78581D01*
X202148Y78637D01*
X201951Y78708D01*
X201753Y78778D01*
X201570Y78863D01*
X201415Y78948D01*
X201260Y79032D01*
X201133Y79131D01*
X201020Y79215D01*
X200921Y79300D01*
X200837Y79370D01*
X200781Y79427D01*
X200738Y79469D01*
X200710Y79497D01*
X200696Y79511D01*
X200555Y79695D01*
X200428Y79892D01*
X200315Y80103D01*
X200217Y80329D01*
X200146Y80555D01*
X200076Y80780D01*
X199977Y81231D01*
X199949Y81443D01*
X199921Y81626D01*
X199907Y81809D01*
X199892Y81964D01*
X199878Y82091D01*
Y82260D01*
X199892Y82669D01*
X199935Y83036D01*
X199991Y83360D01*
X200047Y83642D01*
X200090Y83769D01*
X200118Y83881D01*
X200146Y83966D01*
X200174Y84051D01*
X200203Y84107D01*
X200217Y84149D01*
X200231Y84178D01*
Y84192D01*
X200372Y84473D01*
X200527Y84713D01*
X200696Y84925D01*
X200851Y85094D01*
X200992Y85235D01*
X201105Y85319D01*
X201189Y85390D01*
X201203Y85404D01*
X201218D01*
X201457Y85545D01*
X201711Y85644D01*
X201951Y85714D01*
X202162Y85756D01*
X202345Y85785D01*
X202486Y85813D01*
X202543D01*
X202585D01*
X202599D01*
X202613D01*
X202825Y85799D01*
X203036Y85770D01*
X203219Y85728D01*
X203403Y85672D01*
X203741Y85531D01*
X204037Y85362D01*
X204164Y85291D01*
X204263Y85206D01*
X204361Y85136D01*
X204446Y85066D01*
X204502Y85009D01*
X204544Y84967D01*
X204573Y84939D01*
X204587Y84925D01*
X204685Y84798D01*
X204784Y84643D01*
X204883Y84488D01*
X204967Y84304D01*
X205137Y83952D01*
X205278Y83585D01*
X205334Y83402D01*
X205390Y83247D01*
X205433Y83092D01*
X205475Y82965D01*
X205503Y82866D01*
X205531Y82782D01*
X205545Y82725D01*
Y82711D01*
X205602Y82486D01*
X205658Y82289D01*
X205700Y82105D01*
X205743Y81936D01*
X205785Y81795D01*
X205813Y81668D01*
X205856Y81555D01*
X205884Y81457D01*
X205898Y81372D01*
X205926Y81302D01*
X205954Y81203D01*
X205982Y81147D01*
Y81132D01*
X206053Y80949D01*
X206123Y80808D01*
X206194Y80681D01*
X206264Y80583D01*
X206321Y80512D01*
X206363Y80470D01*
X206391Y80442D01*
X206405Y80428D01*
X206504Y80357D01*
X206603Y80301D01*
X206701Y80273D01*
X206786Y80244D01*
X206870Y80230D01*
X206941Y80216D01*
X206983D01*
X206997D01*
X207195Y80230D01*
X207364Y80287D01*
X207533Y80371D01*
X207674Y80456D01*
X207787Y80555D01*
X207871Y80625D01*
X207928Y80681D01*
X207942Y80710D01*
X208069Y80907D01*
X208167Y81132D01*
X208238Y81372D01*
X208280Y81598D01*
X208308Y81809D01*
X208337Y81978D01*
Y82133D01*
X208322Y82458D01*
X208266Y82740D01*
X208196Y82979D01*
X208111Y83191D01*
X208026Y83360D01*
X207956Y83473D01*
X207899Y83543D01*
X207885Y83571D01*
X207688Y83755D01*
X207477Y83896D01*
X207237Y84022D01*
X206997Y84107D01*
X206786Y84178D01*
X206617Y84234D01*
X206560Y84248D01*
X206504D01*
X206476Y84262D01*
X206462D01*
X206645Y86179D01*
X206941Y86137D01*
D02*
G37*
G36*
X243567Y235526D02*
X233812D01*
Y237500D01*
X243567D01*
Y235526D01*
D02*
G37*
G36*
X239183Y234032D02*
X239591Y233990D01*
X239972Y233934D01*
X240324Y233849D01*
X240649Y233750D01*
X240945Y233637D01*
X241227Y233525D01*
X241466Y233398D01*
X241692Y233285D01*
X241875Y233172D01*
X242044Y233060D01*
X242185Y232961D01*
X242284Y232876D01*
X242369Y232820D01*
X242411Y232778D01*
X242425Y232763D01*
X242665Y232510D01*
X242862Y232242D01*
X243045Y231974D01*
X243186Y231678D01*
X243313Y231396D01*
X243426Y231100D01*
X243510Y230832D01*
X243581Y230550D01*
X243637Y230296D01*
X243680Y230057D01*
X243708Y229845D01*
X243722Y229662D01*
X243736Y229521D01*
X243750Y229408D01*
Y229310D01*
X243736Y228915D01*
X243694Y228548D01*
X243623Y228196D01*
X243539Y227872D01*
X243440Y227562D01*
X243327Y227280D01*
X243214Y227026D01*
X243087Y226786D01*
X242961Y226589D01*
X242848Y226406D01*
X242735Y226251D01*
X242636Y226124D01*
X242552Y226011D01*
X242481Y225940D01*
X242439Y225898D01*
X242425Y225884D01*
X242157Y225658D01*
X241875Y225461D01*
X241579Y225278D01*
X241283Y225137D01*
X240973Y225010D01*
X240663Y224897D01*
X240353Y224813D01*
X240057Y224742D01*
X239789Y224700D01*
X239521Y224658D01*
X239295Y224629D01*
X239098Y224601D01*
X238929D01*
X238802Y224587D01*
X238731D01*
X238703D01*
X238266Y224601D01*
X237857Y224643D01*
X237477Y224700D01*
X237110Y224785D01*
X236786Y224883D01*
X236476Y224996D01*
X236194Y225109D01*
X235954Y225236D01*
X235729Y225362D01*
X235532Y225475D01*
X235362Y225588D01*
X235221Y225687D01*
X235123Y225757D01*
X235038Y225828D01*
X234996Y225870D01*
X234982Y225884D01*
X234742Y226138D01*
X234531Y226406D01*
X234347Y226688D01*
X234192Y226970D01*
X234065Y227266D01*
X233953Y227547D01*
X233868Y227829D01*
X233797Y228097D01*
X233741Y228351D01*
X233699Y228591D01*
X233671Y228802D01*
X233643Y228985D01*
Y229126D01*
X233628Y229239D01*
Y229338D01*
X233643Y229761D01*
X233685Y230170D01*
X233755Y230522D01*
X233826Y230832D01*
X233868Y230959D01*
X233896Y231086D01*
X233924Y231185D01*
X233967Y231269D01*
X233981Y231340D01*
X234009Y231396D01*
X234023Y231424D01*
Y231438D01*
X234136Y231692D01*
X234277Y231932D01*
X234432Y232143D01*
X234573Y232326D01*
X234700Y232481D01*
X234813Y232608D01*
X234883Y232679D01*
X234897Y232693D01*
X234911Y232707D01*
X235137Y232904D01*
X235376Y233088D01*
X235588Y233243D01*
X235799Y233370D01*
X235983Y233468D01*
X236124Y233553D01*
X236180Y233567D01*
X236222Y233595D01*
X236236Y233609D01*
X236250D01*
X236645Y233750D01*
X237068Y233863D01*
X237491Y233934D01*
X237886Y233990D01*
X238069Y234004D01*
X238238Y234018D01*
X238379Y234032D01*
X238506D01*
X238619Y234046D01*
X238689D01*
X238746D01*
X238760D01*
X239183Y234032D01*
D02*
G37*
G36*
X239310Y223445D02*
X239746Y223417D01*
X240155Y223375D01*
X240522Y223304D01*
X240874Y223234D01*
X241184Y223163D01*
X241452Y223079D01*
X241706Y222980D01*
X241917Y222896D01*
X242101Y222811D01*
X242256Y222740D01*
X242383Y222656D01*
X242481Y222600D01*
X242552Y222557D01*
X242594Y222529D01*
X242608Y222515D01*
X242806Y222332D01*
X242989Y222134D01*
X243144Y221937D01*
X243271Y221726D01*
X243384Y221528D01*
X243468Y221317D01*
X243553Y221119D01*
X243609Y220936D01*
X243651Y220753D01*
X243694Y220598D01*
X243708Y220443D01*
X243736Y220316D01*
Y220217D01*
X243750Y220147D01*
Y220076D01*
X243736Y219822D01*
X243708Y219583D01*
X243665Y219357D01*
X243609Y219146D01*
X243539Y218934D01*
X243468Y218751D01*
X243384Y218582D01*
X243299Y218427D01*
X243214Y218286D01*
X243130Y218173D01*
X243059Y218060D01*
X242989Y217976D01*
X242932Y217905D01*
X242890Y217863D01*
X242862Y217835D01*
X242848Y217821D01*
X242679Y217666D01*
X242481Y217525D01*
X242284Y217412D01*
X242087Y217313D01*
X241889Y217214D01*
X241692Y217144D01*
X241297Y217045D01*
X241128Y217003D01*
X240959Y216975D01*
X240818Y216961D01*
X240691Y216947D01*
X240578Y216933D01*
X240508D01*
X240451D01*
X240437D01*
X240169Y216947D01*
X239930Y216975D01*
X239690Y217017D01*
X239479Y217059D01*
X239267Y217130D01*
X239084Y217200D01*
X238901Y217271D01*
X238746Y217355D01*
X238605Y217440D01*
X238478Y217511D01*
X238379Y217581D01*
X238280Y217651D01*
X238210Y217694D01*
X238168Y217736D01*
X238139Y217764D01*
X238125Y217778D01*
X237970Y217933D01*
X237829Y218102D01*
X237702Y218272D01*
X237604Y218441D01*
X237519Y218610D01*
X237449Y218779D01*
X237336Y219089D01*
X237294Y219230D01*
X237265Y219371D01*
X237251Y219484D01*
X237237Y219583D01*
X237223Y219667D01*
Y219780D01*
X237237Y219977D01*
X237265Y220161D01*
X237294Y220330D01*
X237350Y220499D01*
X237491Y220795D01*
X237632Y221049D01*
X237787Y221246D01*
X237857Y221331D01*
X237928Y221401D01*
X237984Y221458D01*
X238013Y221500D01*
X238041Y221514D01*
X238055Y221528D01*
X237759Y221500D01*
X237477Y221472D01*
X237223Y221444D01*
X236998Y221401D01*
X236800Y221359D01*
X236617Y221317D01*
X236462Y221274D01*
X236321Y221218D01*
X236194Y221176D01*
X236095Y221147D01*
X236011Y221105D01*
X235954Y221077D01*
X235898Y221049D01*
X235870Y221021D01*
X235842Y221007D01*
X235658Y220851D01*
X235532Y220682D01*
X235433Y220513D01*
X235376Y220358D01*
X235334Y220217D01*
X235320Y220104D01*
X235306Y220034D01*
Y220006D01*
X235320Y219851D01*
X235348Y219695D01*
X235390Y219569D01*
X235433Y219470D01*
X235489Y219385D01*
X235532Y219329D01*
X235560Y219287D01*
X235574Y219273D01*
X235686Y219174D01*
X235813Y219103D01*
X235954Y219033D01*
X236081Y218991D01*
X236208Y218962D01*
X236307Y218934D01*
X236363Y218920D01*
X236391D01*
X236194Y217116D01*
X235771Y217214D01*
X235419Y217355D01*
X235109Y217511D01*
X234841Y217666D01*
X234643Y217821D01*
X234573Y217877D01*
X234502Y217948D01*
X234460Y217990D01*
X234418Y218032D01*
X234390Y218046D01*
Y218060D01*
X234277Y218201D01*
X234178Y218342D01*
X234023Y218652D01*
X233910Y218962D01*
X233840Y219244D01*
X233783Y219498D01*
X233769Y219611D01*
Y219710D01*
X233755Y219780D01*
Y219893D01*
X233769Y220189D01*
X233812Y220457D01*
X233868Y220725D01*
X233939Y220964D01*
X234037Y221190D01*
X234136Y221415D01*
X234249Y221599D01*
X234347Y221782D01*
X234460Y221937D01*
X234573Y222078D01*
X234671Y222191D01*
X234770Y222289D01*
X234841Y222374D01*
X234897Y222430D01*
X234939Y222458D01*
X234953Y222473D01*
X235193Y222642D01*
X235461Y222797D01*
X235757Y222924D01*
X236053Y223036D01*
X236377Y223135D01*
X236702Y223220D01*
X237026Y223290D01*
X237336Y223333D01*
X237632Y223375D01*
X237914Y223403D01*
X238168Y223431D01*
X238393Y223445D01*
X238576Y223459D01*
X238717D01*
X238760D01*
X238802D01*
X238816D01*
X238830D01*
X239310Y223445D01*
D02*
G37*
G36*
X243567Y34276D02*
X233812D01*
Y36250D01*
X243567D01*
Y34276D01*
D02*
G37*
G36*
X239183Y32782D02*
X239591Y32740D01*
X239972Y32683D01*
X240324Y32599D01*
X240649Y32500D01*
X240945Y32387D01*
X241227Y32275D01*
X241466Y32148D01*
X241692Y32035D01*
X241875Y31922D01*
X242044Y31809D01*
X242185Y31711D01*
X242284Y31626D01*
X242369Y31570D01*
X242411Y31528D01*
X242425Y31513D01*
X242665Y31260D01*
X242862Y30992D01*
X243045Y30724D01*
X243186Y30428D01*
X243313Y30146D01*
X243426Y29850D01*
X243510Y29582D01*
X243581Y29300D01*
X243637Y29046D01*
X243680Y28807D01*
X243708Y28595D01*
X243722Y28412D01*
X243736Y28271D01*
X243750Y28158D01*
Y28060D01*
X243736Y27665D01*
X243694Y27298D01*
X243623Y26946D01*
X243539Y26622D01*
X243440Y26312D01*
X243327Y26030D01*
X243214Y25776D01*
X243087Y25536D01*
X242961Y25339D01*
X242848Y25156D01*
X242735Y25001D01*
X242636Y24874D01*
X242552Y24761D01*
X242481Y24690D01*
X242439Y24648D01*
X242425Y24634D01*
X242157Y24409D01*
X241875Y24211D01*
X241579Y24028D01*
X241283Y23887D01*
X240973Y23760D01*
X240663Y23647D01*
X240353Y23563D01*
X240057Y23492D01*
X239789Y23450D01*
X239521Y23408D01*
X239295Y23379D01*
X239098Y23351D01*
X238929D01*
X238802Y23337D01*
X238731D01*
X238703D01*
X238266Y23351D01*
X237857Y23393D01*
X237477Y23450D01*
X237110Y23535D01*
X236786Y23633D01*
X236476Y23746D01*
X236194Y23859D01*
X235954Y23986D01*
X235729Y24113D01*
X235532Y24225D01*
X235362Y24338D01*
X235221Y24437D01*
X235123Y24507D01*
X235038Y24578D01*
X234996Y24620D01*
X234982Y24634D01*
X234742Y24888D01*
X234531Y25156D01*
X234347Y25438D01*
X234192Y25719D01*
X234065Y26016D01*
X233953Y26298D01*
X233868Y26579D01*
X233797Y26847D01*
X233741Y27101D01*
X233699Y27341D01*
X233671Y27552D01*
X233643Y27735D01*
Y27876D01*
X233628Y27989D01*
Y28088D01*
X233643Y28511D01*
X233685Y28920D01*
X233755Y29272D01*
X233826Y29582D01*
X233868Y29709D01*
X233896Y29836D01*
X233924Y29934D01*
X233967Y30019D01*
X233981Y30090D01*
X234009Y30146D01*
X234023Y30174D01*
Y30188D01*
X234136Y30442D01*
X234277Y30682D01*
X234432Y30893D01*
X234573Y31076D01*
X234700Y31232D01*
X234813Y31358D01*
X234883Y31429D01*
X234897Y31443D01*
X234911Y31457D01*
X235137Y31654D01*
X235376Y31838D01*
X235588Y31993D01*
X235799Y32120D01*
X235983Y32218D01*
X236124Y32303D01*
X236180Y32317D01*
X236222Y32345D01*
X236236Y32359D01*
X236250D01*
X236645Y32500D01*
X237068Y32613D01*
X237491Y32683D01*
X237886Y32740D01*
X238069Y32754D01*
X238238Y32768D01*
X238379Y32782D01*
X238506D01*
X238619Y32796D01*
X238689D01*
X238746D01*
X238760D01*
X239183Y32782D01*
D02*
G37*
G36*
X241311Y22139D02*
X241523Y22097D01*
X241903Y21956D01*
X242242Y21801D01*
X242383Y21716D01*
X242524Y21617D01*
X242636Y21533D01*
X242735Y21462D01*
X242820Y21378D01*
X242904Y21321D01*
X242961Y21265D01*
X243003Y21223D01*
X243017Y21194D01*
X243031Y21180D01*
X243158Y21011D01*
X243271Y20842D01*
X243369Y20659D01*
X243440Y20475D01*
X243581Y20095D01*
X243665Y19756D01*
X243694Y19587D01*
X243708Y19446D01*
X243722Y19305D01*
X243736Y19193D01*
X243750Y19094D01*
Y18967D01*
X243736Y18657D01*
X243694Y18361D01*
X243637Y18093D01*
X243553Y17839D01*
X243454Y17600D01*
X243341Y17388D01*
X243228Y17191D01*
X243102Y17008D01*
X242989Y16853D01*
X242876Y16711D01*
X242763Y16585D01*
X242665Y16486D01*
X242580Y16415D01*
X242524Y16359D01*
X242481Y16331D01*
X242467Y16317D01*
X242284Y16190D01*
X242101Y16077D01*
X241917Y15993D01*
X241720Y15908D01*
X241353Y15781D01*
X241015Y15697D01*
X240874Y15668D01*
X240733Y15654D01*
X240606Y15626D01*
X240494D01*
X240409Y15612D01*
X240353D01*
X240310D01*
X240296D01*
X240028Y15626D01*
X239775Y15654D01*
X239535Y15697D01*
X239310Y15753D01*
X239112Y15809D01*
X238915Y15894D01*
X238731Y15964D01*
X238576Y16049D01*
X238435Y16134D01*
X238309Y16204D01*
X238196Y16289D01*
X238111Y16345D01*
X238041Y16401D01*
X237984Y16444D01*
X237956Y16472D01*
X237942Y16486D01*
X237787Y16655D01*
X237646Y16824D01*
X237519Y17008D01*
X237406Y17191D01*
X237322Y17360D01*
X237251Y17543D01*
X237139Y17867D01*
X237096Y18023D01*
X237068Y18163D01*
X237054Y18290D01*
X237040Y18389D01*
X237026Y18474D01*
Y18600D01*
X237040Y18840D01*
X237082Y19080D01*
X237124Y19291D01*
X237181Y19489D01*
X237251Y19644D01*
X237294Y19771D01*
X237336Y19855D01*
X237350Y19869D01*
Y19883D01*
X235686Y19587D01*
Y16049D01*
X233939D01*
Y20997D01*
X239028Y21956D01*
X239239Y20447D01*
X239112Y20320D01*
X238999Y20194D01*
X238901Y20067D01*
X238816Y19940D01*
X238689Y19700D01*
X238605Y19475D01*
X238562Y19277D01*
X238534Y19136D01*
X238520Y19080D01*
Y18995D01*
X238534Y18770D01*
X238591Y18558D01*
X238661Y18375D01*
X238746Y18220D01*
X238844Y18107D01*
X238915Y18009D01*
X238971Y17952D01*
X238985Y17938D01*
X239168Y17797D01*
X239380Y17698D01*
X239606Y17628D01*
X239831Y17586D01*
X240028Y17543D01*
X240184Y17529D01*
X240254D01*
X240296D01*
X240324D01*
X240338D01*
X240677Y17543D01*
X240973Y17586D01*
X241213Y17656D01*
X241410Y17727D01*
X241579Y17811D01*
X241692Y17867D01*
X241748Y17924D01*
X241776Y17938D01*
X241931Y18093D01*
X242058Y18262D01*
X242143Y18431D01*
X242199Y18586D01*
X242227Y18727D01*
X242242Y18840D01*
X242256Y18911D01*
Y18939D01*
X242242Y19122D01*
X242199Y19305D01*
X242143Y19461D01*
X242073Y19587D01*
X242002Y19700D01*
X241946Y19785D01*
X241903Y19841D01*
X241889Y19855D01*
X241734Y19982D01*
X241579Y20095D01*
X241410Y20179D01*
X241255Y20236D01*
X241114Y20278D01*
X240987Y20306D01*
X240917Y20320D01*
X240888D01*
X241086Y22181D01*
X241311Y22139D01*
D02*
G37*
G36*
X16682Y209972D02*
X17162Y209915D01*
X17599Y209817D01*
X17810Y209774D01*
X17994Y209718D01*
X18163Y209662D01*
X18318Y209619D01*
X18445Y209563D01*
X18557Y209521D01*
X18642Y209492D01*
X18713Y209464D01*
X18755Y209436D01*
X18769D01*
X19192Y209196D01*
X19558Y208929D01*
X19883Y208647D01*
X20136Y208365D01*
X20249Y208238D01*
X20348Y208111D01*
X20432Y208012D01*
X20489Y207914D01*
X20545Y207843D01*
X20587Y207773D01*
X20601Y207745D01*
X20616Y207730D01*
X20728Y207505D01*
X20827Y207293D01*
X20982Y206828D01*
X21095Y206377D01*
X21165Y205968D01*
X21194Y205771D01*
X21222Y205602D01*
X21236Y205447D01*
Y205306D01*
X21250Y205207D01*
Y205052D01*
X21236Y204601D01*
X21179Y204178D01*
X21109Y203769D01*
X21024Y203417D01*
X20982Y203262D01*
X20940Y203121D01*
X20898Y202994D01*
X20869Y202881D01*
X20841Y202796D01*
X20813Y202740D01*
X20799Y202698D01*
Y202684D01*
X20630Y202261D01*
X20446Y201908D01*
X20263Y201598D01*
X20108Y201330D01*
X19967Y201133D01*
X19911Y201063D01*
X19854Y200992D01*
X19812Y200950D01*
X19784Y200907D01*
X19756Y200879D01*
X15837D01*
Y205122D01*
X17486D01*
Y202867D01*
X18741D01*
X18868Y203036D01*
X18980Y203219D01*
X19079Y203403D01*
X19164Y203572D01*
X19234Y203713D01*
X19290Y203840D01*
X19319Y203910D01*
X19333Y203924D01*
Y203938D01*
X19417Y204164D01*
X19474Y204389D01*
X19516Y204601D01*
X19544Y204784D01*
X19558Y204953D01*
X19572Y205066D01*
Y205179D01*
X19558Y205404D01*
X19530Y205630D01*
X19488Y205827D01*
X19432Y206025D01*
X19290Y206377D01*
X19220Y206518D01*
X19135Y206659D01*
X19051Y206786D01*
X18980Y206899D01*
X18896Y206983D01*
X18839Y207068D01*
X18783Y207124D01*
X18741Y207167D01*
X18713Y207195D01*
X18698Y207209D01*
X18529Y207336D01*
X18332Y207463D01*
X18134Y207561D01*
X17923Y207646D01*
X17486Y207787D01*
X17063Y207871D01*
X16866Y207899D01*
X16668Y207928D01*
X16513Y207942D01*
X16358Y207956D01*
X16245Y207970D01*
X16147D01*
X16091D01*
X16076D01*
X15780Y207956D01*
X15512Y207942D01*
X15245Y207899D01*
X15005Y207857D01*
X14793Y207801D01*
X14596Y207730D01*
X14413Y207660D01*
X14244Y207589D01*
X14103Y207533D01*
X13976Y207463D01*
X13877Y207392D01*
X13793Y207336D01*
X13722Y207293D01*
X13680Y207251D01*
X13652Y207237D01*
X13638Y207223D01*
X13497Y207068D01*
X13356Y206913D01*
X13257Y206744D01*
X13158Y206574D01*
X13074Y206405D01*
X13003Y206236D01*
X12904Y205912D01*
X12876Y205757D01*
X12848Y205616D01*
X12834Y205489D01*
X12820Y205376D01*
X12806Y205292D01*
Y205165D01*
X12820Y204855D01*
X12876Y204587D01*
X12933Y204347D01*
X13017Y204136D01*
X13088Y203981D01*
X13158Y203854D01*
X13215Y203783D01*
X13229Y203755D01*
X13398Y203558D01*
X13581Y203389D01*
X13764Y203248D01*
X13948Y203149D01*
X14117Y203064D01*
X14244Y203008D01*
X14328Y202980D01*
X14342Y202966D01*
X14356D01*
X13990Y201006D01*
X13750Y201063D01*
X13511Y201147D01*
X13299Y201232D01*
X13102Y201344D01*
X12904Y201443D01*
X12735Y201556D01*
X12580Y201669D01*
X12439Y201781D01*
X12313Y201894D01*
X12200Y201993D01*
X12101Y202078D01*
X12031Y202162D01*
X11974Y202232D01*
X11918Y202289D01*
X11904Y202317D01*
X11890Y202331D01*
X11749Y202529D01*
X11636Y202740D01*
X11537Y202966D01*
X11453Y203205D01*
X11312Y203670D01*
X11227Y204121D01*
X11185Y204333D01*
X11171Y204530D01*
X11157Y204714D01*
X11142Y204869D01*
X11128Y204996D01*
Y205165D01*
X11142Y205672D01*
X11199Y206123D01*
X11241Y206321D01*
X11283Y206518D01*
X11326Y206701D01*
X11368Y206856D01*
X11424Y206997D01*
X11467Y207138D01*
X11509Y207237D01*
X11537Y207336D01*
X11579Y207406D01*
X11594Y207463D01*
X11622Y207491D01*
Y207505D01*
X11875Y207942D01*
X12031Y208125D01*
X12171Y208308D01*
X12327Y208477D01*
X12482Y208633D01*
X12637Y208773D01*
X12778Y208900D01*
X12919Y208999D01*
X13046Y209098D01*
X13158Y209182D01*
X13257Y209253D01*
X13342Y209295D01*
X13398Y209337D01*
X13440Y209352D01*
X13454Y209366D01*
X13680Y209478D01*
X13905Y209577D01*
X14371Y209732D01*
X14836Y209845D01*
X15245Y209915D01*
X15442Y209944D01*
X15611Y209972D01*
X15766Y209986D01*
X15907D01*
X16006Y210000D01*
X16091D01*
X16147D01*
X16161D01*
X16682Y209972D01*
D02*
G37*
G36*
X21067Y197228D02*
X14639D01*
X21067Y193267D01*
Y191293D01*
X11312D01*
Y193112D01*
X17881D01*
X11312Y197143D01*
Y199047D01*
X21067D01*
Y197228D01*
D02*
G37*
G36*
Y185513D02*
X21053Y185133D01*
X21038Y184781D01*
X21010Y184484D01*
X20968Y184245D01*
X20926Y184047D01*
X20898Y183892D01*
X20883Y183850D01*
Y183808D01*
X20869Y183794D01*
Y183780D01*
X20757Y183469D01*
X20630Y183188D01*
X20503Y182962D01*
X20376Y182765D01*
X20263Y182610D01*
X20179Y182497D01*
X20122Y182426D01*
X20094Y182398D01*
X19826Y182158D01*
X19544Y181947D01*
X19248Y181764D01*
X18980Y181623D01*
X18727Y181510D01*
X18628Y181454D01*
X18543Y181425D01*
X18459Y181397D01*
X18402Y181369D01*
X18374Y181355D01*
X18360D01*
X18022Y181256D01*
X17669Y181172D01*
X17331Y181115D01*
X17007Y181087D01*
X16852Y181073D01*
X16711Y181059D01*
X16598D01*
X16485Y181045D01*
X16401D01*
X16344D01*
X16302D01*
X16288D01*
X15794Y181059D01*
X15357Y181101D01*
X15146Y181115D01*
X14963Y181143D01*
X14779Y181172D01*
X14624Y181200D01*
X14483Y181242D01*
X14356Y181270D01*
X14244Y181299D01*
X14159Y181313D01*
X14089Y181341D01*
X14032Y181355D01*
X14004Y181369D01*
X13990D01*
X13652Y181496D01*
X13342Y181651D01*
X13074Y181806D01*
X12848Y181961D01*
X12665Y182088D01*
X12524Y182201D01*
X12439Y182271D01*
X12411Y182285D01*
Y182299D01*
X12186Y182539D01*
X12002Y182779D01*
X11847Y183032D01*
X11720Y183258D01*
X11622Y183455D01*
X11551Y183624D01*
X11537Y183681D01*
X11523Y183723D01*
X11509Y183751D01*
Y183766D01*
X11438Y184033D01*
X11396Y184329D01*
X11354Y184639D01*
X11340Y184935D01*
X11326Y185203D01*
X11312Y185316D01*
Y189207D01*
X21067D01*
Y185513D01*
D02*
G37*
G36*
X46067Y208026D02*
X41993D01*
Y207392D01*
X42007Y207195D01*
X42021Y207026D01*
X42049Y206884D01*
X42063Y206772D01*
X42091Y206701D01*
X42105Y206659D01*
Y206645D01*
X42162Y206532D01*
X42218Y206419D01*
X42289Y206321D01*
X42345Y206222D01*
X42416Y206152D01*
X42472Y206095D01*
X42500Y206067D01*
X42514Y206053D01*
X42585Y205996D01*
X42655Y205926D01*
X42867Y205771D01*
X43092Y205602D01*
X43346Y205418D01*
X43572Y205263D01*
X43684Y205193D01*
X43769Y205137D01*
X43839Y205080D01*
X43896Y205038D01*
X43938Y205024D01*
X43952Y205010D01*
X46067Y203600D01*
Y201232D01*
X44164Y202430D01*
X43966Y202557D01*
X43769Y202684D01*
X43600Y202796D01*
X43445Y202909D01*
X43304Y203008D01*
X43163Y203092D01*
X42951Y203262D01*
X42782Y203389D01*
X42669Y203473D01*
X42599Y203544D01*
X42585Y203558D01*
X42416Y203713D01*
X42260Y203896D01*
X42134Y204065D01*
X42007Y204234D01*
X41908Y204375D01*
X41838Y204488D01*
X41781Y204573D01*
X41767Y204587D01*
Y204601D01*
X41725Y204361D01*
X41668Y204150D01*
X41612Y203952D01*
X41542Y203755D01*
X41471Y203586D01*
X41401Y203431D01*
X41330Y203276D01*
X41245Y203149D01*
X41175Y203036D01*
X41105Y202937D01*
X41034Y202853D01*
X40978Y202796D01*
X40935Y202740D01*
X40893Y202698D01*
X40879Y202684D01*
X40865Y202670D01*
X40724Y202557D01*
X40583Y202458D01*
X40273Y202289D01*
X39977Y202176D01*
X39681Y202106D01*
X39427Y202049D01*
X39328Y202035D01*
X39230D01*
X39159Y202021D01*
X39089D01*
X39060D01*
X39046D01*
X38736Y202035D01*
X38440Y202092D01*
X38187Y202162D01*
X37961Y202232D01*
X37778Y202317D01*
X37637Y202388D01*
X37594Y202416D01*
X37552Y202444D01*
X37538Y202458D01*
X37524D01*
X37284Y202627D01*
X37087Y202810D01*
X36932Y202994D01*
X36791Y203177D01*
X36706Y203346D01*
X36636Y203473D01*
X36593Y203558D01*
X36579Y203572D01*
Y203586D01*
X36537Y203727D01*
X36495Y203882D01*
X36424Y204234D01*
X36382Y204615D01*
X36340Y204981D01*
Y205165D01*
X36326Y205320D01*
Y205475D01*
X36312Y205602D01*
Y210000D01*
X46067D01*
Y208026D01*
D02*
G37*
G36*
X43191Y200640D02*
X43473Y200583D01*
X43741Y200499D01*
X43980Y200428D01*
X44206Y200329D01*
X44417Y200231D01*
X44601Y200132D01*
X44770Y200033D01*
X44911Y199935D01*
X45038Y199836D01*
X45150Y199751D01*
X45249Y199667D01*
X45320Y199611D01*
X45362Y199554D01*
X45390Y199526D01*
X45404Y199512D01*
X45559Y199314D01*
X45686Y199103D01*
X45799Y198878D01*
X45897Y198638D01*
X45968Y198412D01*
X46038Y198173D01*
X46137Y197707D01*
X46179Y197496D01*
X46208Y197299D01*
X46222Y197129D01*
X46236Y196974D01*
X46250Y196847D01*
Y196664D01*
X46236Y196213D01*
X46194Y195804D01*
X46137Y195438D01*
X46109Y195283D01*
X46067Y195128D01*
X46038Y195001D01*
X46010Y194888D01*
X45982Y194789D01*
X45954Y194705D01*
X45926Y194634D01*
X45912Y194592D01*
X45897Y194564D01*
Y194550D01*
X45743Y194240D01*
X45573Y193986D01*
X45404Y193746D01*
X45221Y193563D01*
X45066Y193422D01*
X44925Y193309D01*
X44840Y193253D01*
X44826Y193225D01*
X44812D01*
X44530Y193069D01*
X44262Y192943D01*
X43994Y192858D01*
X43741Y192802D01*
X43543Y192773D01*
X43445Y192759D01*
X43374Y192745D01*
X43318D01*
X43275D01*
X43247D01*
X43233D01*
X42895Y192759D01*
X42599Y192802D01*
X42331Y192872D01*
X42105Y192943D01*
X41922Y193013D01*
X41795Y193084D01*
X41711Y193126D01*
X41683Y193140D01*
X41457Y193295D01*
X41260Y193478D01*
X41090Y193662D01*
X40950Y193831D01*
X40837Y193986D01*
X40752Y194113D01*
X40696Y194197D01*
X40682Y194211D01*
Y194225D01*
X40611Y194366D01*
X40541Y194507D01*
X40414Y194846D01*
X40301Y195198D01*
X40188Y195536D01*
X40146Y195692D01*
X40104Y195847D01*
X40061Y195988D01*
X40033Y196100D01*
X40005Y196199D01*
X39991Y196269D01*
X39977Y196326D01*
Y196340D01*
X39906Y196594D01*
X39850Y196819D01*
X39794Y197031D01*
X39737Y197228D01*
X39681Y197383D01*
X39624Y197538D01*
X39568Y197665D01*
X39526Y197778D01*
X39483Y197877D01*
X39441Y197947D01*
X39413Y198018D01*
X39385Y198060D01*
X39342Y198130D01*
X39328Y198144D01*
X39230Y198243D01*
X39131Y198314D01*
X39032Y198356D01*
X38934Y198384D01*
X38863Y198412D01*
X38793Y198426D01*
X38750D01*
X38736D01*
X38595Y198412D01*
X38482Y198384D01*
X38370Y198328D01*
X38285Y198271D01*
X38215Y198215D01*
X38172Y198158D01*
X38144Y198130D01*
X38130Y198116D01*
X38003Y197919D01*
X37919Y197707D01*
X37848Y197482D01*
X37806Y197270D01*
X37778Y197087D01*
X37764Y196932D01*
Y196791D01*
X37778Y196495D01*
X37820Y196241D01*
X37876Y196030D01*
X37933Y195861D01*
X37989Y195720D01*
X38045Y195621D01*
X38088Y195565D01*
X38102Y195551D01*
X38243Y195410D01*
X38412Y195283D01*
X38581Y195184D01*
X38765Y195114D01*
X38919Y195057D01*
X39046Y195029D01*
X39145Y195001D01*
X39159D01*
X39173D01*
X39103Y193027D01*
X38849Y193041D01*
X38623Y193084D01*
X38398Y193140D01*
X38201Y193211D01*
X38003Y193281D01*
X37820Y193365D01*
X37665Y193450D01*
X37510Y193535D01*
X37383Y193633D01*
X37270Y193718D01*
X37171Y193803D01*
X37087Y193873D01*
X37030Y193929D01*
X36988Y193972D01*
X36960Y194000D01*
X36946Y194014D01*
X36805Y194197D01*
X36678Y194395D01*
X36565Y194606D01*
X36467Y194832D01*
X36396Y195057D01*
X36326Y195283D01*
X36227Y195734D01*
X36199Y195945D01*
X36171Y196129D01*
X36156Y196312D01*
X36142Y196467D01*
X36128Y196594D01*
Y196763D01*
X36142Y197172D01*
X36185Y197538D01*
X36241Y197862D01*
X36298Y198144D01*
X36340Y198271D01*
X36368Y198384D01*
X36396Y198469D01*
X36424Y198553D01*
X36453Y198610D01*
X36467Y198652D01*
X36481Y198680D01*
Y198694D01*
X36622Y198976D01*
X36777Y199216D01*
X36946Y199427D01*
X37101Y199596D01*
X37242Y199737D01*
X37355Y199822D01*
X37439Y199892D01*
X37453Y199907D01*
X37468D01*
X37707Y200047D01*
X37961Y200146D01*
X38201Y200217D01*
X38412Y200259D01*
X38595Y200287D01*
X38736Y200315D01*
X38793D01*
X38835D01*
X38849D01*
X38863D01*
X39075Y200301D01*
X39286Y200273D01*
X39469Y200231D01*
X39653Y200174D01*
X39991Y200033D01*
X40287Y199864D01*
X40414Y199794D01*
X40512Y199709D01*
X40611Y199639D01*
X40696Y199568D01*
X40752Y199512D01*
X40794Y199470D01*
X40823Y199441D01*
X40837Y199427D01*
X40935Y199300D01*
X41034Y199145D01*
X41133Y198990D01*
X41217Y198807D01*
X41386Y198454D01*
X41528Y198088D01*
X41584Y197905D01*
X41640Y197750D01*
X41683Y197595D01*
X41725Y197468D01*
X41753Y197369D01*
X41781Y197285D01*
X41795Y197228D01*
Y197214D01*
X41852Y196989D01*
X41908Y196791D01*
X41950Y196608D01*
X41993Y196439D01*
X42035Y196298D01*
X42063Y196171D01*
X42105Y196058D01*
X42134Y195959D01*
X42148Y195875D01*
X42176Y195804D01*
X42204Y195706D01*
X42232Y195649D01*
Y195635D01*
X42303Y195452D01*
X42373Y195311D01*
X42444Y195184D01*
X42514Y195085D01*
X42571Y195015D01*
X42613Y194973D01*
X42641Y194944D01*
X42655Y194930D01*
X42754Y194860D01*
X42853Y194803D01*
X42951Y194775D01*
X43036Y194747D01*
X43120Y194733D01*
X43191Y194719D01*
X43233D01*
X43247D01*
X43445Y194733D01*
X43614Y194789D01*
X43783Y194874D01*
X43924Y194958D01*
X44037Y195057D01*
X44121Y195128D01*
X44178Y195184D01*
X44192Y195212D01*
X44319Y195410D01*
X44417Y195635D01*
X44488Y195875D01*
X44530Y196100D01*
X44558Y196312D01*
X44587Y196481D01*
Y196636D01*
X44572Y196960D01*
X44516Y197242D01*
X44446Y197482D01*
X44361Y197693D01*
X44276Y197862D01*
X44206Y197975D01*
X44149Y198046D01*
X44135Y198074D01*
X43938Y198257D01*
X43727Y198398D01*
X43487Y198525D01*
X43247Y198610D01*
X43036Y198680D01*
X42867Y198736D01*
X42810Y198751D01*
X42754D01*
X42726Y198765D01*
X42712D01*
X42895Y200682D01*
X43191Y200640D01*
D02*
G37*
G36*
X37961Y188869D02*
X46067D01*
Y186895D01*
X37961D01*
Y184019D01*
X36312D01*
Y191758D01*
X37961D01*
Y188869D01*
D02*
G37*
G36*
X96250Y209276D02*
X92176D01*
Y208642D01*
X92190Y208445D01*
X92204Y208276D01*
X92232Y208135D01*
X92246Y208022D01*
X92275Y207951D01*
X92289Y207909D01*
Y207895D01*
X92345Y207782D01*
X92402Y207669D01*
X92472Y207571D01*
X92528Y207472D01*
X92599Y207402D01*
X92655Y207345D01*
X92683Y207317D01*
X92698Y207303D01*
X92768Y207246D01*
X92838Y207176D01*
X93050Y207021D01*
X93275Y206852D01*
X93529Y206668D01*
X93755Y206513D01*
X93868Y206443D01*
X93952Y206387D01*
X94023Y206330D01*
X94079Y206288D01*
X94121Y206274D01*
X94135Y206260D01*
X96250Y204850D01*
Y202482D01*
X94347Y203680D01*
X94150Y203807D01*
X93952Y203934D01*
X93783Y204046D01*
X93628Y204159D01*
X93487Y204258D01*
X93346Y204342D01*
X93135Y204512D01*
X92965Y204639D01*
X92853Y204723D01*
X92782Y204794D01*
X92768Y204808D01*
X92599Y204963D01*
X92444Y205146D01*
X92317Y205315D01*
X92190Y205484D01*
X92091Y205625D01*
X92021Y205738D01*
X91965Y205823D01*
X91950Y205837D01*
Y205851D01*
X91908Y205611D01*
X91852Y205400D01*
X91795Y205202D01*
X91725Y205005D01*
X91654Y204836D01*
X91584Y204681D01*
X91513Y204526D01*
X91429Y204399D01*
X91358Y204286D01*
X91288Y204187D01*
X91217Y204103D01*
X91161Y204046D01*
X91119Y203990D01*
X91076Y203948D01*
X91062Y203934D01*
X91048Y203920D01*
X90907Y203807D01*
X90766Y203708D01*
X90456Y203539D01*
X90160Y203426D01*
X89864Y203356D01*
X89610Y203299D01*
X89512Y203285D01*
X89413D01*
X89342Y203271D01*
X89272D01*
X89244D01*
X89230D01*
X88920Y203285D01*
X88624Y203342D01*
X88370Y203412D01*
X88144Y203483D01*
X87961Y203567D01*
X87820Y203638D01*
X87778Y203666D01*
X87735Y203694D01*
X87721Y203708D01*
X87707D01*
X87468Y203877D01*
X87270Y204061D01*
X87115Y204244D01*
X86974Y204427D01*
X86890Y204596D01*
X86819Y204723D01*
X86777Y204808D01*
X86763Y204822D01*
Y204836D01*
X86720Y204977D01*
X86678Y205132D01*
X86608Y205484D01*
X86565Y205865D01*
X86523Y206231D01*
Y206415D01*
X86509Y206570D01*
Y206725D01*
X86495Y206852D01*
Y211250D01*
X96250D01*
Y209276D01*
D02*
G37*
G36*
Y200043D02*
X92951Y197872D01*
X96250Y195715D01*
Y193347D01*
X91175Y196702D01*
X86495Y193643D01*
Y195941D01*
X89413Y197872D01*
X86495Y199803D01*
Y202101D01*
X91175Y199042D01*
X96250Y202411D01*
Y200043D01*
D02*
G37*
G36*
X63144Y208360D02*
X71250D01*
Y206387D01*
X63144D01*
Y203511D01*
X61495D01*
Y211250D01*
X63144D01*
Y208360D01*
D02*
G37*
G36*
X71250Y200861D02*
X67951Y198690D01*
X71250Y196533D01*
Y194165D01*
X66175Y197519D01*
X61495Y194461D01*
Y196758D01*
X64413Y198690D01*
X61495Y200621D01*
Y202919D01*
X66175Y199860D01*
X71250Y203229D01*
Y200861D01*
D02*
G37*
G36*
X172331Y210681D02*
X165903D01*
X172331Y206720D01*
Y204747D01*
X162576D01*
Y206565D01*
X169145D01*
X162576Y210597D01*
Y212500D01*
X172331D01*
Y210681D01*
D02*
G37*
G36*
X167961Y202999D02*
X168356Y202956D01*
X168736Y202900D01*
X169074Y202815D01*
X169399Y202731D01*
X169709Y202618D01*
X169977Y202505D01*
X170216Y202393D01*
X170442Y202280D01*
X170639Y202167D01*
X170794Y202054D01*
X170935Y201970D01*
X171034Y201885D01*
X171119Y201829D01*
X171161Y201786D01*
X171175Y201772D01*
X171415Y201533D01*
X171612Y201279D01*
X171795Y201011D01*
X171936Y200743D01*
X172063Y200475D01*
X172176Y200207D01*
X172260Y199954D01*
X172331Y199714D01*
X172387Y199474D01*
X172430Y199263D01*
X172458Y199066D01*
X172472Y198911D01*
X172486Y198770D01*
X172500Y198671D01*
Y198586D01*
X172486Y198290D01*
X172472Y198022D01*
X172430Y197755D01*
X172373Y197515D01*
X172317Y197289D01*
X172260Y197078D01*
X172190Y196881D01*
X172105Y196697D01*
X172035Y196542D01*
X171964Y196401D01*
X171908Y196274D01*
X171852Y196176D01*
X171795Y196091D01*
X171753Y196035D01*
X171739Y196007D01*
X171725Y195992D01*
X171570Y195809D01*
X171400Y195640D01*
X171020Y195330D01*
X170625Y195076D01*
X170245Y194879D01*
X170061Y194794D01*
X169892Y194724D01*
X169737Y194667D01*
X169610Y194611D01*
X169497Y194569D01*
X169413Y194541D01*
X169356Y194526D01*
X169342D01*
X168750Y196444D01*
X169131Y196556D01*
X169455Y196683D01*
X169723Y196810D01*
X169949Y196951D01*
X170118Y197064D01*
X170230Y197162D01*
X170301Y197233D01*
X170329Y197261D01*
X170498Y197487D01*
X170611Y197712D01*
X170696Y197938D01*
X170766Y198135D01*
X170794Y198319D01*
X170808Y198473D01*
X170823Y198530D01*
Y198600D01*
X170808Y198798D01*
X170794Y198981D01*
X170696Y199319D01*
X170583Y199615D01*
X170428Y199855D01*
X170287Y200052D01*
X170174Y200193D01*
X170118Y200250D01*
X170075Y200292D01*
X170061Y200306D01*
X170047Y200320D01*
X169892Y200433D01*
X169709Y200532D01*
X169511Y200630D01*
X169300Y200701D01*
X168863Y200814D01*
X168426Y200898D01*
X168214Y200926D01*
X168031Y200940D01*
X167848Y200969D01*
X167693D01*
X167580Y200983D01*
X167481D01*
X167411D01*
X167397D01*
X167073Y200969D01*
X166777Y200955D01*
X166509Y200926D01*
X166255Y200884D01*
X166029Y200828D01*
X165818Y200771D01*
X165635Y200715D01*
X165466Y200644D01*
X165325Y200588D01*
X165198Y200532D01*
X165099Y200475D01*
X165014Y200419D01*
X164944Y200377D01*
X164902Y200348D01*
X164874Y200320D01*
X164859D01*
X164718Y200193D01*
X164592Y200052D01*
X164493Y199911D01*
X164408Y199756D01*
X164267Y199460D01*
X164169Y199178D01*
X164112Y198939D01*
X164098Y198826D01*
X164084Y198741D01*
X164070Y198657D01*
Y198558D01*
X164084Y198276D01*
X164140Y198022D01*
X164211Y197797D01*
X164296Y197600D01*
X164380Y197444D01*
X164451Y197332D01*
X164507Y197261D01*
X164521Y197233D01*
X164690Y197050D01*
X164888Y196881D01*
X165085Y196754D01*
X165282Y196655D01*
X165452Y196584D01*
X165578Y196542D01*
X165635Y196514D01*
X165677D01*
X165691Y196500D01*
X165705D01*
X165240Y194555D01*
X164831Y194695D01*
X164479Y194851D01*
X164169Y195020D01*
X163915Y195175D01*
X163718Y195330D01*
X163633Y195386D01*
X163563Y195443D01*
X163520Y195485D01*
X163478Y195527D01*
X163450Y195541D01*
Y195555D01*
X163267Y195767D01*
X163097Y196007D01*
X162956Y196232D01*
X162844Y196472D01*
X162731Y196726D01*
X162646Y196965D01*
X162576Y197205D01*
X162519Y197430D01*
X162477Y197642D01*
X162449Y197839D01*
X162421Y198008D01*
X162407Y198163D01*
X162393Y198290D01*
Y198459D01*
X162407Y198826D01*
X162449Y199193D01*
X162519Y199517D01*
X162604Y199841D01*
X162703Y200123D01*
X162815Y200405D01*
X162942Y200644D01*
X163069Y200870D01*
X163196Y201082D01*
X163323Y201251D01*
X163436Y201406D01*
X163534Y201533D01*
X163619Y201631D01*
X163689Y201702D01*
X163732Y201744D01*
X163746Y201758D01*
X164014Y201984D01*
X164296Y202167D01*
X164592Y202336D01*
X164902Y202477D01*
X165226Y202604D01*
X165536Y202703D01*
X165846Y202787D01*
X166142Y202858D01*
X166438Y202914D01*
X166692Y202942D01*
X166932Y202971D01*
X167129Y202999D01*
X167298D01*
X167425Y203013D01*
X167510D01*
X167524D01*
X167538D01*
X167961Y202999D01*
D02*
G37*
G36*
X197317Y210527D02*
X187562D01*
Y212500D01*
X197317D01*
Y210527D01*
D02*
G37*
G36*
X192933Y209032D02*
X193341Y208990D01*
X193722Y208934D01*
X194074Y208849D01*
X194399Y208750D01*
X194695Y208638D01*
X194977Y208525D01*
X195216Y208398D01*
X195442Y208285D01*
X195625Y208172D01*
X195794Y208060D01*
X195935Y207961D01*
X196034Y207876D01*
X196119Y207820D01*
X196161Y207778D01*
X196175Y207763D01*
X196415Y207510D01*
X196612Y207242D01*
X196795Y206974D01*
X196936Y206678D01*
X197063Y206396D01*
X197176Y206100D01*
X197260Y205832D01*
X197331Y205550D01*
X197387Y205296D01*
X197430Y205057D01*
X197458Y204845D01*
X197472Y204662D01*
X197486Y204521D01*
X197500Y204408D01*
Y204310D01*
X197486Y203915D01*
X197444Y203548D01*
X197373Y203196D01*
X197289Y202872D01*
X197190Y202562D01*
X197077Y202280D01*
X196964Y202026D01*
X196838Y201786D01*
X196711Y201589D01*
X196598Y201406D01*
X196485Y201251D01*
X196386Y201124D01*
X196302Y201011D01*
X196231Y200940D01*
X196189Y200898D01*
X196175Y200884D01*
X195907Y200659D01*
X195625Y200461D01*
X195329Y200278D01*
X195033Y200137D01*
X194723Y200010D01*
X194413Y199897D01*
X194103Y199813D01*
X193807Y199742D01*
X193539Y199700D01*
X193271Y199658D01*
X193045Y199629D01*
X192848Y199601D01*
X192679D01*
X192552Y199587D01*
X192481D01*
X192453D01*
X192016Y199601D01*
X191607Y199644D01*
X191227Y199700D01*
X190860Y199785D01*
X190536Y199883D01*
X190226Y199996D01*
X189944Y200109D01*
X189704Y200236D01*
X189479Y200362D01*
X189282Y200475D01*
X189112Y200588D01*
X188971Y200687D01*
X188873Y200757D01*
X188788Y200828D01*
X188746Y200870D01*
X188732Y200884D01*
X188492Y201138D01*
X188281Y201406D01*
X188097Y201688D01*
X187942Y201970D01*
X187815Y202266D01*
X187703Y202548D01*
X187618Y202829D01*
X187547Y203097D01*
X187491Y203351D01*
X187449Y203591D01*
X187421Y203802D01*
X187393Y203985D01*
Y204126D01*
X187378Y204239D01*
Y204338D01*
X187393Y204761D01*
X187435Y205170D01*
X187505Y205522D01*
X187576Y205832D01*
X187618Y205959D01*
X187646Y206086D01*
X187674Y206185D01*
X187717Y206269D01*
X187731Y206340D01*
X187759Y206396D01*
X187773Y206424D01*
Y206438D01*
X187886Y206692D01*
X188027Y206932D01*
X188182Y207143D01*
X188323Y207326D01*
X188450Y207481D01*
X188563Y207608D01*
X188633Y207679D01*
X188647Y207693D01*
X188661Y207707D01*
X188887Y207904D01*
X189126Y208088D01*
X189338Y208243D01*
X189549Y208370D01*
X189733Y208468D01*
X189874Y208553D01*
X189930Y208567D01*
X189972Y208595D01*
X189986Y208609D01*
X190000D01*
X190395Y208750D01*
X190818Y208863D01*
X191241Y208934D01*
X191636Y208990D01*
X191819Y209004D01*
X191988Y209018D01*
X192129Y209032D01*
X192256D01*
X192369Y209046D01*
X192439D01*
X192496D01*
X192510D01*
X192933Y209032D01*
D02*
G37*
G36*
X189422Y194216D02*
X190057Y194681D01*
X190719Y195090D01*
X191029Y195288D01*
X191354Y195457D01*
X191650Y195612D01*
X191932Y195753D01*
X192199Y195880D01*
X192439Y195992D01*
X192665Y196091D01*
X192848Y196176D01*
X192989Y196232D01*
X193102Y196274D01*
X193172Y196303D01*
X193200Y196317D01*
X193595Y196458D01*
X193976Y196584D01*
X194356Y196683D01*
X194723Y196782D01*
X195089Y196852D01*
X195428Y196923D01*
X195752Y196979D01*
X196048Y197022D01*
X196316Y197064D01*
X196570Y197092D01*
X196781Y197120D01*
X196964Y197134D01*
X197119D01*
X197232Y197148D01*
X197289D01*
X197317D01*
Y195344D01*
X196823Y195330D01*
X196316Y195288D01*
X195823Y195217D01*
X195597Y195189D01*
X195371Y195147D01*
X195174Y195104D01*
X194977Y195062D01*
X194822Y195034D01*
X194681Y195006D01*
X194554Y194977D01*
X194469Y194949D01*
X194413Y194935D01*
X194399D01*
X193792Y194752D01*
X193214Y194555D01*
X192947Y194456D01*
X192693Y194343D01*
X192453Y194244D01*
X192228Y194146D01*
X192030Y194047D01*
X191847Y193962D01*
X191678Y193878D01*
X191551Y193822D01*
X191438Y193765D01*
X191368Y193723D01*
X191311Y193695D01*
X191297Y193680D01*
X191029Y193526D01*
X190776Y193370D01*
X190550Y193229D01*
X190325Y193088D01*
X190127Y192948D01*
X189944Y192806D01*
X189775Y192680D01*
X189620Y192567D01*
X189479Y192454D01*
X189366Y192355D01*
X189267Y192271D01*
X189183Y192200D01*
X189126Y192144D01*
X189084Y192102D01*
X189056Y192073D01*
X189042Y192059D01*
X187689D01*
Y198459D01*
X189422D01*
Y194216D01*
D02*
G37*
G36*
X147317Y207754D02*
Y205625D01*
X137562Y202157D01*
Y204258D01*
X144779Y206640D01*
X137562Y209121D01*
Y211250D01*
X147317Y207754D01*
D02*
G37*
G36*
X144977Y201622D02*
X145188Y201565D01*
X145583Y201439D01*
X145921Y201283D01*
X146062Y201185D01*
X146203Y201100D01*
X146330Y201016D01*
X146429Y200931D01*
X146527Y200861D01*
X146598Y200790D01*
X146654Y200734D01*
X146697Y200691D01*
X146725Y200663D01*
X146739Y200649D01*
X146866Y200480D01*
X146993Y200297D01*
X147091Y200128D01*
X147176Y199930D01*
X147317Y199564D01*
X147401Y199225D01*
X147430Y199056D01*
X147458Y198915D01*
X147472Y198788D01*
X147486Y198675D01*
X147500Y198577D01*
Y198450D01*
X147486Y198196D01*
X147458Y197943D01*
X147415Y197717D01*
X147359Y197491D01*
X147289Y197294D01*
X147218Y197097D01*
X147134Y196913D01*
X147049Y196758D01*
X146964Y196617D01*
X146880Y196476D01*
X146809Y196378D01*
X146739Y196279D01*
X146682Y196208D01*
X146640Y196152D01*
X146612Y196124D01*
X146598Y196110D01*
X146429Y195941D01*
X146245Y195800D01*
X146062Y195673D01*
X145879Y195560D01*
X145681Y195476D01*
X145498Y195391D01*
X145160Y195278D01*
X145005Y195250D01*
X144850Y195222D01*
X144723Y195194D01*
X144610Y195179D01*
X144525Y195165D01*
X144455D01*
X144413D01*
X144399D01*
X144074Y195194D01*
X143792Y195250D01*
X143525Y195320D01*
X143313Y195419D01*
X143130Y195518D01*
X143003Y195588D01*
X142919Y195645D01*
X142890Y195673D01*
X142679Y195870D01*
X142496Y196096D01*
X142355Y196321D01*
X142242Y196533D01*
X142157Y196716D01*
X142115Y196871D01*
X142087Y196928D01*
Y196970D01*
X142073Y196998D01*
Y197012D01*
X141918Y196758D01*
X141763Y196547D01*
X141593Y196364D01*
X141424Y196194D01*
X141255Y196054D01*
X141086Y195941D01*
X140917Y195856D01*
X140762Y195772D01*
X140607Y195715D01*
X140466Y195673D01*
X140339Y195645D01*
X140226Y195630D01*
X140141Y195616D01*
X140071Y195602D01*
X140029D01*
X140014D01*
X139845Y195616D01*
X139690Y195630D01*
X139380Y195715D01*
X139098Y195814D01*
X138858Y195941D01*
X138661Y196068D01*
X138520Y196180D01*
X138464Y196223D01*
X138421Y196265D01*
X138407Y196279D01*
X138393Y196293D01*
X138238Y196448D01*
X138097Y196631D01*
X137985Y196801D01*
X137886Y196984D01*
X137787Y197181D01*
X137717Y197365D01*
X137618Y197717D01*
X137576Y197872D01*
X137548Y198027D01*
X137533Y198154D01*
X137519Y198281D01*
X137505Y198379D01*
Y198506D01*
X137519Y198802D01*
X137548Y199070D01*
X137604Y199324D01*
X137660Y199535D01*
X137717Y199705D01*
X137773Y199846D01*
X137801Y199930D01*
X137815Y199944D01*
Y199958D01*
X137942Y200184D01*
X138083Y200395D01*
X138224Y200564D01*
X138351Y200706D01*
X138478Y200818D01*
X138577Y200903D01*
X138633Y200959D01*
X138661Y200973D01*
X138873Y201100D01*
X139098Y201213D01*
X139338Y201297D01*
X139563Y201382D01*
X139775Y201439D01*
X139930Y201481D01*
X140000Y201495D01*
X140043D01*
X140071Y201509D01*
X140085D01*
X140367Y199789D01*
X140141Y199747D01*
X139944Y199690D01*
X139775Y199634D01*
X139648Y199564D01*
X139535Y199493D01*
X139451Y199437D01*
X139408Y199394D01*
X139394Y199380D01*
X139282Y199254D01*
X139197Y199112D01*
X139141Y198972D01*
X139098Y198845D01*
X139070Y198732D01*
X139056Y198647D01*
Y198563D01*
X139070Y198394D01*
X139098Y198224D01*
X139155Y198097D01*
X139197Y197985D01*
X139253Y197886D01*
X139310Y197830D01*
X139338Y197787D01*
X139352Y197773D01*
X139465Y197675D01*
X139606Y197604D01*
X139733Y197548D01*
X139859Y197519D01*
X139972Y197491D01*
X140057Y197477D01*
X140113D01*
X140141D01*
X140353Y197491D01*
X140536Y197534D01*
X140691Y197604D01*
X140818Y197675D01*
X140931Y197759D01*
X141001Y197816D01*
X141058Y197872D01*
X141072Y197886D01*
X141185Y198055D01*
X141269Y198239D01*
X141326Y198436D01*
X141368Y198619D01*
X141382Y198788D01*
X141396Y198929D01*
Y199056D01*
X142904Y199254D01*
X142862Y199070D01*
X142820Y198915D01*
X142792Y198760D01*
X142778Y198633D01*
X142763Y198535D01*
Y198394D01*
X142778Y198196D01*
X142834Y198027D01*
X142890Y197872D01*
X142975Y197731D01*
X143045Y197632D01*
X143116Y197548D01*
X143172Y197491D01*
X143186Y197477D01*
X143356Y197350D01*
X143539Y197252D01*
X143722Y197181D01*
X143905Y197125D01*
X144074Y197097D01*
X144201Y197083D01*
X144286D01*
X144300D01*
X144314D01*
X144582Y197097D01*
X144822Y197139D01*
X145033Y197209D01*
X145202Y197280D01*
X145329Y197365D01*
X145428Y197421D01*
X145498Y197477D01*
X145512Y197491D01*
X145653Y197646D01*
X145766Y197816D01*
X145837Y197971D01*
X145893Y198126D01*
X145921Y198267D01*
X145935Y198365D01*
X145949Y198436D01*
Y198464D01*
X145935Y198661D01*
X145893Y198831D01*
X145837Y198986D01*
X145766Y199127D01*
X145710Y199225D01*
X145653Y199310D01*
X145611Y199366D01*
X145597Y199380D01*
X145442Y199507D01*
X145273Y199620D01*
X145089Y199690D01*
X144920Y199761D01*
X144765Y199803D01*
X144638Y199832D01*
X144554Y199846D01*
X144540D01*
X144525D01*
X144751Y201650D01*
X144977Y201622D01*
D02*
G37*
G36*
X147317Y191077D02*
Y188949D01*
X137562Y185481D01*
Y187581D01*
X144779Y189964D01*
X137562Y192445D01*
Y194573D01*
X147317Y191077D01*
D02*
G37*
G36*
X122317Y207021D02*
X122303Y206781D01*
Y206358D01*
X122289Y206189D01*
Y205921D01*
X122274Y205823D01*
Y205682D01*
X122260Y205625D01*
Y205569D01*
X122218Y205287D01*
X122148Y205033D01*
X122077Y204808D01*
X121993Y204610D01*
X121922Y204455D01*
X121852Y204342D01*
X121809Y204272D01*
X121795Y204244D01*
X121640Y204046D01*
X121471Y203891D01*
X121316Y203736D01*
X121147Y203624D01*
X121006Y203525D01*
X120893Y203454D01*
X120822Y203412D01*
X120794Y203398D01*
X120555Y203299D01*
X120329Y203215D01*
X120104Y203158D01*
X119906Y203130D01*
X119737Y203102D01*
X119610Y203088D01*
X119525D01*
X119511D01*
X119497D01*
X119187Y203102D01*
X118905Y203158D01*
X118666Y203243D01*
X118440Y203328D01*
X118271Y203412D01*
X118144Y203497D01*
X118059Y203553D01*
X118031Y203567D01*
X117806Y203764D01*
X117622Y203976D01*
X117467Y204216D01*
X117355Y204427D01*
X117256Y204625D01*
X117185Y204794D01*
X117171Y204850D01*
X117157Y204892D01*
X117143Y204921D01*
Y204935D01*
X117016Y204709D01*
X116889Y204512D01*
X116734Y204342D01*
X116607Y204202D01*
X116481Y204103D01*
X116382Y204018D01*
X116311Y203962D01*
X116283Y203948D01*
X116058Y203821D01*
X115846Y203722D01*
X115635Y203666D01*
X115437Y203610D01*
X115268Y203581D01*
X115141Y203567D01*
X115057D01*
X115043D01*
X115029D01*
X114803Y203581D01*
X114578Y203610D01*
X114394Y203666D01*
X114225Y203722D01*
X114084Y203779D01*
X113971Y203835D01*
X113915Y203863D01*
X113887Y203877D01*
X113703Y203990D01*
X113548Y204117D01*
X113407Y204244D01*
X113280Y204357D01*
X113196Y204469D01*
X113125Y204554D01*
X113083Y204610D01*
X113069Y204625D01*
X112956Y204794D01*
X112872Y204977D01*
X112801Y205146D01*
X112745Y205301D01*
X112703Y205442D01*
X112674Y205541D01*
X112660Y205611D01*
Y205639D01*
X112632Y205879D01*
X112604Y206147D01*
X112590Y206429D01*
X112576Y206711D01*
X112562Y206965D01*
Y211250D01*
X122317D01*
Y207021D01*
D02*
G37*
G36*
X117933Y201805D02*
X118341Y201763D01*
X118722Y201706D01*
X119074Y201622D01*
X119399Y201523D01*
X119695Y201410D01*
X119977Y201298D01*
X120216Y201171D01*
X120442Y201058D01*
X120625Y200945D01*
X120794Y200832D01*
X120935Y200734D01*
X121034Y200649D01*
X121118Y200593D01*
X121161Y200550D01*
X121175Y200536D01*
X121414Y200283D01*
X121612Y200015D01*
X121795Y199747D01*
X121936Y199451D01*
X122063Y199169D01*
X122176Y198873D01*
X122260Y198605D01*
X122331Y198323D01*
X122387Y198069D01*
X122430Y197830D01*
X122458Y197618D01*
X122472Y197435D01*
X122486Y197294D01*
X122500Y197181D01*
Y197083D01*
X122486Y196688D01*
X122444Y196321D01*
X122373Y195969D01*
X122289Y195645D01*
X122190Y195334D01*
X122077Y195053D01*
X121964Y194799D01*
X121837Y194559D01*
X121711Y194362D01*
X121598Y194179D01*
X121485Y194023D01*
X121386Y193897D01*
X121302Y193784D01*
X121231Y193713D01*
X121189Y193671D01*
X121175Y193657D01*
X120907Y193431D01*
X120625Y193234D01*
X120329Y193051D01*
X120033Y192910D01*
X119723Y192783D01*
X119413Y192670D01*
X119103Y192586D01*
X118807Y192515D01*
X118539Y192473D01*
X118271Y192431D01*
X118045Y192402D01*
X117848Y192374D01*
X117679D01*
X117552Y192360D01*
X117481D01*
X117453D01*
X117016Y192374D01*
X116607Y192416D01*
X116227Y192473D01*
X115860Y192557D01*
X115536Y192656D01*
X115226Y192769D01*
X114944Y192882D01*
X114704Y193008D01*
X114479Y193135D01*
X114281Y193248D01*
X114112Y193361D01*
X113971Y193460D01*
X113873Y193530D01*
X113788Y193601D01*
X113746Y193643D01*
X113732Y193657D01*
X113492Y193911D01*
X113280Y194179D01*
X113097Y194461D01*
X112942Y194743D01*
X112815Y195039D01*
X112703Y195320D01*
X112618Y195602D01*
X112548Y195870D01*
X112491Y196124D01*
X112449Y196364D01*
X112421Y196575D01*
X112392Y196758D01*
Y196899D01*
X112378Y197012D01*
Y197111D01*
X112392Y197534D01*
X112435Y197943D01*
X112505Y198295D01*
X112576Y198605D01*
X112618Y198732D01*
X112646Y198859D01*
X112674Y198958D01*
X112717Y199042D01*
X112731Y199112D01*
X112759Y199169D01*
X112773Y199197D01*
Y199211D01*
X112886Y199465D01*
X113027Y199705D01*
X113182Y199916D01*
X113323Y200099D01*
X113450Y200254D01*
X113562Y200381D01*
X113633Y200452D01*
X113647Y200466D01*
X113661Y200480D01*
X113887Y200677D01*
X114126Y200861D01*
X114338Y201016D01*
X114549Y201143D01*
X114733Y201241D01*
X114874Y201326D01*
X114930Y201340D01*
X114972Y201368D01*
X114986Y201382D01*
X115000D01*
X115395Y201523D01*
X115818Y201636D01*
X116241Y201706D01*
X116636Y201763D01*
X116819Y201777D01*
X116988Y201791D01*
X117129Y201805D01*
X117256D01*
X117369Y201819D01*
X117439D01*
X117495D01*
X117510D01*
X117933Y201805D01*
D02*
G37*
G36*
Y191204D02*
X118341Y191162D01*
X118722Y191105D01*
X119074Y191021D01*
X119399Y190922D01*
X119695Y190809D01*
X119977Y190697D01*
X120216Y190570D01*
X120442Y190457D01*
X120625Y190344D01*
X120794Y190231D01*
X120935Y190133D01*
X121034Y190048D01*
X121118Y189992D01*
X121161Y189949D01*
X121175Y189935D01*
X121414Y189682D01*
X121612Y189414D01*
X121795Y189146D01*
X121936Y188850D01*
X122063Y188568D01*
X122176Y188272D01*
X122260Y188004D01*
X122331Y187722D01*
X122387Y187468D01*
X122430Y187229D01*
X122458Y187017D01*
X122472Y186834D01*
X122486Y186693D01*
X122500Y186580D01*
Y186482D01*
X122486Y186087D01*
X122444Y185720D01*
X122373Y185368D01*
X122289Y185044D01*
X122190Y184734D01*
X122077Y184452D01*
X121964Y184198D01*
X121837Y183958D01*
X121711Y183761D01*
X121598Y183578D01*
X121485Y183423D01*
X121386Y183296D01*
X121302Y183183D01*
X121231Y183112D01*
X121189Y183070D01*
X121175Y183056D01*
X120907Y182831D01*
X120625Y182633D01*
X120329Y182450D01*
X120033Y182309D01*
X119723Y182182D01*
X119413Y182069D01*
X119103Y181985D01*
X118807Y181914D01*
X118539Y181872D01*
X118271Y181830D01*
X118045Y181801D01*
X117848Y181773D01*
X117679D01*
X117552Y181759D01*
X117481D01*
X117453D01*
X117016Y181773D01*
X116607Y181815D01*
X116227Y181872D01*
X115860Y181957D01*
X115536Y182055D01*
X115226Y182168D01*
X114944Y182281D01*
X114704Y182408D01*
X114479Y182535D01*
X114281Y182647D01*
X114112Y182760D01*
X113971Y182859D01*
X113873Y182929D01*
X113788Y183000D01*
X113746Y183042D01*
X113732Y183056D01*
X113492Y183310D01*
X113280Y183578D01*
X113097Y183860D01*
X112942Y184142D01*
X112815Y184438D01*
X112703Y184720D01*
X112618Y185001D01*
X112548Y185269D01*
X112491Y185523D01*
X112449Y185763D01*
X112421Y185974D01*
X112392Y186157D01*
Y186298D01*
X112378Y186411D01*
Y186510D01*
X112392Y186933D01*
X112435Y187341D01*
X112505Y187694D01*
X112576Y188004D01*
X112618Y188131D01*
X112646Y188258D01*
X112674Y188356D01*
X112717Y188441D01*
X112731Y188512D01*
X112759Y188568D01*
X112773Y188596D01*
Y188610D01*
X112886Y188864D01*
X113027Y189104D01*
X113182Y189315D01*
X113323Y189498D01*
X113450Y189653D01*
X113562Y189780D01*
X113633Y189851D01*
X113647Y189865D01*
X113661Y189879D01*
X113887Y190076D01*
X114126Y190260D01*
X114338Y190415D01*
X114549Y190542D01*
X114733Y190640D01*
X114874Y190725D01*
X114930Y190739D01*
X114972Y190767D01*
X114986Y190781D01*
X115000D01*
X115395Y190922D01*
X115818Y191035D01*
X116241Y191105D01*
X116636Y191162D01*
X116819Y191176D01*
X116988Y191190D01*
X117129Y191204D01*
X117256D01*
X117369Y191218D01*
X117439D01*
X117495D01*
X117510D01*
X117933Y191204D01*
D02*
G37*
G36*
X114211Y178009D02*
X122317D01*
Y176036D01*
X114211D01*
Y173160D01*
X112562D01*
Y180899D01*
X114211D01*
Y178009D01*
D02*
G37*
G36*
X120061Y62458D02*
X120273Y62415D01*
X120653Y62274D01*
X120992Y62119D01*
X121132Y62035D01*
X121273Y61936D01*
X121386Y61852D01*
X121485Y61781D01*
X121570Y61697D01*
X121654Y61640D01*
X121711Y61584D01*
X121753Y61541D01*
X121767Y61513D01*
X121781Y61499D01*
X121908Y61330D01*
X122021Y61161D01*
X122119Y60978D01*
X122190Y60794D01*
X122331Y60414D01*
X122415Y60075D01*
X122444Y59906D01*
X122458Y59765D01*
X122472Y59624D01*
X122486Y59511D01*
X122500Y59413D01*
Y59286D01*
X122486Y58976D01*
X122444Y58680D01*
X122387Y58412D01*
X122303Y58158D01*
X122204Y57919D01*
X122091Y57707D01*
X121978Y57510D01*
X121852Y57326D01*
X121739Y57171D01*
X121626Y57030D01*
X121513Y56904D01*
X121414Y56805D01*
X121330Y56734D01*
X121273Y56678D01*
X121231Y56650D01*
X121217Y56636D01*
X121034Y56509D01*
X120851Y56396D01*
X120667Y56311D01*
X120470Y56227D01*
X120104Y56100D01*
X119765Y56015D01*
X119624Y55987D01*
X119483Y55973D01*
X119356Y55945D01*
X119244D01*
X119159Y55931D01*
X119103D01*
X119060D01*
X119046D01*
X118778Y55945D01*
X118525Y55973D01*
X118285Y56015D01*
X118059Y56072D01*
X117862Y56128D01*
X117665Y56213D01*
X117481Y56283D01*
X117326Y56368D01*
X117185Y56452D01*
X117058Y56523D01*
X116946Y56607D01*
X116861Y56664D01*
X116791Y56720D01*
X116734Y56762D01*
X116706Y56791D01*
X116692Y56805D01*
X116537Y56974D01*
X116396Y57143D01*
X116269Y57326D01*
X116156Y57510D01*
X116072Y57679D01*
X116001Y57862D01*
X115889Y58186D01*
X115846Y58341D01*
X115818Y58482D01*
X115804Y58609D01*
X115790Y58708D01*
X115776Y58793D01*
Y58919D01*
X115790Y59159D01*
X115832Y59399D01*
X115874Y59610D01*
X115931Y59808D01*
X116001Y59963D01*
X116044Y60089D01*
X116086Y60174D01*
X116100Y60188D01*
Y60202D01*
X114437Y59906D01*
Y56368D01*
X112688D01*
Y61316D01*
X117778Y62274D01*
X117989Y60766D01*
X117862Y60639D01*
X117749Y60512D01*
X117651Y60385D01*
X117566Y60259D01*
X117439Y60019D01*
X117355Y59793D01*
X117312Y59596D01*
X117284Y59455D01*
X117270Y59399D01*
Y59314D01*
X117284Y59089D01*
X117340Y58877D01*
X117411Y58694D01*
X117495Y58539D01*
X117594Y58426D01*
X117665Y58327D01*
X117721Y58271D01*
X117735Y58257D01*
X117918Y58116D01*
X118130Y58017D01*
X118355Y57947D01*
X118581Y57904D01*
X118778Y57862D01*
X118933Y57848D01*
X119004D01*
X119046D01*
X119074D01*
X119088D01*
X119427Y57862D01*
X119723Y57904D01*
X119963Y57975D01*
X120160Y58045D01*
X120329Y58130D01*
X120442Y58186D01*
X120498Y58243D01*
X120526Y58257D01*
X120681Y58412D01*
X120808Y58581D01*
X120893Y58750D01*
X120949Y58905D01*
X120977Y59046D01*
X120992Y59159D01*
X121006Y59229D01*
Y59258D01*
X120992Y59441D01*
X120949Y59624D01*
X120893Y59779D01*
X120822Y59906D01*
X120752Y60019D01*
X120695Y60104D01*
X120653Y60160D01*
X120639Y60174D01*
X120484Y60301D01*
X120329Y60414D01*
X120160Y60498D01*
X120005Y60555D01*
X119864Y60597D01*
X119737Y60625D01*
X119667Y60639D01*
X119638D01*
X119836Y62500D01*
X120061Y62458D01*
D02*
G37*
G36*
X122317Y52026D02*
Y49897D01*
X112562Y46429D01*
Y48530D01*
X119779Y50912D01*
X112562Y53393D01*
Y55522D01*
X122317Y52026D01*
D02*
G37*
G36*
X147317Y64276D02*
X137562D01*
Y66250D01*
X147317D01*
Y64276D01*
D02*
G37*
G36*
X142933Y62782D02*
X143341Y62740D01*
X143722Y62684D01*
X144074Y62599D01*
X144399Y62500D01*
X144695Y62387D01*
X144977Y62275D01*
X145216Y62148D01*
X145442Y62035D01*
X145625Y61922D01*
X145794Y61810D01*
X145935Y61711D01*
X146034Y61626D01*
X146118Y61570D01*
X146161Y61528D01*
X146175Y61513D01*
X146414Y61260D01*
X146612Y60992D01*
X146795Y60724D01*
X146936Y60428D01*
X147063Y60146D01*
X147176Y59850D01*
X147260Y59582D01*
X147331Y59300D01*
X147387Y59046D01*
X147429Y58807D01*
X147458Y58595D01*
X147472Y58412D01*
X147486Y58271D01*
X147500Y58158D01*
Y58060D01*
X147486Y57665D01*
X147444Y57298D01*
X147373Y56946D01*
X147289Y56622D01*
X147190Y56312D01*
X147077Y56030D01*
X146964Y55776D01*
X146837Y55536D01*
X146711Y55339D01*
X146598Y55156D01*
X146485Y55001D01*
X146386Y54874D01*
X146302Y54761D01*
X146231Y54690D01*
X146189Y54648D01*
X146175Y54634D01*
X145907Y54408D01*
X145625Y54211D01*
X145329Y54028D01*
X145033Y53887D01*
X144723Y53760D01*
X144413Y53647D01*
X144103Y53563D01*
X143806Y53492D01*
X143539Y53450D01*
X143271Y53408D01*
X143045Y53379D01*
X142848Y53351D01*
X142679D01*
X142552Y53337D01*
X142481D01*
X142453D01*
X142016Y53351D01*
X141607Y53394D01*
X141227Y53450D01*
X140860Y53534D01*
X140536Y53633D01*
X140226Y53746D01*
X139944Y53859D01*
X139704Y53986D01*
X139479Y54113D01*
X139281Y54225D01*
X139112Y54338D01*
X138971Y54437D01*
X138873Y54507D01*
X138788Y54578D01*
X138746Y54620D01*
X138732Y54634D01*
X138492Y54888D01*
X138280Y55156D01*
X138097Y55438D01*
X137942Y55719D01*
X137815Y56016D01*
X137703Y56297D01*
X137618Y56579D01*
X137548Y56847D01*
X137491Y57101D01*
X137449Y57341D01*
X137421Y57552D01*
X137392Y57735D01*
Y57876D01*
X137378Y57989D01*
Y58088D01*
X137392Y58511D01*
X137435Y58920D01*
X137505Y59272D01*
X137576Y59582D01*
X137618Y59709D01*
X137646Y59836D01*
X137674Y59935D01*
X137717Y60019D01*
X137731Y60090D01*
X137759Y60146D01*
X137773Y60174D01*
Y60188D01*
X137886Y60442D01*
X138027Y60682D01*
X138182Y60893D01*
X138323Y61076D01*
X138450Y61231D01*
X138562Y61358D01*
X138633Y61429D01*
X138647Y61443D01*
X138661Y61457D01*
X138887Y61654D01*
X139126Y61838D01*
X139338Y61993D01*
X139549Y62120D01*
X139733Y62218D01*
X139874Y62303D01*
X139930Y62317D01*
X139972Y62345D01*
X139986Y62359D01*
X140000D01*
X140395Y62500D01*
X140818Y62613D01*
X141241Y62684D01*
X141636Y62740D01*
X141819Y62754D01*
X141988Y62768D01*
X142129Y62782D01*
X142256D01*
X142369Y62796D01*
X142439D01*
X142495D01*
X142510D01*
X142933Y62782D01*
D02*
G37*
G36*
X147317Y45894D02*
X145583D01*
Y49616D01*
X145400Y49503D01*
X145244Y49376D01*
X145174Y49320D01*
X145118Y49277D01*
X145089Y49249D01*
X145075Y49235D01*
X145019Y49179D01*
X144948Y49122D01*
X144793Y48953D01*
X144610Y48770D01*
X144427Y48587D01*
X144258Y48403D01*
X144117Y48248D01*
X144060Y48192D01*
X144018Y48149D01*
X144004Y48121D01*
X143990Y48107D01*
X143694Y47797D01*
X143454Y47543D01*
X143229Y47332D01*
X143059Y47163D01*
X142918Y47036D01*
X142820Y46951D01*
X142749Y46895D01*
X142735Y46881D01*
X142495Y46698D01*
X142270Y46542D01*
X142058Y46416D01*
X141875Y46317D01*
X141720Y46232D01*
X141593Y46176D01*
X141523Y46148D01*
X141495Y46134D01*
X141269Y46049D01*
X141044Y45993D01*
X140832Y45950D01*
X140635Y45922D01*
X140480Y45908D01*
X140353Y45894D01*
X140268D01*
X140240D01*
X140028Y45908D01*
X139817Y45936D01*
X139620Y45964D01*
X139436Y46021D01*
X139112Y46162D01*
X138830Y46303D01*
X138703Y46387D01*
X138605Y46458D01*
X138506Y46528D01*
X138436Y46599D01*
X138379Y46655D01*
X138323Y46683D01*
X138309Y46712D01*
X138295Y46726D01*
X138154Y46881D01*
X138027Y47064D01*
X137928Y47233D01*
X137844Y47431D01*
X137703Y47797D01*
X137604Y48164D01*
X137576Y48333D01*
X137548Y48488D01*
X137533Y48629D01*
X137519Y48756D01*
X137505Y48854D01*
Y48995D01*
X137519Y49235D01*
X137533Y49461D01*
X137604Y49897D01*
X137717Y50264D01*
X137773Y50433D01*
X137844Y50588D01*
X137900Y50729D01*
X137970Y50842D01*
X138027Y50955D01*
X138069Y51039D01*
X138125Y51110D01*
X138154Y51152D01*
X138168Y51180D01*
X138182Y51194D01*
X138323Y51350D01*
X138464Y51490D01*
X138633Y51617D01*
X138816Y51730D01*
X139183Y51899D01*
X139535Y52040D01*
X139718Y52083D01*
X139874Y52125D01*
X140014Y52167D01*
X140141Y52181D01*
X140254Y52209D01*
X140325D01*
X140381Y52224D01*
X140395D01*
X140578Y50363D01*
X140296Y50335D01*
X140057Y50278D01*
X139845Y50222D01*
X139690Y50151D01*
X139563Y50095D01*
X139479Y50038D01*
X139422Y49996D01*
X139408Y49982D01*
X139296Y49841D01*
X139211Y49686D01*
X139140Y49531D01*
X139098Y49376D01*
X139070Y49249D01*
X139056Y49136D01*
Y49038D01*
X139070Y48826D01*
X139112Y48643D01*
X139169Y48488D01*
X139225Y48347D01*
X139281Y48248D01*
X139338Y48164D01*
X139380Y48121D01*
X139394Y48107D01*
X139535Y47994D01*
X139690Y47910D01*
X139845Y47853D01*
X140000Y47811D01*
X140141Y47783D01*
X140268Y47769D01*
X140339D01*
X140353D01*
X140367D01*
X140578Y47783D01*
X140776Y47825D01*
X140973Y47896D01*
X141142Y47966D01*
X141297Y48037D01*
X141410Y48107D01*
X141481Y48149D01*
X141509Y48164D01*
X141593Y48220D01*
X141692Y48305D01*
X141819Y48417D01*
X141932Y48530D01*
X142199Y48784D01*
X142467Y49038D01*
X142721Y49291D01*
X142834Y49404D01*
X142918Y49517D01*
X143003Y49601D01*
X143059Y49658D01*
X143102Y49700D01*
X143116Y49714D01*
X143384Y49996D01*
X143637Y50250D01*
X143877Y50490D01*
X144088Y50701D01*
X144300Y50898D01*
X144497Y51068D01*
X144666Y51223D01*
X144836Y51350D01*
X144977Y51462D01*
X145103Y51561D01*
X145202Y51645D01*
X145301Y51702D01*
X145357Y51758D01*
X145414Y51786D01*
X145442Y51815D01*
X145456D01*
X145780Y51998D01*
X146118Y52139D01*
X146429Y52252D01*
X146711Y52336D01*
X146964Y52393D01*
X147063Y52407D01*
X147148Y52421D01*
X147218Y52435D01*
X147274Y52449D01*
X147303D01*
X147317D01*
Y45894D01*
D02*
G37*
G36*
X197317Y65526D02*
X187562D01*
Y67500D01*
X197317D01*
Y65526D01*
D02*
G37*
G36*
X192933Y64032D02*
X193341Y63990D01*
X193722Y63934D01*
X194074Y63849D01*
X194399Y63750D01*
X194695Y63637D01*
X194977Y63525D01*
X195216Y63398D01*
X195442Y63285D01*
X195625Y63172D01*
X195794Y63060D01*
X195935Y62961D01*
X196034Y62876D01*
X196119Y62820D01*
X196161Y62778D01*
X196175Y62763D01*
X196415Y62510D01*
X196612Y62242D01*
X196795Y61974D01*
X196936Y61678D01*
X197063Y61396D01*
X197176Y61100D01*
X197260Y60832D01*
X197331Y60550D01*
X197387Y60297D01*
X197430Y60057D01*
X197458Y59845D01*
X197472Y59662D01*
X197486Y59521D01*
X197500Y59408D01*
Y59310D01*
X197486Y58915D01*
X197444Y58548D01*
X197373Y58196D01*
X197289Y57872D01*
X197190Y57562D01*
X197077Y57280D01*
X196964Y57026D01*
X196838Y56786D01*
X196711Y56589D01*
X196598Y56406D01*
X196485Y56251D01*
X196386Y56124D01*
X196302Y56011D01*
X196231Y55940D01*
X196189Y55898D01*
X196175Y55884D01*
X195907Y55658D01*
X195625Y55461D01*
X195329Y55278D01*
X195033Y55137D01*
X194723Y55010D01*
X194413Y54897D01*
X194103Y54813D01*
X193807Y54742D01*
X193539Y54700D01*
X193271Y54658D01*
X193045Y54630D01*
X192848Y54601D01*
X192679D01*
X192552Y54587D01*
X192481D01*
X192453D01*
X192016Y54601D01*
X191607Y54644D01*
X191227Y54700D01*
X190860Y54784D01*
X190536Y54883D01*
X190226Y54996D01*
X189944Y55109D01*
X189704Y55236D01*
X189479Y55363D01*
X189282Y55475D01*
X189112Y55588D01*
X188971Y55687D01*
X188873Y55757D01*
X188788Y55828D01*
X188746Y55870D01*
X188732Y55884D01*
X188492Y56138D01*
X188281Y56406D01*
X188097Y56688D01*
X187942Y56970D01*
X187815Y57266D01*
X187703Y57547D01*
X187618Y57829D01*
X187547Y58097D01*
X187491Y58351D01*
X187449Y58591D01*
X187421Y58802D01*
X187393Y58985D01*
Y59126D01*
X187378Y59239D01*
Y59338D01*
X187393Y59761D01*
X187435Y60170D01*
X187505Y60522D01*
X187576Y60832D01*
X187618Y60959D01*
X187646Y61086D01*
X187674Y61185D01*
X187717Y61269D01*
X187731Y61340D01*
X187759Y61396D01*
X187773Y61424D01*
Y61438D01*
X187886Y61692D01*
X188027Y61932D01*
X188182Y62143D01*
X188323Y62326D01*
X188450Y62481D01*
X188563Y62608D01*
X188633Y62679D01*
X188647Y62693D01*
X188661Y62707D01*
X188887Y62904D01*
X189126Y63088D01*
X189338Y63243D01*
X189549Y63370D01*
X189733Y63468D01*
X189874Y63553D01*
X189930Y63567D01*
X189972Y63595D01*
X189986Y63609D01*
X190000D01*
X190395Y63750D01*
X190818Y63863D01*
X191241Y63934D01*
X191636Y63990D01*
X191819Y64004D01*
X191988Y64018D01*
X192129Y64032D01*
X192256D01*
X192369Y64046D01*
X192439D01*
X192496D01*
X192510D01*
X192933Y64032D01*
D02*
G37*
G36*
X195357Y49780D02*
X197317D01*
Y47976D01*
X195357D01*
Y46763D01*
X193722D01*
Y47976D01*
X187519D01*
Y49555D01*
X193736Y53784D01*
X195357D01*
Y49780D01*
D02*
G37*
G36*
X172317Y64276D02*
X162562D01*
Y66250D01*
X172317D01*
Y64276D01*
D02*
G37*
G36*
X167932Y62782D02*
X168341Y62740D01*
X168722Y62683D01*
X169074Y62599D01*
X169399Y62500D01*
X169695Y62387D01*
X169977Y62275D01*
X170216Y62148D01*
X170442Y62035D01*
X170625Y61922D01*
X170794Y61809D01*
X170935Y61711D01*
X171034Y61626D01*
X171119Y61570D01*
X171161Y61528D01*
X171175Y61513D01*
X171415Y61260D01*
X171612Y60992D01*
X171795Y60724D01*
X171936Y60428D01*
X172063Y60146D01*
X172176Y59850D01*
X172260Y59582D01*
X172331Y59300D01*
X172387Y59046D01*
X172430Y58807D01*
X172458Y58595D01*
X172472Y58412D01*
X172486Y58271D01*
X172500Y58158D01*
Y58060D01*
X172486Y57665D01*
X172444Y57298D01*
X172373Y56946D01*
X172288Y56622D01*
X172190Y56312D01*
X172077Y56030D01*
X171964Y55776D01*
X171837Y55536D01*
X171710Y55339D01*
X171598Y55156D01*
X171485Y55001D01*
X171386Y54874D01*
X171302Y54761D01*
X171231Y54690D01*
X171189Y54648D01*
X171175Y54634D01*
X170907Y54408D01*
X170625Y54211D01*
X170329Y54028D01*
X170033Y53887D01*
X169723Y53760D01*
X169413Y53647D01*
X169103Y53563D01*
X168806Y53492D01*
X168539Y53450D01*
X168271Y53408D01*
X168045Y53379D01*
X167848Y53351D01*
X167679D01*
X167552Y53337D01*
X167481D01*
X167453D01*
X167016Y53351D01*
X166607Y53394D01*
X166227Y53450D01*
X165860Y53534D01*
X165536Y53633D01*
X165226Y53746D01*
X164944Y53859D01*
X164704Y53986D01*
X164479Y54113D01*
X164281Y54225D01*
X164112Y54338D01*
X163971Y54437D01*
X163873Y54507D01*
X163788Y54578D01*
X163746Y54620D01*
X163732Y54634D01*
X163492Y54888D01*
X163281Y55156D01*
X163097Y55438D01*
X162942Y55719D01*
X162815Y56016D01*
X162703Y56297D01*
X162618Y56579D01*
X162547Y56847D01*
X162491Y57101D01*
X162449Y57341D01*
X162421Y57552D01*
X162392Y57735D01*
Y57876D01*
X162378Y57989D01*
Y58088D01*
X162392Y58511D01*
X162435Y58920D01*
X162505Y59272D01*
X162576Y59582D01*
X162618Y59709D01*
X162646Y59836D01*
X162674Y59935D01*
X162717Y60019D01*
X162731Y60090D01*
X162759Y60146D01*
X162773Y60174D01*
Y60188D01*
X162886Y60442D01*
X163027Y60682D01*
X163182Y60893D01*
X163323Y61076D01*
X163450Y61231D01*
X163563Y61358D01*
X163633Y61429D01*
X163647Y61443D01*
X163661Y61457D01*
X163887Y61654D01*
X164126Y61838D01*
X164338Y61993D01*
X164549Y62120D01*
X164732Y62218D01*
X164874Y62303D01*
X164930Y62317D01*
X164972Y62345D01*
X164986Y62359D01*
X165000D01*
X165395Y62500D01*
X165818Y62613D01*
X166241Y62683D01*
X166636Y62740D01*
X166819Y62754D01*
X166988Y62768D01*
X167129Y62782D01*
X167256D01*
X167369Y62796D01*
X167439D01*
X167495D01*
X167510D01*
X167932Y62782D01*
D02*
G37*
G36*
X169977Y52252D02*
X170188Y52195D01*
X170583Y52068D01*
X170921Y51913D01*
X171062Y51815D01*
X171203Y51730D01*
X171330Y51645D01*
X171429Y51561D01*
X171527Y51490D01*
X171598Y51420D01*
X171654Y51364D01*
X171696Y51321D01*
X171725Y51293D01*
X171739Y51279D01*
X171866Y51110D01*
X171992Y50926D01*
X172091Y50757D01*
X172176Y50560D01*
X172317Y50194D01*
X172401Y49855D01*
X172430Y49686D01*
X172458Y49545D01*
X172472Y49418D01*
X172486Y49305D01*
X172500Y49207D01*
Y49080D01*
X172486Y48826D01*
X172458Y48572D01*
X172415Y48347D01*
X172359Y48121D01*
X172288Y47924D01*
X172218Y47726D01*
X172133Y47543D01*
X172049Y47388D01*
X171964Y47247D01*
X171880Y47106D01*
X171809Y47008D01*
X171739Y46909D01*
X171682Y46838D01*
X171640Y46782D01*
X171612Y46754D01*
X171598Y46740D01*
X171429Y46571D01*
X171245Y46430D01*
X171062Y46303D01*
X170879Y46190D01*
X170681Y46105D01*
X170498Y46021D01*
X170160Y45908D01*
X170005Y45880D01*
X169850Y45852D01*
X169723Y45823D01*
X169610Y45809D01*
X169526Y45795D01*
X169455D01*
X169413D01*
X169399D01*
X169074Y45823D01*
X168792Y45880D01*
X168525Y45950D01*
X168313Y46049D01*
X168130Y46148D01*
X168003Y46218D01*
X167918Y46274D01*
X167890Y46303D01*
X167679Y46500D01*
X167495Y46726D01*
X167355Y46951D01*
X167242Y47163D01*
X167157Y47346D01*
X167115Y47501D01*
X167087Y47557D01*
Y47600D01*
X167073Y47628D01*
Y47642D01*
X166917Y47388D01*
X166763Y47177D01*
X166593Y46993D01*
X166424Y46824D01*
X166255Y46683D01*
X166086Y46571D01*
X165917Y46486D01*
X165762Y46401D01*
X165606Y46345D01*
X165466Y46303D01*
X165339Y46274D01*
X165226Y46260D01*
X165141Y46246D01*
X165071Y46232D01*
X165028D01*
X165014D01*
X164845Y46246D01*
X164690Y46260D01*
X164380Y46345D01*
X164098Y46444D01*
X163859Y46571D01*
X163661Y46697D01*
X163520Y46810D01*
X163464Y46852D01*
X163421Y46895D01*
X163407Y46909D01*
X163393Y46923D01*
X163238Y47078D01*
X163097Y47261D01*
X162985Y47431D01*
X162886Y47614D01*
X162787Y47811D01*
X162717Y47994D01*
X162618Y48347D01*
X162576Y48502D01*
X162547Y48657D01*
X162533Y48784D01*
X162519Y48911D01*
X162505Y49009D01*
Y49136D01*
X162519Y49432D01*
X162547Y49700D01*
X162604Y49954D01*
X162660Y50165D01*
X162717Y50335D01*
X162773Y50475D01*
X162801Y50560D01*
X162815Y50574D01*
Y50588D01*
X162942Y50814D01*
X163083Y51025D01*
X163224Y51194D01*
X163351Y51335D01*
X163478Y51448D01*
X163577Y51533D01*
X163633Y51589D01*
X163661Y51603D01*
X163873Y51730D01*
X164098Y51843D01*
X164338Y51927D01*
X164563Y52012D01*
X164775Y52068D01*
X164930Y52111D01*
X165000Y52125D01*
X165043D01*
X165071Y52139D01*
X165085D01*
X165367Y50419D01*
X165141Y50377D01*
X164944Y50320D01*
X164775Y50264D01*
X164648Y50194D01*
X164535Y50123D01*
X164451Y50067D01*
X164408Y50024D01*
X164394Y50010D01*
X164281Y49883D01*
X164197Y49742D01*
X164140Y49601D01*
X164098Y49475D01*
X164070Y49362D01*
X164056Y49277D01*
Y49193D01*
X164070Y49023D01*
X164098Y48854D01*
X164154Y48727D01*
X164197Y48615D01*
X164253Y48516D01*
X164310Y48460D01*
X164338Y48417D01*
X164352Y48403D01*
X164465Y48305D01*
X164606Y48234D01*
X164732Y48178D01*
X164859Y48149D01*
X164972Y48121D01*
X165057Y48107D01*
X165113D01*
X165141D01*
X165353Y48121D01*
X165536Y48163D01*
X165691Y48234D01*
X165818Y48305D01*
X165931Y48389D01*
X166001Y48446D01*
X166058Y48502D01*
X166072Y48516D01*
X166185Y48685D01*
X166269Y48868D01*
X166325Y49066D01*
X166368Y49249D01*
X166382Y49418D01*
X166396Y49559D01*
Y49686D01*
X167904Y49883D01*
X167862Y49700D01*
X167820Y49545D01*
X167792Y49390D01*
X167778Y49263D01*
X167763Y49164D01*
Y49023D01*
X167778Y48826D01*
X167834Y48657D01*
X167890Y48502D01*
X167975Y48361D01*
X168045Y48262D01*
X168116Y48178D01*
X168172Y48121D01*
X168186Y48107D01*
X168355Y47980D01*
X168539Y47882D01*
X168722Y47811D01*
X168905Y47755D01*
X169074Y47726D01*
X169201Y47712D01*
X169286D01*
X169300D01*
X169314D01*
X169582Y47726D01*
X169821Y47769D01*
X170033Y47839D01*
X170202Y47910D01*
X170329Y47994D01*
X170428Y48051D01*
X170498Y48107D01*
X170512Y48121D01*
X170653Y48276D01*
X170766Y48446D01*
X170837Y48601D01*
X170893Y48756D01*
X170921Y48897D01*
X170935Y48995D01*
X170949Y49066D01*
Y49094D01*
X170935Y49291D01*
X170893Y49461D01*
X170837Y49616D01*
X170766Y49756D01*
X170710Y49855D01*
X170653Y49940D01*
X170611Y49996D01*
X170597Y50010D01*
X170442Y50137D01*
X170273Y50250D01*
X170089Y50320D01*
X169920Y50391D01*
X169765Y50433D01*
X169638Y50461D01*
X169554Y50475D01*
X169540D01*
X169526D01*
X169751Y52280D01*
X169977Y52252D01*
D02*
G37*
G36*
X71067Y63026D02*
X61312D01*
Y65000D01*
X71067D01*
Y63026D01*
D02*
G37*
G36*
X66683Y61532D02*
X67091Y61490D01*
X67472Y61433D01*
X67824Y61349D01*
X68149Y61250D01*
X68445Y61137D01*
X68727Y61025D01*
X68966Y60898D01*
X69192Y60785D01*
X69375Y60672D01*
X69544Y60559D01*
X69685Y60461D01*
X69784Y60376D01*
X69868Y60320D01*
X69911Y60278D01*
X69925Y60263D01*
X70164Y60010D01*
X70362Y59742D01*
X70545Y59474D01*
X70686Y59178D01*
X70813Y58896D01*
X70926Y58600D01*
X71010Y58332D01*
X71081Y58050D01*
X71137Y57796D01*
X71179Y57557D01*
X71208Y57345D01*
X71222Y57162D01*
X71236Y57021D01*
X71250Y56908D01*
Y56810D01*
X71236Y56415D01*
X71194Y56048D01*
X71123Y55696D01*
X71038Y55372D01*
X70940Y55062D01*
X70827Y54780D01*
X70714Y54526D01*
X70587Y54286D01*
X70461Y54089D01*
X70348Y53906D01*
X70235Y53751D01*
X70136Y53624D01*
X70052Y53511D01*
X69981Y53440D01*
X69939Y53398D01*
X69925Y53384D01*
X69657Y53158D01*
X69375Y52961D01*
X69079Y52778D01*
X68783Y52637D01*
X68473Y52510D01*
X68163Y52397D01*
X67853Y52313D01*
X67557Y52242D01*
X67289Y52200D01*
X67021Y52158D01*
X66795Y52129D01*
X66598Y52101D01*
X66429D01*
X66302Y52087D01*
X66231D01*
X66203D01*
X65766Y52101D01*
X65357Y52144D01*
X64977Y52200D01*
X64610Y52284D01*
X64286Y52383D01*
X63976Y52496D01*
X63694Y52609D01*
X63454Y52736D01*
X63229Y52863D01*
X63031Y52975D01*
X62862Y53088D01*
X62721Y53187D01*
X62623Y53257D01*
X62538Y53328D01*
X62496Y53370D01*
X62482Y53384D01*
X62242Y53638D01*
X62031Y53906D01*
X61847Y54188D01*
X61692Y54469D01*
X61565Y54766D01*
X61453Y55047D01*
X61368Y55329D01*
X61297Y55597D01*
X61241Y55851D01*
X61199Y56091D01*
X61171Y56302D01*
X61142Y56485D01*
Y56626D01*
X61128Y56739D01*
Y56838D01*
X61142Y57261D01*
X61185Y57670D01*
X61255Y58022D01*
X61326Y58332D01*
X61368Y58459D01*
X61396Y58586D01*
X61424Y58685D01*
X61467Y58769D01*
X61481Y58840D01*
X61509Y58896D01*
X61523Y58924D01*
Y58938D01*
X61636Y59192D01*
X61777Y59432D01*
X61932Y59643D01*
X62073Y59826D01*
X62200Y59981D01*
X62312Y60108D01*
X62383Y60179D01*
X62397Y60193D01*
X62411Y60207D01*
X62637Y60404D01*
X62876Y60588D01*
X63088Y60743D01*
X63299Y60870D01*
X63482Y60968D01*
X63623Y61053D01*
X63680Y61067D01*
X63722Y61095D01*
X63736Y61109D01*
X63750D01*
X64145Y61250D01*
X64568Y61363D01*
X64991Y61433D01*
X65386Y61490D01*
X65569Y61504D01*
X65738Y61518D01*
X65879Y61532D01*
X66006D01*
X66119Y61546D01*
X66189D01*
X66245D01*
X66260D01*
X66683Y61532D01*
D02*
G37*
G36*
X66753Y50945D02*
X67218Y50917D01*
X67655Y50875D01*
X68050Y50818D01*
X68402Y50762D01*
X68727Y50691D01*
X69008Y50607D01*
X69262Y50522D01*
X69474Y50452D01*
X69671Y50367D01*
X69826Y50297D01*
X69953Y50226D01*
X70038Y50184D01*
X70108Y50142D01*
X70150Y50114D01*
X70164Y50099D01*
X70362Y49930D01*
X70517Y49747D01*
X70672Y49564D01*
X70785Y49366D01*
X70897Y49183D01*
X70982Y48986D01*
X71053Y48802D01*
X71109Y48619D01*
X71165Y48450D01*
X71194Y48295D01*
X71222Y48154D01*
X71236Y48041D01*
Y47943D01*
X71250Y47858D01*
Y47802D01*
X71236Y47548D01*
X71208Y47308D01*
X71151Y47069D01*
X71095Y46857D01*
X71024Y46660D01*
X70940Y46476D01*
X70841Y46321D01*
X70743Y46166D01*
X70658Y46040D01*
X70559Y45913D01*
X70475Y45814D01*
X70404Y45729D01*
X70348Y45673D01*
X70291Y45631D01*
X70263Y45602D01*
X70249Y45588D01*
X70009Y45419D01*
X69728Y45278D01*
X69432Y45137D01*
X69107Y45039D01*
X68783Y44940D01*
X68459Y44869D01*
X68120Y44799D01*
X67796Y44743D01*
X67486Y44714D01*
X67204Y44686D01*
X66936Y44658D01*
X66711Y44644D01*
X66528Y44630D01*
X66386D01*
X66330D01*
X66288D01*
X66274D01*
X66260D01*
X65752Y44644D01*
X65287Y44672D01*
X64864Y44714D01*
X64469Y44785D01*
X64103Y44855D01*
X63779Y44926D01*
X63482Y45024D01*
X63229Y45109D01*
X62989Y45194D01*
X62806Y45278D01*
X62637Y45363D01*
X62496Y45433D01*
X62397Y45504D01*
X62327Y45546D01*
X62284Y45574D01*
X62270Y45588D01*
X62087Y45743D01*
X61932Y45913D01*
X61805Y46096D01*
X61678Y46279D01*
X61579Y46462D01*
X61509Y46646D01*
X61438Y46815D01*
X61382Y46998D01*
X61340Y47167D01*
X61312Y47308D01*
X61283Y47449D01*
X61269Y47562D01*
X61255Y47661D01*
Y47802D01*
X61269Y48055D01*
X61297Y48295D01*
X61354Y48535D01*
X61410Y48746D01*
X61495Y48944D01*
X61579Y49127D01*
X61664Y49282D01*
X61763Y49437D01*
X61861Y49564D01*
X61946Y49691D01*
X62031Y49789D01*
X62115Y49860D01*
X62172Y49930D01*
X62228Y49973D01*
X62256Y50001D01*
X62270Y50015D01*
X62510Y50184D01*
X62792Y50325D01*
X63088Y50452D01*
X63398Y50565D01*
X63722Y50649D01*
X64061Y50734D01*
X64385Y50790D01*
X64709Y50847D01*
X65019Y50875D01*
X65301Y50903D01*
X65569Y50931D01*
X65794Y50945D01*
X65978Y50959D01*
X66119D01*
X66175D01*
X66217D01*
X66231D01*
X66245D01*
X66753Y50945D01*
D02*
G37*
G36*
X96067Y63026D02*
X86312D01*
Y65000D01*
X96067D01*
Y63026D01*
D02*
G37*
G36*
X91683Y61532D02*
X92091Y61490D01*
X92472Y61433D01*
X92824Y61349D01*
X93149Y61250D01*
X93445Y61137D01*
X93727Y61025D01*
X93966Y60898D01*
X94192Y60785D01*
X94375Y60672D01*
X94544Y60559D01*
X94685Y60461D01*
X94784Y60376D01*
X94868Y60320D01*
X94911Y60278D01*
X94925Y60263D01*
X95164Y60010D01*
X95362Y59742D01*
X95545Y59474D01*
X95686Y59178D01*
X95813Y58896D01*
X95926Y58600D01*
X96010Y58332D01*
X96081Y58050D01*
X96137Y57796D01*
X96180Y57557D01*
X96208Y57345D01*
X96222Y57162D01*
X96236Y57021D01*
X96250Y56908D01*
Y56810D01*
X96236Y56415D01*
X96194Y56048D01*
X96123Y55696D01*
X96039Y55372D01*
X95940Y55062D01*
X95827Y54780D01*
X95714Y54526D01*
X95587Y54286D01*
X95461Y54089D01*
X95348Y53906D01*
X95235Y53751D01*
X95136Y53624D01*
X95052Y53511D01*
X94981Y53440D01*
X94939Y53398D01*
X94925Y53384D01*
X94657Y53158D01*
X94375Y52961D01*
X94079Y52778D01*
X93783Y52637D01*
X93473Y52510D01*
X93163Y52397D01*
X92853Y52313D01*
X92557Y52242D01*
X92289Y52200D01*
X92021Y52158D01*
X91795Y52129D01*
X91598Y52101D01*
X91429D01*
X91302Y52087D01*
X91231D01*
X91203D01*
X90766Y52101D01*
X90357Y52144D01*
X89977Y52200D01*
X89610Y52284D01*
X89286Y52383D01*
X88976Y52496D01*
X88694Y52609D01*
X88454Y52736D01*
X88229Y52863D01*
X88031Y52975D01*
X87862Y53088D01*
X87721Y53187D01*
X87623Y53257D01*
X87538Y53328D01*
X87496Y53370D01*
X87482Y53384D01*
X87242Y53638D01*
X87030Y53906D01*
X86847Y54188D01*
X86692Y54469D01*
X86565Y54766D01*
X86453Y55047D01*
X86368Y55329D01*
X86298Y55597D01*
X86241Y55851D01*
X86199Y56091D01*
X86171Y56302D01*
X86142Y56485D01*
Y56626D01*
X86128Y56739D01*
Y56838D01*
X86142Y57261D01*
X86185Y57670D01*
X86255Y58022D01*
X86326Y58332D01*
X86368Y58459D01*
X86396Y58586D01*
X86424Y58685D01*
X86467Y58769D01*
X86481Y58840D01*
X86509Y58896D01*
X86523Y58924D01*
Y58938D01*
X86636Y59192D01*
X86777Y59432D01*
X86932Y59643D01*
X87073Y59826D01*
X87200Y59981D01*
X87312Y60108D01*
X87383Y60179D01*
X87397Y60193D01*
X87411Y60207D01*
X87637Y60404D01*
X87876Y60588D01*
X88088Y60743D01*
X88299Y60870D01*
X88483Y60968D01*
X88624Y61053D01*
X88680Y61067D01*
X88722Y61095D01*
X88736Y61109D01*
X88750D01*
X89145Y61250D01*
X89568Y61363D01*
X89991Y61433D01*
X90386Y61490D01*
X90569Y61504D01*
X90738Y61518D01*
X90879Y61532D01*
X91006D01*
X91119Y61546D01*
X91189D01*
X91245D01*
X91260D01*
X91683Y61532D01*
D02*
G37*
G36*
X90217Y49959D02*
X90005Y49507D01*
X89892Y49296D01*
X89765Y49099D01*
X89653Y48915D01*
X89540Y48746D01*
X89427Y48591D01*
X89328Y48450D01*
X89244Y48337D01*
X89159Y48239D01*
X89089Y48154D01*
X89046Y48098D01*
X89018Y48070D01*
X89004Y48055D01*
X96067D01*
Y46181D01*
X86255D01*
Y47703D01*
X86579Y47844D01*
X86875Y48027D01*
X87157Y48225D01*
X87383Y48422D01*
X87566Y48591D01*
X87707Y48746D01*
X87764Y48802D01*
X87806Y48845D01*
X87820Y48873D01*
X87834Y48887D01*
X88060Y49197D01*
X88257Y49493D01*
X88412Y49761D01*
X88525Y50001D01*
X88609Y50198D01*
X88680Y50339D01*
X88694Y50395D01*
X88708Y50438D01*
X88722Y50452D01*
Y50466D01*
X90414D01*
X90217Y49959D01*
D02*
G37*
G36*
X46067Y66776D02*
X41993D01*
Y66142D01*
X42007Y65945D01*
X42021Y65775D01*
X42049Y65635D01*
X42063Y65522D01*
X42091Y65451D01*
X42105Y65409D01*
Y65395D01*
X42162Y65282D01*
X42218Y65169D01*
X42289Y65071D01*
X42345Y64972D01*
X42416Y64901D01*
X42472Y64845D01*
X42500Y64817D01*
X42514Y64803D01*
X42585Y64746D01*
X42655Y64676D01*
X42867Y64521D01*
X43092Y64352D01*
X43346Y64169D01*
X43572Y64013D01*
X43684Y63943D01*
X43769Y63886D01*
X43839Y63830D01*
X43896Y63788D01*
X43938Y63774D01*
X43952Y63760D01*
X46067Y62350D01*
Y59982D01*
X44164Y61180D01*
X43966Y61307D01*
X43769Y61434D01*
X43600Y61546D01*
X43445Y61659D01*
X43304Y61758D01*
X43163Y61842D01*
X42951Y62012D01*
X42782Y62139D01*
X42669Y62223D01*
X42599Y62294D01*
X42585Y62308D01*
X42416Y62463D01*
X42260Y62646D01*
X42134Y62815D01*
X42007Y62984D01*
X41908Y63125D01*
X41838Y63238D01*
X41781Y63323D01*
X41767Y63337D01*
Y63351D01*
X41725Y63111D01*
X41669Y62900D01*
X41612Y62702D01*
X41542Y62505D01*
X41471Y62336D01*
X41401Y62181D01*
X41330Y62026D01*
X41246Y61899D01*
X41175Y61786D01*
X41105Y61687D01*
X41034Y61603D01*
X40978Y61546D01*
X40935Y61490D01*
X40893Y61448D01*
X40879Y61434D01*
X40865Y61420D01*
X40724Y61307D01*
X40583Y61208D01*
X40273Y61039D01*
X39977Y60926D01*
X39681Y60856D01*
X39427Y60799D01*
X39328Y60785D01*
X39230D01*
X39159Y60771D01*
X39089D01*
X39060D01*
X39046D01*
X38736Y60785D01*
X38440Y60842D01*
X38187Y60912D01*
X37961Y60983D01*
X37778Y61067D01*
X37637Y61138D01*
X37594Y61166D01*
X37552Y61194D01*
X37538Y61208D01*
X37524D01*
X37284Y61377D01*
X37087Y61561D01*
X36932Y61744D01*
X36791Y61927D01*
X36706Y62096D01*
X36636Y62223D01*
X36594Y62308D01*
X36579Y62322D01*
Y62336D01*
X36537Y62477D01*
X36495Y62632D01*
X36424Y62984D01*
X36382Y63365D01*
X36340Y63731D01*
Y63915D01*
X36326Y64070D01*
Y64225D01*
X36312Y64352D01*
Y68750D01*
X46067D01*
Y66776D01*
D02*
G37*
G36*
X43191Y59390D02*
X43473Y59333D01*
X43741Y59249D01*
X43980Y59178D01*
X44206Y59079D01*
X44417Y58981D01*
X44601Y58882D01*
X44770Y58783D01*
X44911Y58685D01*
X45038Y58586D01*
X45150Y58502D01*
X45249Y58417D01*
X45320Y58361D01*
X45362Y58304D01*
X45390Y58276D01*
X45404Y58262D01*
X45559Y58064D01*
X45686Y57853D01*
X45799Y57628D01*
X45898Y57388D01*
X45968Y57162D01*
X46038Y56923D01*
X46137Y56457D01*
X46179Y56246D01*
X46208Y56049D01*
X46222Y55879D01*
X46236Y55724D01*
X46250Y55598D01*
Y55414D01*
X46236Y54963D01*
X46194Y54554D01*
X46137Y54188D01*
X46109Y54033D01*
X46067Y53878D01*
X46038Y53751D01*
X46010Y53638D01*
X45982Y53539D01*
X45954Y53455D01*
X45926Y53384D01*
X45912Y53342D01*
X45898Y53314D01*
Y53300D01*
X45743Y52990D01*
X45573Y52736D01*
X45404Y52496D01*
X45221Y52313D01*
X45066Y52172D01*
X44925Y52059D01*
X44840Y52003D01*
X44826Y51975D01*
X44812D01*
X44530Y51820D01*
X44262Y51693D01*
X43994Y51608D01*
X43741Y51552D01*
X43543Y51523D01*
X43445Y51509D01*
X43374Y51495D01*
X43318D01*
X43275D01*
X43247D01*
X43233D01*
X42895Y51509D01*
X42599Y51552D01*
X42331Y51622D01*
X42105Y51693D01*
X41922Y51763D01*
X41795Y51834D01*
X41711Y51876D01*
X41683Y51890D01*
X41457Y52045D01*
X41260Y52228D01*
X41090Y52412D01*
X40950Y52581D01*
X40837Y52736D01*
X40752Y52863D01*
X40696Y52947D01*
X40682Y52961D01*
Y52976D01*
X40611Y53116D01*
X40541Y53257D01*
X40414Y53596D01*
X40301Y53948D01*
X40188Y54286D01*
X40146Y54441D01*
X40104Y54597D01*
X40061Y54738D01*
X40033Y54850D01*
X40005Y54949D01*
X39991Y55019D01*
X39977Y55076D01*
Y55090D01*
X39906Y55344D01*
X39850Y55569D01*
X39794Y55781D01*
X39737Y55978D01*
X39681Y56133D01*
X39624Y56288D01*
X39568Y56415D01*
X39526Y56528D01*
X39483Y56627D01*
X39441Y56697D01*
X39413Y56768D01*
X39385Y56810D01*
X39343Y56880D01*
X39328Y56894D01*
X39230Y56993D01*
X39131Y57064D01*
X39032Y57106D01*
X38934Y57134D01*
X38863Y57162D01*
X38793Y57176D01*
X38750D01*
X38736D01*
X38595Y57162D01*
X38482Y57134D01*
X38370Y57078D01*
X38285Y57021D01*
X38215Y56965D01*
X38172Y56908D01*
X38144Y56880D01*
X38130Y56866D01*
X38003Y56669D01*
X37919Y56457D01*
X37848Y56232D01*
X37806Y56020D01*
X37778Y55837D01*
X37764Y55682D01*
Y55541D01*
X37778Y55245D01*
X37820Y54991D01*
X37876Y54780D01*
X37933Y54611D01*
X37989Y54470D01*
X38045Y54371D01*
X38088Y54315D01*
X38102Y54301D01*
X38243Y54160D01*
X38412Y54033D01*
X38581Y53934D01*
X38765Y53864D01*
X38920Y53807D01*
X39046Y53779D01*
X39145Y53751D01*
X39159D01*
X39173D01*
X39103Y51777D01*
X38849Y51791D01*
X38623Y51834D01*
X38398Y51890D01*
X38201Y51961D01*
X38003Y52031D01*
X37820Y52116D01*
X37665Y52200D01*
X37510Y52285D01*
X37383Y52383D01*
X37270Y52468D01*
X37171Y52552D01*
X37087Y52623D01*
X37031Y52679D01*
X36988Y52722D01*
X36960Y52750D01*
X36946Y52764D01*
X36805Y52947D01*
X36678Y53145D01*
X36565Y53356D01*
X36467Y53582D01*
X36396Y53807D01*
X36326Y54033D01*
X36227Y54484D01*
X36199Y54695D01*
X36171Y54879D01*
X36156Y55062D01*
X36142Y55217D01*
X36128Y55344D01*
Y55513D01*
X36142Y55922D01*
X36185Y56288D01*
X36241Y56613D01*
X36298Y56894D01*
X36340Y57021D01*
X36368Y57134D01*
X36396Y57219D01*
X36424Y57303D01*
X36453Y57360D01*
X36467Y57402D01*
X36481Y57430D01*
Y57444D01*
X36622Y57726D01*
X36777Y57966D01*
X36946Y58177D01*
X37101Y58346D01*
X37242Y58487D01*
X37355Y58572D01*
X37439Y58643D01*
X37453Y58657D01*
X37468D01*
X37707Y58797D01*
X37961Y58896D01*
X38201Y58967D01*
X38412Y59009D01*
X38595Y59037D01*
X38736Y59065D01*
X38793D01*
X38835D01*
X38849D01*
X38863D01*
X39075Y59051D01*
X39286Y59023D01*
X39469Y58981D01*
X39653Y58924D01*
X39991Y58783D01*
X40287Y58614D01*
X40414Y58544D01*
X40512Y58459D01*
X40611Y58389D01*
X40696Y58318D01*
X40752Y58262D01*
X40795Y58219D01*
X40823Y58191D01*
X40837Y58177D01*
X40935Y58050D01*
X41034Y57895D01*
X41133Y57740D01*
X41217Y57557D01*
X41386Y57205D01*
X41528Y56838D01*
X41584Y56655D01*
X41640Y56500D01*
X41683Y56345D01*
X41725Y56218D01*
X41753Y56119D01*
X41781Y56034D01*
X41795Y55978D01*
Y55964D01*
X41852Y55739D01*
X41908Y55541D01*
X41950Y55358D01*
X41993Y55189D01*
X42035Y55048D01*
X42063Y54921D01*
X42105Y54808D01*
X42134Y54709D01*
X42148Y54625D01*
X42176Y54554D01*
X42204Y54456D01*
X42232Y54399D01*
Y54385D01*
X42303Y54202D01*
X42373Y54061D01*
X42444Y53934D01*
X42514Y53835D01*
X42571Y53765D01*
X42613Y53723D01*
X42641Y53694D01*
X42655Y53680D01*
X42754Y53610D01*
X42853Y53553D01*
X42951Y53525D01*
X43036Y53497D01*
X43120Y53483D01*
X43191Y53469D01*
X43233D01*
X43247D01*
X43445Y53483D01*
X43614Y53539D01*
X43783Y53624D01*
X43924Y53709D01*
X44037Y53807D01*
X44121Y53878D01*
X44178Y53934D01*
X44192Y53962D01*
X44319Y54160D01*
X44417Y54385D01*
X44488Y54625D01*
X44530Y54850D01*
X44558Y55062D01*
X44587Y55231D01*
Y55386D01*
X44573Y55710D01*
X44516Y55992D01*
X44446Y56232D01*
X44361Y56443D01*
X44276Y56613D01*
X44206Y56725D01*
X44149Y56796D01*
X44135Y56824D01*
X43938Y57007D01*
X43727Y57148D01*
X43487Y57275D01*
X43247Y57360D01*
X43036Y57430D01*
X42867Y57487D01*
X42810Y57501D01*
X42754D01*
X42726Y57515D01*
X42712D01*
X42895Y59432D01*
X43191Y59390D01*
D02*
G37*
G36*
X37961Y47619D02*
X46067D01*
Y45645D01*
X37961D01*
Y42769D01*
X36312D01*
Y50508D01*
X37961D01*
Y47619D01*
D02*
G37*
G36*
X16682Y71222D02*
X17162Y71165D01*
X17599Y71067D01*
X17810Y71024D01*
X17994Y70968D01*
X18163Y70912D01*
X18318Y70869D01*
X18445Y70813D01*
X18557Y70771D01*
X18642Y70743D01*
X18713Y70714D01*
X18755Y70686D01*
X18769D01*
X19192Y70447D01*
X19558Y70179D01*
X19883Y69897D01*
X20136Y69615D01*
X20249Y69488D01*
X20348Y69361D01*
X20432Y69262D01*
X20489Y69164D01*
X20545Y69093D01*
X20587Y69023D01*
X20601Y68994D01*
X20616Y68980D01*
X20728Y68755D01*
X20827Y68543D01*
X20982Y68078D01*
X21095Y67627D01*
X21165Y67218D01*
X21194Y67021D01*
X21222Y66852D01*
X21236Y66697D01*
Y66556D01*
X21250Y66457D01*
Y66302D01*
X21236Y65851D01*
X21179Y65428D01*
X21109Y65019D01*
X21024Y64667D01*
X20982Y64512D01*
X20940Y64371D01*
X20898Y64244D01*
X20869Y64131D01*
X20841Y64046D01*
X20813Y63990D01*
X20799Y63948D01*
Y63934D01*
X20630Y63511D01*
X20446Y63158D01*
X20263Y62848D01*
X20108Y62580D01*
X19967Y62383D01*
X19911Y62312D01*
X19854Y62242D01*
X19812Y62200D01*
X19784Y62157D01*
X19756Y62129D01*
X15837D01*
Y66372D01*
X17486D01*
Y64117D01*
X18741D01*
X18868Y64286D01*
X18980Y64469D01*
X19079Y64653D01*
X19164Y64822D01*
X19234Y64963D01*
X19290Y65090D01*
X19319Y65160D01*
X19333Y65174D01*
Y65188D01*
X19417Y65414D01*
X19474Y65639D01*
X19516Y65851D01*
X19544Y66034D01*
X19558Y66203D01*
X19572Y66316D01*
Y66429D01*
X19558Y66654D01*
X19530Y66880D01*
X19488Y67077D01*
X19431Y67275D01*
X19290Y67627D01*
X19220Y67768D01*
X19135Y67909D01*
X19051Y68036D01*
X18980Y68149D01*
X18896Y68233D01*
X18839Y68318D01*
X18783Y68374D01*
X18741Y68417D01*
X18713Y68445D01*
X18698Y68459D01*
X18529Y68586D01*
X18332Y68713D01*
X18134Y68811D01*
X17923Y68896D01*
X17486Y69037D01*
X17063Y69121D01*
X16866Y69149D01*
X16668Y69178D01*
X16513Y69192D01*
X16358Y69206D01*
X16245Y69220D01*
X16147D01*
X16090D01*
X16076D01*
X15780Y69206D01*
X15512Y69192D01*
X15245Y69149D01*
X15005Y69107D01*
X14793Y69051D01*
X14596Y68980D01*
X14413Y68910D01*
X14244Y68839D01*
X14103Y68783D01*
X13976Y68713D01*
X13877Y68642D01*
X13793Y68586D01*
X13722Y68543D01*
X13680Y68501D01*
X13652Y68487D01*
X13638Y68473D01*
X13497Y68318D01*
X13356Y68163D01*
X13257Y67994D01*
X13158Y67824D01*
X13074Y67655D01*
X13003Y67486D01*
X12904Y67162D01*
X12876Y67007D01*
X12848Y66866D01*
X12834Y66739D01*
X12820Y66626D01*
X12806Y66542D01*
Y66415D01*
X12820Y66105D01*
X12876Y65837D01*
X12933Y65597D01*
X13017Y65386D01*
X13088Y65231D01*
X13158Y65104D01*
X13215Y65033D01*
X13229Y65005D01*
X13398Y64808D01*
X13581Y64639D01*
X13764Y64497D01*
X13948Y64399D01*
X14117Y64314D01*
X14244Y64258D01*
X14328Y64230D01*
X14342Y64216D01*
X14356D01*
X13990Y62256D01*
X13750Y62312D01*
X13511Y62397D01*
X13299Y62482D01*
X13102Y62594D01*
X12904Y62693D01*
X12735Y62806D01*
X12580Y62919D01*
X12439Y63031D01*
X12312Y63144D01*
X12200Y63243D01*
X12101Y63327D01*
X12031Y63412D01*
X11974Y63483D01*
X11918Y63539D01*
X11904Y63567D01*
X11889Y63581D01*
X11749Y63779D01*
X11636Y63990D01*
X11537Y64216D01*
X11452Y64455D01*
X11312Y64920D01*
X11227Y65371D01*
X11185Y65583D01*
X11171Y65780D01*
X11157Y65964D01*
X11142Y66119D01*
X11128Y66246D01*
Y66415D01*
X11142Y66922D01*
X11199Y67373D01*
X11241Y67571D01*
X11283Y67768D01*
X11326Y67951D01*
X11368Y68106D01*
X11424Y68247D01*
X11467Y68388D01*
X11509Y68487D01*
X11537Y68586D01*
X11579Y68656D01*
X11594Y68713D01*
X11622Y68741D01*
Y68755D01*
X11875Y69192D01*
X12031Y69375D01*
X12171Y69558D01*
X12327Y69728D01*
X12482Y69883D01*
X12637Y70024D01*
X12778Y70150D01*
X12919Y70249D01*
X13046Y70348D01*
X13158Y70432D01*
X13257Y70503D01*
X13341Y70545D01*
X13398Y70587D01*
X13440Y70602D01*
X13454Y70616D01*
X13680Y70728D01*
X13905Y70827D01*
X14371Y70982D01*
X14836Y71095D01*
X15245Y71165D01*
X15442Y71194D01*
X15611Y71222D01*
X15766Y71236D01*
X15907D01*
X16006Y71250D01*
X16090D01*
X16147D01*
X16161D01*
X16682Y71222D01*
D02*
G37*
G36*
X21067Y58478D02*
X14639D01*
X21067Y54517D01*
Y52543D01*
X11312D01*
Y54362D01*
X17881D01*
X11312Y58394D01*
Y60297D01*
X21067D01*
Y58478D01*
D02*
G37*
G36*
Y46764D02*
X21053Y46383D01*
X21038Y46031D01*
X21010Y45734D01*
X20968Y45495D01*
X20926Y45297D01*
X20898Y45142D01*
X20883Y45100D01*
Y45058D01*
X20869Y45044D01*
Y45030D01*
X20756Y44719D01*
X20630Y44437D01*
X20503Y44212D01*
X20376Y44015D01*
X20263Y43860D01*
X20179Y43747D01*
X20122Y43676D01*
X20094Y43648D01*
X19826Y43408D01*
X19544Y43197D01*
X19248Y43014D01*
X18980Y42873D01*
X18727Y42760D01*
X18628Y42704D01*
X18543Y42675D01*
X18459Y42647D01*
X18402Y42619D01*
X18374Y42605D01*
X18360D01*
X18022Y42506D01*
X17669Y42422D01*
X17331Y42365D01*
X17007Y42337D01*
X16852Y42323D01*
X16711Y42309D01*
X16598D01*
X16485Y42295D01*
X16401D01*
X16344D01*
X16302D01*
X16288D01*
X15794Y42309D01*
X15357Y42351D01*
X15146Y42365D01*
X14963Y42393D01*
X14779Y42422D01*
X14624Y42450D01*
X14483Y42492D01*
X14356Y42520D01*
X14244Y42548D01*
X14159Y42563D01*
X14089Y42591D01*
X14032Y42605D01*
X14004Y42619D01*
X13990D01*
X13652Y42746D01*
X13341Y42901D01*
X13074Y43056D01*
X12848Y43211D01*
X12665Y43338D01*
X12524Y43451D01*
X12439Y43521D01*
X12411Y43535D01*
Y43549D01*
X12186Y43789D01*
X12002Y44029D01*
X11847Y44282D01*
X11720Y44508D01*
X11622Y44705D01*
X11551Y44875D01*
X11537Y44931D01*
X11523Y44973D01*
X11509Y45001D01*
Y45016D01*
X11438Y45283D01*
X11396Y45579D01*
X11354Y45890D01*
X11340Y46185D01*
X11326Y46453D01*
X11312Y46566D01*
Y50457D01*
X21067D01*
Y46764D01*
D02*
G37*
%LPC*%
G36*
X181575Y162687D02*
X170018D01*
Y151302D01*
X170190D01*
Y151130D01*
X181575D01*
Y156477D01*
Y156650D01*
Y162687D01*
D02*
G37*
%LPD*%
G36*
X179333Y153545D02*
X172432D01*
Y155442D01*
Y155615D01*
Y160445D01*
X179333D01*
Y153545D01*
D02*
G37*
%LPC*%
G36*
X121027Y162687D02*
X109470D01*
Y151130D01*
X120855D01*
Y151302D01*
X121027D01*
Y162687D01*
D02*
G37*
%LPD*%
G36*
X118612Y153545D02*
X111713D01*
Y159237D01*
Y159410D01*
Y160445D01*
X118612D01*
Y153545D01*
D02*
G37*
%LPC*%
G36*
X153630Y151130D02*
X151388D01*
Y148715D01*
X153630D01*
Y151130D01*
D02*
G37*
G36*
X123270Y144230D02*
X121027D01*
Y141815D01*
X123442D01*
Y144058D01*
X123270D01*
Y144230D01*
D02*
G37*
G36*
X135000Y139400D02*
X132758D01*
Y137157D01*
X135000D01*
Y139400D01*
D02*
G37*
G36*
X162945Y109213D02*
X160702D01*
Y104382D01*
X162945D01*
Y104555D01*
X163118D01*
Y109040D01*
X162945D01*
Y109213D01*
D02*
G37*
G36*
X172432Y106798D02*
X165360D01*
Y99725D01*
X172260D01*
Y99897D01*
X172432D01*
Y106798D01*
D02*
G37*
G36*
X170018Y97483D02*
X165360D01*
Y96275D01*
Y96103D01*
Y95068D01*
X170018D01*
Y97483D01*
D02*
G37*
%LPD*%
G36*
Y102140D02*
X167775D01*
Y104382D01*
X170018D01*
Y102140D01*
D02*
G37*
%LPC*%
G36*
X120855D02*
X109470D01*
Y90583D01*
X121027D01*
Y101967D01*
X120855D01*
Y102140D01*
D02*
G37*
%LPD*%
G36*
X118612Y92825D02*
X111713D01*
Y99725D01*
X118612D01*
Y92825D01*
D02*
G37*
%LPC*%
G36*
X40738Y137097D02*
X37961D01*
Y135631D01*
X37975Y135490D01*
Y135364D01*
X37989Y135237D01*
Y135053D01*
X38003Y134912D01*
X38017Y134814D01*
X38031Y134757D01*
Y134743D01*
X38074Y134574D01*
X38130Y134419D01*
X38201Y134278D01*
X38285Y134165D01*
X38356Y134081D01*
X38412Y134010D01*
X38454Y133968D01*
X38468Y133954D01*
X38609Y133841D01*
X38750Y133771D01*
X38905Y133714D01*
X39046Y133672D01*
X39173Y133644D01*
X39272Y133630D01*
X39328D01*
X39357D01*
X39512Y133644D01*
X39653Y133658D01*
X39780Y133700D01*
X39892Y133742D01*
X39991Y133785D01*
X40061Y133813D01*
X40104Y133841D01*
X40118Y133855D01*
X40231Y133940D01*
X40329Y134052D01*
X40414Y134151D01*
X40484Y134250D01*
X40527Y134334D01*
X40569Y134405D01*
X40583Y134461D01*
X40597Y134475D01*
X40625Y134560D01*
X40639Y134659D01*
X40682Y134884D01*
X40710Y135138D01*
X40724Y135392D01*
Y135645D01*
X40738Y135744D01*
Y137097D01*
D02*
G37*
G36*
X41344Y113978D02*
X41260D01*
X41203D01*
X41189D01*
X40879Y113964D01*
X40597Y113950D01*
X40329Y113908D01*
X40075Y113865D01*
X39850Y113809D01*
X39639Y113753D01*
X39455Y113682D01*
X39286Y113612D01*
X39131Y113541D01*
X39004Y113471D01*
X38905Y113414D01*
X38807Y113358D01*
X38736Y113316D01*
X38694Y113273D01*
X38666Y113259D01*
X38652Y113245D01*
X38497Y113104D01*
X38370Y112949D01*
X38257Y112780D01*
X38158Y112625D01*
X38074Y112456D01*
X38017Y112287D01*
X37905Y111976D01*
X37848Y111695D01*
X37834Y111582D01*
X37820Y111469D01*
X37806Y111384D01*
Y111272D01*
X37820Y111046D01*
X37848Y110835D01*
X37876Y110637D01*
X37933Y110454D01*
X38074Y110130D01*
X38144Y109975D01*
X38215Y109848D01*
X38299Y109721D01*
X38370Y109622D01*
X38440Y109538D01*
X38511Y109453D01*
X38567Y109397D01*
X38595Y109354D01*
X38623Y109340D01*
X38638Y109326D01*
X38807Y109199D01*
X38990Y109073D01*
X39173Y108974D01*
X39385Y108889D01*
X39808Y108762D01*
X40216Y108678D01*
X40400Y108636D01*
X40583Y108621D01*
X40738Y108607D01*
X40879Y108593D01*
X41006Y108579D01*
X41090D01*
X41147D01*
X41161D01*
X41471Y108593D01*
X41767Y108607D01*
X42035Y108650D01*
X42275Y108692D01*
X42514Y108748D01*
X42726Y108819D01*
X42909Y108889D01*
X43078Y108960D01*
X43233Y109030D01*
X43360Y109101D01*
X43473Y109157D01*
X43572Y109228D01*
X43642Y109270D01*
X43684Y109312D01*
X43713Y109326D01*
X43727Y109340D01*
X43882Y109481D01*
X44009Y109636D01*
X44121Y109806D01*
X44220Y109961D01*
X44290Y110130D01*
X44361Y110285D01*
X44460Y110595D01*
X44530Y110863D01*
X44544Y110976D01*
X44558Y111074D01*
X44573Y111159D01*
Y111272D01*
X44558Y111483D01*
X44530Y111695D01*
X44488Y111892D01*
X44432Y112075D01*
X44305Y112414D01*
X44135Y112681D01*
X44065Y112808D01*
X43980Y112907D01*
X43910Y113006D01*
X43839Y113076D01*
X43797Y113132D01*
X43755Y113175D01*
X43727Y113203D01*
X43713Y113217D01*
X43543Y113344D01*
X43360Y113471D01*
X43163Y113569D01*
X42951Y113654D01*
X42543Y113795D01*
X42134Y113880D01*
X41936Y113908D01*
X41767Y113936D01*
X41598Y113950D01*
X41457Y113964D01*
X41344Y113978D01*
D02*
G37*
G36*
X44417Y103025D02*
X37961D01*
Y101742D01*
X37975Y101559D01*
Y101390D01*
X37989Y101249D01*
Y101122D01*
X38003Y100995D01*
Y100896D01*
X38031Y100741D01*
X38045Y100628D01*
X38060Y100558D01*
Y100544D01*
X38116Y100346D01*
X38187Y100177D01*
X38257Y100022D01*
X38342Y99881D01*
X38412Y99783D01*
X38468Y99698D01*
X38511Y99656D01*
X38525Y99642D01*
X38666Y99515D01*
X38821Y99402D01*
X38976Y99303D01*
X39117Y99219D01*
X39258Y99162D01*
X39371Y99120D01*
X39441Y99092D01*
X39455Y99078D01*
X39469D01*
X39723Y99007D01*
X39991Y98951D01*
X40287Y98923D01*
X40569Y98895D01*
X40809Y98880D01*
X40921Y98866D01*
X41020D01*
X41090D01*
X41147D01*
X41189D01*
X41203D01*
X41598Y98880D01*
X41965Y98895D01*
X42260Y98937D01*
X42514Y98965D01*
X42726Y99007D01*
X42810Y99021D01*
X42867Y99050D01*
X42923Y99064D01*
X42965D01*
X42979Y99078D01*
X42994D01*
X43219Y99162D01*
X43417Y99233D01*
X43572Y99332D01*
X43698Y99402D01*
X43797Y99473D01*
X43868Y99529D01*
X43910Y99571D01*
X43924Y99585D01*
X44023Y99712D01*
X44107Y99839D01*
X44178Y99966D01*
X44234Y100093D01*
X44276Y100205D01*
X44305Y100290D01*
X44333Y100346D01*
Y100375D01*
X44361Y100530D01*
X44375Y100713D01*
X44403Y100910D01*
Y101108D01*
X44417Y101291D01*
Y103025D01*
D02*
G37*
G36*
X204192Y127596D02*
X201711D01*
Y125341D01*
X201725Y125214D01*
Y124904D01*
X201739Y124777D01*
Y124692D01*
X201753Y124650D01*
Y124636D01*
X201796Y124467D01*
X201852Y124312D01*
X201908Y124185D01*
X201979Y124086D01*
X202049Y124002D01*
X202092Y123931D01*
X202134Y123903D01*
X202148Y123889D01*
X202261Y123804D01*
X202402Y123734D01*
X202529Y123691D01*
X202655Y123649D01*
X202768Y123635D01*
X202853Y123621D01*
X202909D01*
X202937D01*
X203092Y123635D01*
X203233Y123649D01*
X203360Y123691D01*
X203473Y123720D01*
X203558Y123762D01*
X203614Y123804D01*
X203656Y123818D01*
X203670Y123832D01*
X203769Y123917D01*
X203854Y124002D01*
X203981Y124185D01*
X204023Y124255D01*
X204051Y124326D01*
X204079Y124368D01*
Y124382D01*
X204093Y124453D01*
X204121Y124565D01*
X204136Y124678D01*
X204150Y124805D01*
X204164Y125101D01*
X204178Y125397D01*
X204192Y125679D01*
Y127596D01*
D02*
G37*
G36*
X205094Y118109D02*
X205010D01*
X204953D01*
X204939D01*
X204629Y118095D01*
X204347Y118081D01*
X204079Y118038D01*
X203825Y117996D01*
X203600Y117940D01*
X203389Y117883D01*
X203205Y117813D01*
X203036Y117742D01*
X202881Y117672D01*
X202754Y117601D01*
X202655Y117545D01*
X202557Y117489D01*
X202486Y117446D01*
X202444Y117404D01*
X202416Y117390D01*
X202402Y117376D01*
X202247Y117235D01*
X202120Y117080D01*
X202007Y116911D01*
X201908Y116756D01*
X201824Y116587D01*
X201767Y116417D01*
X201655Y116107D01*
X201598Y115825D01*
X201584Y115712D01*
X201570Y115600D01*
X201556Y115515D01*
Y115402D01*
X201570Y115177D01*
X201598Y114965D01*
X201626Y114768D01*
X201683Y114585D01*
X201824Y114261D01*
X201894Y114105D01*
X201965Y113979D01*
X202049Y113852D01*
X202120Y113753D01*
X202190Y113668D01*
X202261Y113584D01*
X202317Y113527D01*
X202345Y113485D01*
X202374Y113471D01*
X202388Y113457D01*
X202557Y113330D01*
X202740Y113203D01*
X202923Y113104D01*
X203135Y113020D01*
X203558Y112893D01*
X203967Y112809D01*
X204150Y112766D01*
X204333Y112752D01*
X204488Y112738D01*
X204629Y112724D01*
X204756Y112710D01*
X204841D01*
X204897D01*
X204911D01*
X205221Y112724D01*
X205517Y112738D01*
X205785Y112780D01*
X206025Y112823D01*
X206264Y112879D01*
X206476Y112949D01*
X206659Y113020D01*
X206828Y113090D01*
X206983Y113161D01*
X207110Y113231D01*
X207223Y113288D01*
X207322Y113358D01*
X207392Y113400D01*
X207434Y113443D01*
X207463Y113457D01*
X207477Y113471D01*
X207632Y113612D01*
X207759Y113767D01*
X207871Y113936D01*
X207970Y114091D01*
X208041Y114261D01*
X208111Y114416D01*
X208210Y114726D01*
X208280Y114993D01*
X208294Y115106D01*
X208308Y115205D01*
X208322Y115289D01*
Y115402D01*
X208308Y115614D01*
X208280Y115825D01*
X208238Y116023D01*
X208181Y116206D01*
X208055Y116544D01*
X207885Y116812D01*
X207815Y116939D01*
X207730Y117038D01*
X207660Y117136D01*
X207589Y117207D01*
X207547Y117263D01*
X207505Y117305D01*
X207477Y117334D01*
X207463Y117348D01*
X207293Y117475D01*
X207110Y117601D01*
X206913Y117700D01*
X206701Y117785D01*
X206292Y117926D01*
X205884Y118010D01*
X205686Y118038D01*
X205517Y118067D01*
X205348Y118081D01*
X205207Y118095D01*
X205094Y118109D01*
D02*
G37*
G36*
X238844Y232016D02*
X238760D01*
X238703D01*
X238689D01*
X238379Y232002D01*
X238097Y231988D01*
X237829Y231946D01*
X237575Y231903D01*
X237350Y231847D01*
X237139Y231791D01*
X236955Y231720D01*
X236786Y231650D01*
X236631Y231579D01*
X236504Y231509D01*
X236406Y231452D01*
X236307Y231396D01*
X236236Y231354D01*
X236194Y231311D01*
X236166Y231297D01*
X236152Y231283D01*
X235997Y231142D01*
X235870Y230987D01*
X235757Y230818D01*
X235658Y230663D01*
X235574Y230494D01*
X235517Y230325D01*
X235405Y230014D01*
X235348Y229733D01*
X235334Y229620D01*
X235320Y229507D01*
X235306Y229422D01*
Y229310D01*
X235320Y229084D01*
X235348Y228873D01*
X235376Y228675D01*
X235433Y228492D01*
X235574Y228168D01*
X235644Y228013D01*
X235715Y227886D01*
X235799Y227759D01*
X235870Y227660D01*
X235940Y227576D01*
X236011Y227491D01*
X236067Y227435D01*
X236095Y227393D01*
X236124Y227378D01*
X236138Y227364D01*
X236307Y227237D01*
X236490Y227111D01*
X236673Y227012D01*
X236885Y226927D01*
X237308Y226800D01*
X237717Y226716D01*
X237900Y226674D01*
X238083Y226659D01*
X238238Y226645D01*
X238379Y226631D01*
X238506Y226617D01*
X238591D01*
X238647D01*
X238661D01*
X238971Y226631D01*
X239267Y226645D01*
X239535Y226688D01*
X239775Y226730D01*
X240014Y226786D01*
X240226Y226857D01*
X240409Y226927D01*
X240578Y226998D01*
X240733Y227068D01*
X240860Y227139D01*
X240973Y227195D01*
X241072Y227266D01*
X241142Y227308D01*
X241184Y227350D01*
X241213Y227364D01*
X241227Y227378D01*
X241382Y227519D01*
X241509Y227674D01*
X241621Y227844D01*
X241720Y227999D01*
X241791Y228168D01*
X241861Y228323D01*
X241960Y228633D01*
X242030Y228901D01*
X242044Y229014D01*
X242058Y229112D01*
X242073Y229197D01*
Y229310D01*
X242058Y229521D01*
X242030Y229733D01*
X241988Y229930D01*
X241931Y230113D01*
X241805Y230452D01*
X241635Y230719D01*
X241565Y230846D01*
X241480Y230945D01*
X241410Y231044D01*
X241339Y231114D01*
X241297Y231171D01*
X241255Y231213D01*
X241227Y231241D01*
X241213Y231255D01*
X241043Y231382D01*
X240860Y231509D01*
X240663Y231607D01*
X240451Y231692D01*
X240042Y231833D01*
X239634Y231918D01*
X239436Y231946D01*
X239267Y231974D01*
X239098Y231988D01*
X238957Y232002D01*
X238844Y232016D01*
D02*
G37*
G36*
X240451Y221359D02*
X240381D01*
X240338D01*
X240310D01*
X240296D01*
X240000Y221345D01*
X239746Y221303D01*
X239535Y221246D01*
X239352Y221176D01*
X239225Y221105D01*
X239126Y221049D01*
X239056Y221007D01*
X239042Y220992D01*
X238901Y220851D01*
X238788Y220696D01*
X238717Y220541D01*
X238661Y220400D01*
X238633Y220273D01*
X238605Y220161D01*
Y220076D01*
X238619Y219879D01*
X238675Y219695D01*
X238746Y219540D01*
X238830Y219400D01*
X238915Y219287D01*
X238985Y219216D01*
X239042Y219160D01*
X239056Y219146D01*
X239239Y219019D01*
X239464Y218920D01*
X239704Y218864D01*
X239930Y218807D01*
X240141Y218779D01*
X240310Y218765D01*
X240367D01*
X240423D01*
X240451D01*
X240465D01*
X240790Y218779D01*
X241072Y218822D01*
X241297Y218878D01*
X241480Y218934D01*
X241621Y219005D01*
X241720Y219061D01*
X241791Y219103D01*
X241805Y219118D01*
X241931Y219258D01*
X242030Y219400D01*
X242101Y219555D01*
X242143Y219681D01*
X242171Y219808D01*
X242199Y219907D01*
Y219991D01*
X242171Y220189D01*
X242115Y220372D01*
X242044Y220527D01*
X241946Y220668D01*
X241861Y220781D01*
X241776Y220880D01*
X241720Y220936D01*
X241706Y220950D01*
X241509Y221091D01*
X241283Y221190D01*
X241043Y221260D01*
X240818Y221303D01*
X240606Y221331D01*
X240451Y221359D01*
D02*
G37*
G36*
X238844Y30766D02*
X238760D01*
X238703D01*
X238689D01*
X238379Y30752D01*
X238097Y30738D01*
X237829Y30696D01*
X237575Y30654D01*
X237350Y30597D01*
X237139Y30541D01*
X236955Y30470D01*
X236786Y30400D01*
X236631Y30329D01*
X236504Y30259D01*
X236406Y30202D01*
X236307Y30146D01*
X236236Y30104D01*
X236194Y30061D01*
X236166Y30047D01*
X236152Y30033D01*
X235997Y29892D01*
X235870Y29737D01*
X235757Y29568D01*
X235658Y29413D01*
X235574Y29244D01*
X235517Y29075D01*
X235405Y28765D01*
X235348Y28482D01*
X235334Y28370D01*
X235320Y28257D01*
X235306Y28172D01*
Y28060D01*
X235320Y27834D01*
X235348Y27623D01*
X235376Y27425D01*
X235433Y27242D01*
X235574Y26918D01*
X235644Y26763D01*
X235715Y26636D01*
X235799Y26509D01*
X235870Y26410D01*
X235940Y26326D01*
X236011Y26241D01*
X236067Y26185D01*
X236095Y26142D01*
X236124Y26128D01*
X236138Y26114D01*
X236307Y25987D01*
X236490Y25861D01*
X236673Y25762D01*
X236885Y25677D01*
X237308Y25550D01*
X237717Y25466D01*
X237900Y25424D01*
X238083Y25409D01*
X238238Y25395D01*
X238379Y25381D01*
X238506Y25367D01*
X238591D01*
X238647D01*
X238661D01*
X238971Y25381D01*
X239267Y25395D01*
X239535Y25438D01*
X239775Y25480D01*
X240014Y25536D01*
X240226Y25607D01*
X240409Y25677D01*
X240578Y25748D01*
X240733Y25818D01*
X240860Y25889D01*
X240973Y25945D01*
X241072Y26016D01*
X241142Y26058D01*
X241184Y26100D01*
X241213Y26114D01*
X241227Y26128D01*
X241382Y26269D01*
X241509Y26424D01*
X241621Y26593D01*
X241720Y26749D01*
X241791Y26918D01*
X241861Y27073D01*
X241960Y27383D01*
X242030Y27651D01*
X242044Y27764D01*
X242058Y27862D01*
X242073Y27947D01*
Y28060D01*
X242058Y28271D01*
X242030Y28482D01*
X241988Y28680D01*
X241931Y28863D01*
X241805Y29202D01*
X241635Y29469D01*
X241565Y29596D01*
X241480Y29695D01*
X241410Y29794D01*
X241339Y29864D01*
X241297Y29920D01*
X241255Y29963D01*
X241227Y29991D01*
X241213Y30005D01*
X241043Y30132D01*
X240860Y30259D01*
X240663Y30357D01*
X240451Y30442D01*
X240042Y30583D01*
X239634Y30668D01*
X239436Y30696D01*
X239267Y30724D01*
X239098Y30738D01*
X238957Y30752D01*
X238844Y30766D01*
D02*
G37*
G36*
X19417Y187233D02*
X12961D01*
Y185951D01*
X12975Y185767D01*
Y185598D01*
X12989Y185457D01*
Y185330D01*
X13003Y185203D01*
Y185105D01*
X13031Y184950D01*
X13046Y184837D01*
X13060Y184766D01*
Y184752D01*
X13116Y184555D01*
X13187Y184386D01*
X13257Y184231D01*
X13342Y184090D01*
X13412Y183991D01*
X13468Y183906D01*
X13511Y183864D01*
X13525Y183850D01*
X13666Y183723D01*
X13821Y183610D01*
X13976Y183512D01*
X14117Y183427D01*
X14258Y183371D01*
X14371Y183328D01*
X14441Y183300D01*
X14455Y183286D01*
X14469D01*
X14723Y183216D01*
X14991Y183159D01*
X15287Y183131D01*
X15569Y183103D01*
X15809Y183089D01*
X15921Y183075D01*
X16020D01*
X16091D01*
X16147D01*
X16189D01*
X16203D01*
X16598Y183089D01*
X16964Y183103D01*
X17261Y183145D01*
X17514Y183173D01*
X17726Y183216D01*
X17810Y183230D01*
X17867Y183258D01*
X17923Y183272D01*
X17965D01*
X17980Y183286D01*
X17994D01*
X18219Y183371D01*
X18417Y183441D01*
X18571Y183540D01*
X18698Y183610D01*
X18797Y183681D01*
X18868Y183737D01*
X18910Y183780D01*
X18924Y183794D01*
X19023Y183920D01*
X19107Y184047D01*
X19178Y184174D01*
X19234Y184301D01*
X19276Y184414D01*
X19305Y184499D01*
X19333Y184555D01*
Y184583D01*
X19361Y184738D01*
X19375Y184921D01*
X19403Y185119D01*
Y185316D01*
X19417Y185499D01*
Y187233D01*
D02*
G37*
G36*
X40442Y208026D02*
X37961D01*
Y205771D01*
X37975Y205644D01*
Y205334D01*
X37989Y205207D01*
Y205122D01*
X38003Y205080D01*
Y205066D01*
X38045Y204897D01*
X38102Y204742D01*
X38158Y204615D01*
X38229Y204516D01*
X38299Y204432D01*
X38342Y204361D01*
X38384Y204333D01*
X38398Y204319D01*
X38511Y204234D01*
X38652Y204164D01*
X38779Y204121D01*
X38905Y204079D01*
X39018Y204065D01*
X39103Y204051D01*
X39159D01*
X39187D01*
X39342Y204065D01*
X39483Y204079D01*
X39610Y204121D01*
X39723Y204150D01*
X39808Y204192D01*
X39864Y204234D01*
X39906Y204248D01*
X39920Y204263D01*
X40019Y204347D01*
X40104Y204432D01*
X40231Y204615D01*
X40273Y204685D01*
X40301Y204756D01*
X40329Y204798D01*
Y204812D01*
X40343Y204883D01*
X40371Y204996D01*
X40386Y205108D01*
X40400Y205235D01*
X40414Y205531D01*
X40428Y205827D01*
X40442Y206109D01*
Y208026D01*
D02*
G37*
G36*
X90625Y209276D02*
X88144D01*
Y207021D01*
X88158Y206894D01*
Y206584D01*
X88172Y206457D01*
Y206373D01*
X88187Y206330D01*
Y206316D01*
X88229Y206147D01*
X88285Y205992D01*
X88342Y205865D01*
X88412Y205766D01*
X88483Y205682D01*
X88525Y205611D01*
X88567Y205583D01*
X88581Y205569D01*
X88694Y205484D01*
X88835Y205414D01*
X88962Y205372D01*
X89089Y205329D01*
X89201Y205315D01*
X89286Y205301D01*
X89342D01*
X89371D01*
X89526Y205315D01*
X89667Y205329D01*
X89794Y205372D01*
X89906Y205400D01*
X89991Y205442D01*
X90047Y205484D01*
X90090Y205498D01*
X90104Y205513D01*
X90202Y205597D01*
X90287Y205682D01*
X90414Y205865D01*
X90456Y205935D01*
X90484Y206006D01*
X90513Y206048D01*
Y206062D01*
X90527Y206133D01*
X90555Y206246D01*
X90569Y206358D01*
X90583Y206485D01*
X90597Y206781D01*
X90611Y207077D01*
X90625Y207359D01*
Y209276D01*
D02*
G37*
G36*
X192594Y207016D02*
X192510D01*
X192453D01*
X192439D01*
X192129Y207002D01*
X191847Y206988D01*
X191579Y206946D01*
X191325Y206903D01*
X191100Y206847D01*
X190889Y206791D01*
X190705Y206720D01*
X190536Y206650D01*
X190381Y206579D01*
X190254Y206509D01*
X190156Y206452D01*
X190057Y206396D01*
X189986Y206354D01*
X189944Y206311D01*
X189916Y206297D01*
X189902Y206283D01*
X189747Y206142D01*
X189620Y205987D01*
X189507Y205818D01*
X189408Y205663D01*
X189324Y205494D01*
X189267Y205325D01*
X189155Y205014D01*
X189098Y204733D01*
X189084Y204620D01*
X189070Y204507D01*
X189056Y204422D01*
Y204310D01*
X189070Y204084D01*
X189098Y203873D01*
X189126Y203675D01*
X189183Y203492D01*
X189324Y203168D01*
X189394Y203013D01*
X189465Y202886D01*
X189549Y202759D01*
X189620Y202660D01*
X189690Y202576D01*
X189761Y202491D01*
X189817Y202435D01*
X189845Y202393D01*
X189874Y202378D01*
X189888Y202364D01*
X190057Y202237D01*
X190240Y202111D01*
X190423Y202012D01*
X190635Y201927D01*
X191058Y201800D01*
X191467Y201716D01*
X191650Y201674D01*
X191833Y201659D01*
X191988Y201645D01*
X192129Y201631D01*
X192256Y201617D01*
X192341D01*
X192397D01*
X192411D01*
X192721Y201631D01*
X193017Y201645D01*
X193285Y201688D01*
X193525Y201730D01*
X193764Y201786D01*
X193976Y201857D01*
X194159Y201927D01*
X194328Y201998D01*
X194483Y202068D01*
X194610Y202139D01*
X194723Y202195D01*
X194822Y202266D01*
X194892Y202308D01*
X194934Y202350D01*
X194963Y202364D01*
X194977Y202378D01*
X195132Y202519D01*
X195259Y202674D01*
X195371Y202844D01*
X195470Y202999D01*
X195541Y203168D01*
X195611Y203323D01*
X195710Y203633D01*
X195780Y203901D01*
X195794Y204014D01*
X195808Y204112D01*
X195823Y204197D01*
Y204310D01*
X195808Y204521D01*
X195780Y204733D01*
X195738Y204930D01*
X195681Y205113D01*
X195555Y205452D01*
X195385Y205719D01*
X195315Y205846D01*
X195230Y205945D01*
X195160Y206044D01*
X195089Y206114D01*
X195047Y206171D01*
X195005Y206213D01*
X194977Y206241D01*
X194963Y206255D01*
X194793Y206382D01*
X194610Y206509D01*
X194413Y206607D01*
X194201Y206692D01*
X193792Y206833D01*
X193384Y206918D01*
X193186Y206946D01*
X193017Y206974D01*
X192848Y206988D01*
X192707Y207002D01*
X192594Y207016D01*
D02*
G37*
G36*
X116438Y209277D02*
X114183D01*
Y207317D01*
X114197Y207162D01*
Y206795D01*
X114211Y206711D01*
Y206556D01*
X114225Y206499D01*
Y206485D01*
X114253Y206316D01*
X114296Y206161D01*
X114352Y206034D01*
X114408Y205921D01*
X114465Y205851D01*
X114521Y205780D01*
X114549Y205752D01*
X114563Y205738D01*
X114676Y205653D01*
X114803Y205597D01*
X114916Y205541D01*
X115029Y205513D01*
X115141Y205499D01*
X115226Y205484D01*
X115282D01*
X115296D01*
X115466Y205499D01*
X115621Y205527D01*
X115747Y205583D01*
X115860Y205625D01*
X115959Y205682D01*
X116015Y205738D01*
X116058Y205766D01*
X116072Y205780D01*
X116170Y205893D01*
X116241Y206020D01*
X116297Y206147D01*
X116340Y206274D01*
X116382Y206401D01*
X116396Y206485D01*
X116410Y206542D01*
Y206626D01*
X116424Y206711D01*
Y207148D01*
X116438Y207388D01*
Y209277D01*
D02*
G37*
G36*
X120667D02*
X118059D01*
Y207232D01*
X118074Y207035D01*
X118088Y206866D01*
Y206697D01*
X118102Y206556D01*
X118116Y206429D01*
X118130Y206330D01*
X118144Y206231D01*
X118158Y206161D01*
X118172Y206048D01*
X118200Y205978D01*
Y205964D01*
X118257Y205823D01*
X118327Y205696D01*
X118398Y205583D01*
X118482Y205499D01*
X118539Y205428D01*
X118595Y205386D01*
X118637Y205357D01*
X118652Y205343D01*
X118778Y205273D01*
X118905Y205217D01*
X119018Y205174D01*
X119145Y205146D01*
X119244Y205132D01*
X119328Y205118D01*
X119384D01*
X119399D01*
X119582Y205132D01*
X119751Y205160D01*
X119892Y205202D01*
X120005Y205259D01*
X120104Y205315D01*
X120174Y205357D01*
X120216Y205386D01*
X120230Y205400D01*
X120329Y205513D01*
X120414Y205625D01*
X120484Y205752D01*
X120541Y205865D01*
X120569Y205964D01*
X120597Y206048D01*
X120611Y206105D01*
Y206119D01*
X120625Y206175D01*
Y206260D01*
X120639Y206443D01*
X120653Y206668D01*
Y206894D01*
X120667Y207106D01*
Y209277D01*
D02*
G37*
G36*
X117594Y199789D02*
X117510D01*
X117453D01*
X117439D01*
X117129Y199775D01*
X116847Y199761D01*
X116579Y199719D01*
X116326Y199676D01*
X116100Y199620D01*
X115889Y199564D01*
X115705Y199493D01*
X115536Y199423D01*
X115381Y199352D01*
X115254Y199282D01*
X115155Y199225D01*
X115057Y199169D01*
X114986Y199127D01*
X114944Y199084D01*
X114916Y199070D01*
X114902Y199056D01*
X114747Y198915D01*
X114620Y198760D01*
X114507Y198591D01*
X114408Y198436D01*
X114324Y198267D01*
X114267Y198097D01*
X114155Y197787D01*
X114098Y197505D01*
X114084Y197393D01*
X114070Y197280D01*
X114056Y197195D01*
Y197083D01*
X114070Y196857D01*
X114098Y196646D01*
X114126Y196448D01*
X114183Y196265D01*
X114324Y195941D01*
X114394Y195786D01*
X114465Y195659D01*
X114549Y195532D01*
X114620Y195433D01*
X114690Y195349D01*
X114761Y195264D01*
X114817Y195208D01*
X114845Y195165D01*
X114874Y195151D01*
X114888Y195137D01*
X115057Y195010D01*
X115240Y194883D01*
X115423Y194785D01*
X115635Y194700D01*
X116058Y194573D01*
X116467Y194489D01*
X116650Y194446D01*
X116833Y194432D01*
X116988Y194418D01*
X117129Y194404D01*
X117256Y194390D01*
X117340D01*
X117397D01*
X117411D01*
X117721Y194404D01*
X118017Y194418D01*
X118285Y194461D01*
X118525Y194503D01*
X118764Y194559D01*
X118976Y194630D01*
X119159Y194700D01*
X119328Y194771D01*
X119483Y194841D01*
X119610Y194912D01*
X119723Y194968D01*
X119822Y195039D01*
X119892Y195081D01*
X119934Y195123D01*
X119963Y195137D01*
X119977Y195151D01*
X120132Y195292D01*
X120259Y195447D01*
X120371Y195616D01*
X120470Y195772D01*
X120541Y195941D01*
X120611Y196096D01*
X120710Y196406D01*
X120780Y196674D01*
X120794Y196786D01*
X120808Y196885D01*
X120822Y196970D01*
Y197083D01*
X120808Y197294D01*
X120780Y197505D01*
X120738Y197703D01*
X120681Y197886D01*
X120555Y198224D01*
X120385Y198492D01*
X120315Y198619D01*
X120230Y198718D01*
X120160Y198817D01*
X120089Y198887D01*
X120047Y198943D01*
X120005Y198986D01*
X119977Y199014D01*
X119963Y199028D01*
X119793Y199155D01*
X119610Y199282D01*
X119413Y199380D01*
X119201Y199465D01*
X118792Y199606D01*
X118384Y199690D01*
X118186Y199719D01*
X118017Y199747D01*
X117848Y199761D01*
X117707Y199775D01*
X117594Y199789D01*
D02*
G37*
G36*
Y189188D02*
X117510D01*
X117453D01*
X117439D01*
X117129Y189174D01*
X116847Y189160D01*
X116579Y189118D01*
X116326Y189076D01*
X116100Y189019D01*
X115889Y188963D01*
X115705Y188892D01*
X115536Y188822D01*
X115381Y188751D01*
X115254Y188681D01*
X115155Y188624D01*
X115057Y188568D01*
X114986Y188526D01*
X114944Y188483D01*
X114916Y188469D01*
X114902Y188455D01*
X114747Y188314D01*
X114620Y188159D01*
X114507Y187990D01*
X114408Y187835D01*
X114324Y187666D01*
X114267Y187497D01*
X114155Y187187D01*
X114098Y186905D01*
X114084Y186792D01*
X114070Y186679D01*
X114056Y186594D01*
Y186482D01*
X114070Y186256D01*
X114098Y186045D01*
X114126Y185847D01*
X114183Y185664D01*
X114324Y185340D01*
X114394Y185185D01*
X114465Y185058D01*
X114549Y184931D01*
X114620Y184832D01*
X114690Y184748D01*
X114761Y184663D01*
X114817Y184607D01*
X114845Y184564D01*
X114874Y184550D01*
X114888Y184536D01*
X115057Y184409D01*
X115240Y184282D01*
X115423Y184184D01*
X115635Y184099D01*
X116058Y183972D01*
X116467Y183888D01*
X116650Y183846D01*
X116833Y183831D01*
X116988Y183817D01*
X117129Y183803D01*
X117256Y183789D01*
X117340D01*
X117397D01*
X117411D01*
X117721Y183803D01*
X118017Y183817D01*
X118285Y183860D01*
X118525Y183902D01*
X118764Y183958D01*
X118976Y184029D01*
X119159Y184099D01*
X119328Y184170D01*
X119483Y184240D01*
X119610Y184311D01*
X119723Y184367D01*
X119822Y184438D01*
X119892Y184480D01*
X119934Y184522D01*
X119963Y184536D01*
X119977Y184550D01*
X120132Y184691D01*
X120259Y184846D01*
X120371Y185016D01*
X120470Y185171D01*
X120541Y185340D01*
X120611Y185495D01*
X120710Y185805D01*
X120780Y186073D01*
X120794Y186186D01*
X120808Y186284D01*
X120822Y186369D01*
Y186482D01*
X120808Y186693D01*
X120780Y186905D01*
X120738Y187102D01*
X120681Y187285D01*
X120555Y187624D01*
X120385Y187891D01*
X120315Y188018D01*
X120230Y188117D01*
X120160Y188216D01*
X120089Y188286D01*
X120047Y188342D01*
X120005Y188385D01*
X119977Y188413D01*
X119963Y188427D01*
X119793Y188554D01*
X119610Y188681D01*
X119413Y188779D01*
X119201Y188864D01*
X118792Y189005D01*
X118384Y189090D01*
X118186Y189118D01*
X118017Y189146D01*
X117848Y189160D01*
X117707Y189174D01*
X117594Y189188D01*
D02*
G37*
G36*
X142594Y60766D02*
X142510D01*
X142453D01*
X142439D01*
X142129Y60752D01*
X141847Y60738D01*
X141579Y60696D01*
X141325Y60654D01*
X141100Y60597D01*
X140888Y60541D01*
X140705Y60470D01*
X140536Y60400D01*
X140381Y60329D01*
X140254Y60259D01*
X140155Y60202D01*
X140057Y60146D01*
X139986Y60104D01*
X139944Y60061D01*
X139916Y60047D01*
X139902Y60033D01*
X139747Y59892D01*
X139620Y59737D01*
X139507Y59568D01*
X139408Y59413D01*
X139324Y59244D01*
X139267Y59075D01*
X139155Y58765D01*
X139098Y58483D01*
X139084Y58370D01*
X139070Y58257D01*
X139056Y58172D01*
Y58060D01*
X139070Y57834D01*
X139098Y57623D01*
X139126Y57425D01*
X139183Y57242D01*
X139324Y56918D01*
X139394Y56763D01*
X139465Y56636D01*
X139549Y56509D01*
X139620Y56410D01*
X139690Y56326D01*
X139761Y56241D01*
X139817Y56185D01*
X139845Y56143D01*
X139874Y56128D01*
X139888Y56114D01*
X140057Y55987D01*
X140240Y55861D01*
X140423Y55762D01*
X140635Y55677D01*
X141058Y55550D01*
X141466Y55466D01*
X141650Y55423D01*
X141833Y55409D01*
X141988Y55395D01*
X142129Y55381D01*
X142256Y55367D01*
X142340D01*
X142397D01*
X142411D01*
X142721Y55381D01*
X143017Y55395D01*
X143285Y55438D01*
X143525Y55480D01*
X143764Y55536D01*
X143976Y55607D01*
X144159Y55677D01*
X144328Y55748D01*
X144483Y55818D01*
X144610Y55889D01*
X144723Y55945D01*
X144822Y56016D01*
X144892Y56058D01*
X144934Y56100D01*
X144963Y56114D01*
X144977Y56128D01*
X145132Y56269D01*
X145259Y56424D01*
X145371Y56594D01*
X145470Y56749D01*
X145541Y56918D01*
X145611Y57073D01*
X145710Y57383D01*
X145780Y57651D01*
X145794Y57764D01*
X145808Y57862D01*
X145822Y57947D01*
Y58060D01*
X145808Y58271D01*
X145780Y58483D01*
X145738Y58680D01*
X145681Y58863D01*
X145555Y59201D01*
X145385Y59469D01*
X145315Y59596D01*
X145230Y59695D01*
X145160Y59794D01*
X145089Y59864D01*
X145047Y59921D01*
X145005Y59963D01*
X144977Y59991D01*
X144963Y60005D01*
X144793Y60132D01*
X144610Y60259D01*
X144413Y60357D01*
X144201Y60442D01*
X143792Y60583D01*
X143384Y60668D01*
X143186Y60696D01*
X143017Y60724D01*
X142848Y60738D01*
X142707Y60752D01*
X142594Y60766D01*
D02*
G37*
G36*
X192594Y62016D02*
X192510D01*
X192453D01*
X192439D01*
X192129Y62002D01*
X191847Y61988D01*
X191579Y61946D01*
X191325Y61904D01*
X191100Y61847D01*
X190889Y61791D01*
X190705Y61720D01*
X190536Y61650D01*
X190381Y61579D01*
X190254Y61509D01*
X190156Y61452D01*
X190057Y61396D01*
X189986Y61354D01*
X189944Y61311D01*
X189916Y61297D01*
X189902Y61283D01*
X189747Y61142D01*
X189620Y60987D01*
X189507Y60818D01*
X189408Y60663D01*
X189324Y60494D01*
X189267Y60325D01*
X189155Y60015D01*
X189098Y59733D01*
X189084Y59620D01*
X189070Y59507D01*
X189056Y59422D01*
Y59310D01*
X189070Y59084D01*
X189098Y58873D01*
X189126Y58675D01*
X189183Y58492D01*
X189324Y58168D01*
X189394Y58013D01*
X189465Y57886D01*
X189549Y57759D01*
X189620Y57660D01*
X189690Y57576D01*
X189761Y57491D01*
X189817Y57435D01*
X189845Y57393D01*
X189874Y57378D01*
X189888Y57364D01*
X190057Y57237D01*
X190240Y57111D01*
X190423Y57012D01*
X190635Y56927D01*
X191058Y56800D01*
X191467Y56716D01*
X191650Y56673D01*
X191833Y56659D01*
X191988Y56645D01*
X192129Y56631D01*
X192256Y56617D01*
X192341D01*
X192397D01*
X192411D01*
X192721Y56631D01*
X193017Y56645D01*
X193285Y56688D01*
X193525Y56730D01*
X193764Y56786D01*
X193976Y56857D01*
X194159Y56927D01*
X194328Y56998D01*
X194483Y57068D01*
X194610Y57139D01*
X194723Y57195D01*
X194822Y57266D01*
X194892Y57308D01*
X194934Y57350D01*
X194963Y57364D01*
X194977Y57378D01*
X195132Y57519D01*
X195259Y57674D01*
X195371Y57844D01*
X195470Y57999D01*
X195541Y58168D01*
X195611Y58323D01*
X195710Y58633D01*
X195780Y58901D01*
X195794Y59014D01*
X195808Y59112D01*
X195823Y59197D01*
Y59310D01*
X195808Y59521D01*
X195780Y59733D01*
X195738Y59930D01*
X195681Y60113D01*
X195555Y60451D01*
X195385Y60719D01*
X195315Y60846D01*
X195230Y60945D01*
X195160Y61044D01*
X195089Y61114D01*
X195047Y61171D01*
X195005Y61213D01*
X194977Y61241D01*
X194963Y61255D01*
X194793Y61382D01*
X194610Y61509D01*
X194413Y61607D01*
X194201Y61692D01*
X193792Y61833D01*
X193384Y61918D01*
X193186Y61946D01*
X193017Y61974D01*
X192848Y61988D01*
X192707Y62002D01*
X192594Y62016D01*
D02*
G37*
G36*
X193722Y52050D02*
X190367Y49780D01*
X193722D01*
Y52050D01*
D02*
G37*
G36*
X167594Y60766D02*
X167510D01*
X167453D01*
X167439D01*
X167129Y60752D01*
X166847Y60738D01*
X166579Y60696D01*
X166325Y60654D01*
X166100Y60597D01*
X165889Y60541D01*
X165705Y60470D01*
X165536Y60400D01*
X165381Y60329D01*
X165254Y60259D01*
X165155Y60202D01*
X165057Y60146D01*
X164986Y60104D01*
X164944Y60061D01*
X164916Y60047D01*
X164902Y60033D01*
X164747Y59892D01*
X164620Y59737D01*
X164507Y59568D01*
X164408Y59413D01*
X164324Y59244D01*
X164267Y59075D01*
X164154Y58765D01*
X164098Y58482D01*
X164084Y58370D01*
X164070Y58257D01*
X164056Y58172D01*
Y58060D01*
X164070Y57834D01*
X164098Y57623D01*
X164126Y57425D01*
X164183Y57242D01*
X164324Y56918D01*
X164394Y56763D01*
X164465Y56636D01*
X164549Y56509D01*
X164620Y56410D01*
X164690Y56326D01*
X164761Y56241D01*
X164817Y56185D01*
X164845Y56142D01*
X164874Y56128D01*
X164888Y56114D01*
X165057Y55987D01*
X165240Y55861D01*
X165423Y55762D01*
X165635Y55677D01*
X166058Y55550D01*
X166466Y55466D01*
X166650Y55423D01*
X166833Y55409D01*
X166988Y55395D01*
X167129Y55381D01*
X167256Y55367D01*
X167341D01*
X167397D01*
X167411D01*
X167721Y55381D01*
X168017Y55395D01*
X168285Y55438D01*
X168525Y55480D01*
X168764Y55536D01*
X168976Y55607D01*
X169159Y55677D01*
X169328Y55748D01*
X169483Y55818D01*
X169610Y55889D01*
X169723Y55945D01*
X169821Y56016D01*
X169892Y56058D01*
X169934Y56100D01*
X169963Y56114D01*
X169977Y56128D01*
X170132Y56269D01*
X170259Y56424D01*
X170371Y56593D01*
X170470Y56749D01*
X170541Y56918D01*
X170611Y57073D01*
X170710Y57383D01*
X170780Y57651D01*
X170794Y57764D01*
X170808Y57862D01*
X170822Y57947D01*
Y58060D01*
X170808Y58271D01*
X170780Y58482D01*
X170738Y58680D01*
X170681Y58863D01*
X170555Y59201D01*
X170385Y59469D01*
X170315Y59596D01*
X170230Y59695D01*
X170160Y59794D01*
X170089Y59864D01*
X170047Y59920D01*
X170005Y59963D01*
X169977Y59991D01*
X169963Y60005D01*
X169793Y60132D01*
X169610Y60259D01*
X169413Y60357D01*
X169201Y60442D01*
X168792Y60583D01*
X168384Y60668D01*
X168186Y60696D01*
X168017Y60724D01*
X167848Y60738D01*
X167707Y60752D01*
X167594Y60766D01*
D02*
G37*
G36*
X66344Y59516D02*
X66260D01*
X66203D01*
X66189D01*
X65879Y59502D01*
X65597Y59488D01*
X65329Y59446D01*
X65075Y59404D01*
X64850Y59347D01*
X64639Y59291D01*
X64455Y59220D01*
X64286Y59150D01*
X64131Y59079D01*
X64004Y59009D01*
X63905Y58952D01*
X63807Y58896D01*
X63736Y58854D01*
X63694Y58811D01*
X63666Y58797D01*
X63652Y58783D01*
X63497Y58642D01*
X63370Y58487D01*
X63257Y58318D01*
X63158Y58163D01*
X63074Y57994D01*
X63017Y57825D01*
X62905Y57515D01*
X62848Y57232D01*
X62834Y57120D01*
X62820Y57007D01*
X62806Y56922D01*
Y56810D01*
X62820Y56584D01*
X62848Y56373D01*
X62876Y56175D01*
X62933Y55992D01*
X63074Y55668D01*
X63144Y55513D01*
X63215Y55386D01*
X63299Y55259D01*
X63370Y55160D01*
X63440Y55076D01*
X63511Y54991D01*
X63567Y54935D01*
X63595Y54892D01*
X63623Y54878D01*
X63638Y54864D01*
X63807Y54737D01*
X63990Y54611D01*
X64173Y54512D01*
X64385Y54427D01*
X64808Y54300D01*
X65216Y54216D01*
X65400Y54173D01*
X65583Y54159D01*
X65738Y54145D01*
X65879Y54131D01*
X66006Y54117D01*
X66090D01*
X66147D01*
X66161D01*
X66471Y54131D01*
X66767Y54145D01*
X67035Y54188D01*
X67275Y54230D01*
X67514Y54286D01*
X67726Y54357D01*
X67909Y54427D01*
X68078Y54498D01*
X68233Y54568D01*
X68360Y54639D01*
X68473Y54695D01*
X68572Y54766D01*
X68642Y54808D01*
X68684Y54850D01*
X68713Y54864D01*
X68727Y54878D01*
X68882Y55019D01*
X69008Y55174D01*
X69121Y55343D01*
X69220Y55499D01*
X69290Y55668D01*
X69361Y55823D01*
X69460Y56133D01*
X69530Y56401D01*
X69544Y56514D01*
X69558Y56612D01*
X69572Y56697D01*
Y56810D01*
X69558Y57021D01*
X69530Y57232D01*
X69488Y57430D01*
X69432Y57613D01*
X69305Y57951D01*
X69135Y58219D01*
X69065Y58346D01*
X68980Y58445D01*
X68910Y58544D01*
X68839Y58614D01*
X68797Y58670D01*
X68755Y58713D01*
X68727Y58741D01*
X68713Y58755D01*
X68543Y58882D01*
X68360Y59009D01*
X68163Y59107D01*
X67951Y59192D01*
X67543Y59333D01*
X67134Y59418D01*
X66936Y59446D01*
X66767Y59474D01*
X66598Y59488D01*
X66457Y59502D01*
X66344Y59516D01*
D02*
G37*
G36*
X66683Y48986D02*
X66542D01*
X66429D01*
X66330D01*
X66274D01*
X66260D01*
X65950D01*
X65654Y48972D01*
X65400D01*
X65146Y48958D01*
X64935Y48944D01*
X64723Y48929D01*
X64554Y48915D01*
X64385Y48887D01*
X64244Y48873D01*
X64131Y48859D01*
X64032Y48845D01*
X63948Y48831D01*
X63891Y48817D01*
X63835D01*
X63821Y48802D01*
X63807D01*
X63609Y48746D01*
X63440Y48676D01*
X63313Y48619D01*
X63201Y48549D01*
X63130Y48492D01*
X63074Y48450D01*
X63046Y48422D01*
X63031Y48408D01*
X62961Y48309D01*
X62905Y48196D01*
X62862Y48098D01*
X62834Y47999D01*
X62820Y47929D01*
X62806Y47858D01*
Y47802D01*
X62820Y47675D01*
X62834Y47562D01*
X62876Y47463D01*
X62919Y47379D01*
X62961Y47308D01*
X62989Y47252D01*
X63017Y47224D01*
X63031Y47210D01*
X63130Y47125D01*
X63257Y47040D01*
X63398Y46970D01*
X63539Y46899D01*
X63680Y46857D01*
X63793Y46815D01*
X63863Y46801D01*
X63877Y46787D01*
X63891D01*
X64018Y46758D01*
X64173Y46730D01*
X64356Y46702D01*
X64540Y46674D01*
X64920Y46646D01*
X65315Y46632D01*
X65498Y46617D01*
X65682D01*
X65837Y46603D01*
X65978D01*
X66090D01*
X66189D01*
X66245D01*
X66260D01*
X66570D01*
X66866Y46617D01*
X67134D01*
X67373Y46632D01*
X67599Y46646D01*
X67796Y46660D01*
X67979Y46688D01*
X68134Y46702D01*
X68275Y46716D01*
X68388Y46744D01*
X68487Y46758D01*
X68572Y46773D01*
X68628Y46787D01*
X68684D01*
X68698Y46801D01*
X68713D01*
X68910Y46857D01*
X69065Y46928D01*
X69206Y46998D01*
X69305Y47055D01*
X69389Y47111D01*
X69446Y47167D01*
X69474Y47196D01*
X69488Y47210D01*
X69558Y47308D01*
X69615Y47407D01*
X69643Y47506D01*
X69671Y47604D01*
X69685Y47675D01*
X69699Y47745D01*
Y47802D01*
X69685Y47929D01*
X69671Y48041D01*
X69629Y48140D01*
X69587Y48225D01*
X69558Y48295D01*
X69516Y48351D01*
X69502Y48380D01*
X69488Y48394D01*
X69389Y48478D01*
X69262Y48563D01*
X69121Y48633D01*
X68980Y48704D01*
X68854Y48746D01*
X68741Y48788D01*
X68670Y48802D01*
X68642Y48817D01*
X68501Y48845D01*
X68346Y48873D01*
X68177Y48901D01*
X67994Y48915D01*
X67599Y48944D01*
X67204Y48958D01*
X67021Y48972D01*
X66838D01*
X66683Y48986D01*
D02*
G37*
G36*
X91344Y59516D02*
X91260D01*
X91203D01*
X91189D01*
X90879Y59502D01*
X90597Y59488D01*
X90329Y59446D01*
X90076Y59404D01*
X89850Y59347D01*
X89639Y59291D01*
X89455Y59220D01*
X89286Y59150D01*
X89131Y59079D01*
X89004Y59009D01*
X88905Y58952D01*
X88807Y58896D01*
X88736Y58854D01*
X88694Y58811D01*
X88666Y58797D01*
X88652Y58783D01*
X88497Y58642D01*
X88370Y58487D01*
X88257Y58318D01*
X88158Y58163D01*
X88074Y57994D01*
X88017Y57825D01*
X87905Y57515D01*
X87848Y57232D01*
X87834Y57120D01*
X87820Y57007D01*
X87806Y56922D01*
Y56810D01*
X87820Y56584D01*
X87848Y56373D01*
X87876Y56175D01*
X87933Y55992D01*
X88074Y55668D01*
X88144Y55513D01*
X88215Y55386D01*
X88299Y55259D01*
X88370Y55160D01*
X88440Y55076D01*
X88511Y54991D01*
X88567Y54935D01*
X88595Y54892D01*
X88624Y54878D01*
X88638Y54864D01*
X88807Y54737D01*
X88990Y54611D01*
X89173Y54512D01*
X89385Y54427D01*
X89808Y54300D01*
X90217Y54216D01*
X90400Y54173D01*
X90583Y54159D01*
X90738Y54145D01*
X90879Y54131D01*
X91006Y54117D01*
X91090D01*
X91147D01*
X91161D01*
X91471Y54131D01*
X91767Y54145D01*
X92035Y54188D01*
X92275Y54230D01*
X92514Y54286D01*
X92726Y54357D01*
X92909Y54427D01*
X93078Y54498D01*
X93233Y54568D01*
X93360Y54639D01*
X93473Y54695D01*
X93572Y54766D01*
X93642Y54808D01*
X93684Y54850D01*
X93713Y54864D01*
X93727Y54878D01*
X93882Y55019D01*
X94009Y55174D01*
X94121Y55343D01*
X94220Y55499D01*
X94291Y55668D01*
X94361Y55823D01*
X94460Y56133D01*
X94530Y56401D01*
X94544Y56514D01*
X94558Y56612D01*
X94572Y56697D01*
Y56810D01*
X94558Y57021D01*
X94530Y57232D01*
X94488Y57430D01*
X94431Y57613D01*
X94305Y57951D01*
X94135Y58219D01*
X94065Y58346D01*
X93980Y58445D01*
X93910Y58544D01*
X93839Y58614D01*
X93797Y58670D01*
X93755Y58713D01*
X93727Y58741D01*
X93713Y58755D01*
X93543Y58882D01*
X93360Y59009D01*
X93163Y59107D01*
X92951Y59192D01*
X92542Y59333D01*
X92134Y59418D01*
X91936Y59446D01*
X91767Y59474D01*
X91598Y59488D01*
X91457Y59502D01*
X91344Y59516D01*
D02*
G37*
G36*
X40442Y66776D02*
X37961D01*
Y64521D01*
X37975Y64394D01*
Y64084D01*
X37989Y63957D01*
Y63872D01*
X38003Y63830D01*
Y63816D01*
X38045Y63647D01*
X38102Y63492D01*
X38158Y63365D01*
X38229Y63266D01*
X38299Y63182D01*
X38342Y63111D01*
X38384Y63083D01*
X38398Y63069D01*
X38511Y62984D01*
X38652Y62914D01*
X38779Y62872D01*
X38905Y62829D01*
X39018Y62815D01*
X39103Y62801D01*
X39159D01*
X39187D01*
X39343Y62815D01*
X39483Y62829D01*
X39610Y62872D01*
X39723Y62900D01*
X39808Y62942D01*
X39864Y62984D01*
X39906Y62998D01*
X39920Y63012D01*
X40019Y63097D01*
X40104Y63182D01*
X40231Y63365D01*
X40273Y63435D01*
X40301Y63506D01*
X40329Y63548D01*
Y63562D01*
X40343Y63633D01*
X40371Y63746D01*
X40386Y63858D01*
X40400Y63985D01*
X40414Y64281D01*
X40428Y64577D01*
X40442Y64859D01*
Y66776D01*
D02*
G37*
G36*
X19417Y48483D02*
X12961D01*
Y47200D01*
X12975Y47017D01*
Y46848D01*
X12989Y46707D01*
Y46580D01*
X13003Y46453D01*
Y46355D01*
X13031Y46200D01*
X13046Y46087D01*
X13060Y46016D01*
Y46002D01*
X13116Y45805D01*
X13187Y45636D01*
X13257Y45481D01*
X13341Y45340D01*
X13412Y45241D01*
X13468Y45156D01*
X13511Y45114D01*
X13525Y45100D01*
X13666Y44973D01*
X13821Y44860D01*
X13976Y44762D01*
X14117Y44677D01*
X14258Y44621D01*
X14371Y44578D01*
X14441Y44550D01*
X14455Y44536D01*
X14469D01*
X14723Y44466D01*
X14991Y44409D01*
X15287Y44381D01*
X15569Y44353D01*
X15809Y44339D01*
X15921Y44325D01*
X16020D01*
X16090D01*
X16147D01*
X16189D01*
X16203D01*
X16598Y44339D01*
X16964Y44353D01*
X17261Y44395D01*
X17514Y44423D01*
X17726Y44466D01*
X17810Y44480D01*
X17867Y44508D01*
X17923Y44522D01*
X17965D01*
X17979Y44536D01*
X17994D01*
X18219Y44621D01*
X18416Y44691D01*
X18571Y44790D01*
X18698Y44860D01*
X18797Y44931D01*
X18868Y44987D01*
X18910Y45030D01*
X18924Y45044D01*
X19023Y45170D01*
X19107Y45297D01*
X19178Y45424D01*
X19234Y45551D01*
X19276Y45664D01*
X19305Y45749D01*
X19333Y45805D01*
Y45833D01*
X19361Y45988D01*
X19375Y46171D01*
X19403Y46369D01*
Y46566D01*
X19417Y46749D01*
Y48483D01*
D02*
G37*
%LPD*%
M02*
