M48
;Layer_Color=9474304
;FILE_FORMAT=4:4
METRIC,LZ
;TYPE=PLATED
T1F00S00C0.4000
T2F00S00C1.0000
T3F00S00C1.1000
%
T01
X0001625Y00075
X0002625
X0003125Y00085
X0002125
X0001625Y00095
X0002625
X0003125Y00105
X0002125
X0001625Y00115
X0002625
X0003125Y00125
X0002125
X0001625Y00135
X0002625
X0005625
X0006625
X0007625
X0008125Y00125
X0007125
X0006125
X0005125
X0005625Y00115
X0006625
X0007625
X0007125Y00105
X0006125
X0005125
X0005625Y00095
X0006625
X0007125Y00085
X0006125
X0005125
X0005625Y00075
X0006625
X0009875Y0008625
X0009875Y00106
X0010625Y00035
X0018375Y00075
X001925Y001
X0020125Y00125
X0014625Y00135
X0023625Y00095
Y00155
X0022625
X0018125Y00185
X0014375Y0018
Y0019375
X0010625Y00175
X0009625
X0008625
X0007625
X0006625
X0005625
X0006125Y00165
X0007125
X0008125
X0007625Y00155
X0006625
X0005625
X0006125Y00145
X0007125
X000825Y00147
X0009875Y0014625
X0005125Y00145
Y00165
X0003125
X0002125
X0001625Y00175
X0002625
Y00155
X0001625
X0002125Y00145
X0003125
T02
X0001605Y-00001
X0004145
X0006685
X0009225
X0011765
X0014305
X0016845
X0019385
X0021925
X0025Y000498
Y000752
Y001768
Y002022
X0021925Y00253
X0019385
X0016845
X0014305Y00252998
X0011765
X0009225
X0006685Y00253
X0004145
X0001605
T03
X0001605Y000244
X0004145
X0006685
X0009225
X0011765
X0014305
X0016845
X0019385
X0021925
X0022425Y000498
Y000752
Y001768
Y002022
X0021925Y002276
X0019385
X0016845
X0014305Y00227598
X0011765
X0009225
X0006685Y002276
X0004145
X0001605
M30
