G04*
G04 #@! TF.GenerationSoftware,Altium Limited,Altium Designer,22.1.2 (22)*
G04*
G04 Layer_Physical_Order=1*
G04 Layer_Color=255*
%FSLAX44Y44*%
%MOMM*%
G71*
G04*
G04 #@! TF.SameCoordinates,9297B7E3-83E3-42CA-A819-2C289E2C524A*
G04*
G04*
G04 #@! TF.FilePolarity,Positive*
G04*
G01*
G75*
%ADD22O,1.8000X3.5000*%
%ADD23O,2.5000X1.2000*%
%ADD24O,1.2000X2.5000*%
%ADD25O,3.5000X1.8000*%
%ADD26R,0.8500X0.8500*%
%ADD27R,2.4000X3.3000*%
%ADD28R,2.4000X1.0000*%
%ADD29C,0.7000*%
%ADD30C,1.5240*%
%ADD31C,1.8000*%
%ADD32C,0.8000*%
G36*
X95699Y226171D02*
X95640Y226098D01*
X95420Y225866D01*
X87878Y218276D01*
X81998Y222296D01*
X83161Y223509D01*
X84886Y225628D01*
X85447Y226535D01*
X85808Y227340D01*
X85968Y228044D01*
X85928Y228645D01*
X85687Y229145D01*
X85246Y229543D01*
X84604Y229840D01*
X95699Y226171D01*
D02*
G37*
G36*
X71857Y227006D02*
X72303Y227195D01*
X72481Y227144D01*
X72391Y226852D01*
X72034Y226320D01*
X71410Y225547D01*
X69357Y223279D01*
X64272Y218073D01*
X57847Y221546D01*
X59044Y222793D01*
X60788Y224932D01*
X61333Y225825D01*
X61662Y226598D01*
X61774Y227254D01*
X61669Y227792D01*
X61346Y228211D01*
X60807Y228512D01*
X60050Y228695D01*
X71857Y227006D01*
D02*
G37*
G36*
X225566Y228813D02*
X224975Y228522D01*
X224453Y228036D01*
X224002Y227357D01*
X223619Y226483D01*
X223306Y225415D01*
X223063Y224152D01*
X222889Y222696D01*
X222793Y221173D01*
X225550D01*
X225018Y220606D01*
X224542Y220004D01*
X224122Y219366D01*
X223758Y218693D01*
X223450Y217984D01*
X223198Y217240D01*
X223002Y216460D01*
X222862Y215645D01*
X222778Y214795D01*
X222750Y213909D01*
X215750D01*
X215722Y214795D01*
X215638Y215645D01*
X215498Y216460D01*
X215302Y217240D01*
X215050Y217984D01*
X214742Y218693D01*
X214378Y219366D01*
X213958Y220004D01*
X213482Y220606D01*
X212950Y221173D01*
X215704D01*
X215437Y224152D01*
X215194Y225415D01*
X214881Y226483D01*
X214499Y227357D01*
X214046Y228036D01*
X213525Y228522D01*
X212934Y228813D01*
X212274Y228910D01*
X226226D01*
X225566Y228813D01*
D02*
G37*
G36*
X149366Y228811D02*
X148775Y228520D01*
X148253Y228034D01*
X147802Y227355D01*
X147419Y226481D01*
X147106Y225413D01*
X146863Y224151D01*
X146689Y222694D01*
X146593Y221171D01*
X149350D01*
X148818Y220604D01*
X148342Y220002D01*
X147922Y219364D01*
X147558Y218691D01*
X147250Y217983D01*
X146998Y217239D01*
X146802Y216459D01*
X146662Y215644D01*
X146578Y214793D01*
X146550Y213907D01*
X139550D01*
X139522Y214793D01*
X139438Y215644D01*
X139298Y216459D01*
X139102Y217239D01*
X138850Y217983D01*
X138542Y218691D01*
X138178Y219364D01*
X137758Y220002D01*
X137282Y220604D01*
X136750Y221171D01*
X139504D01*
X139237Y224151D01*
X138994Y225413D01*
X138681Y226481D01*
X138299Y227355D01*
X137846Y228034D01*
X137325Y228520D01*
X136734Y228811D01*
X136074Y228908D01*
X150026D01*
X149366Y228811D01*
D02*
G37*
G36*
X201076Y222142D02*
X200730Y221460D01*
X200424Y220754D01*
X200160Y220023D01*
X199936Y219269D01*
X199752Y218491D01*
X199610Y217688D01*
X199508Y216861D01*
X199427Y215136D01*
X192427Y213313D01*
X192394Y214214D01*
X192298Y215060D01*
X192136Y215852D01*
X191911Y216591D01*
X191621Y217276D01*
X191266Y217907D01*
X190847Y218484D01*
X190364Y219007D01*
X189815Y219477D01*
X189203Y219893D01*
X201463Y222800D01*
X201076Y222142D01*
D02*
G37*
G36*
X159257Y210009D02*
X159509Y205764D01*
X159603Y205307D01*
X159711Y204981D01*
X159833Y204785D01*
X159970Y204720D01*
X151531D01*
X151667Y204785D01*
X151790Y204981D01*
X151897Y205307D01*
X151991Y205764D01*
X152070Y206352D01*
X152185Y207919D01*
X152250Y211250D01*
X159250D01*
X159257Y210009D01*
D02*
G37*
G36*
X222657Y211752D02*
X224284Y210389D01*
X224980Y209926D01*
X225595Y209607D01*
X226133Y209434D01*
X226590Y209406D01*
X226969Y209522D01*
X227269Y209785D01*
X227489Y210192D01*
X223173Y198751D01*
X222909Y199500D01*
X222561Y200282D01*
X222131Y201096D01*
X221616Y201942D01*
X220336Y203732D01*
X219571Y204676D01*
X216775Y207702D01*
X221725Y212652D01*
X222657Y211752D01*
D02*
G37*
G36*
X147320Y192990D02*
X147530Y192310D01*
X147880Y191710D01*
X148370Y191190D01*
X149000Y190750D01*
X149770Y190390D01*
X150680Y190110D01*
X151730Y189910D01*
X152920Y189790D01*
X154250Y189750D01*
X151131Y187670D01*
Y181381D01*
X151060Y181641D01*
X150850Y181873D01*
X150500Y182079D01*
X150010Y182257D01*
X149380Y182408D01*
X148610Y182531D01*
X147700Y182627D01*
X145460Y182736D01*
X144130Y182750D01*
Y183004D01*
X143750Y182750D01*
X142619Y182735D01*
X139713Y182512D01*
X138906Y182378D01*
X138179Y182215D01*
X137534Y182021D01*
X136969Y181798D01*
X136486Y181545D01*
X136083Y181263D01*
Y187862D01*
X133250Y189750D01*
X134580Y189790D01*
X135770Y189910D01*
X136083Y189970D01*
Y191238D01*
X136486Y190955D01*
X136969Y190702D01*
X137534Y190479D01*
X137769Y190408D01*
X138500Y190750D01*
X139130Y191190D01*
X139620Y191710D01*
X139970Y192310D01*
X140180Y192990D01*
X140250Y193750D01*
X147250D01*
X147320Y192990D01*
D02*
G37*
G36*
X221778Y187199D02*
X223992Y185379D01*
X224949Y184767D01*
X225807Y184353D01*
X226564Y184138D01*
X227222Y184121D01*
X227780Y184303D01*
X228238Y184682D01*
X228597Y185261D01*
X223173Y173351D01*
X222905Y174095D01*
X222535Y174891D01*
X222064Y175737D01*
X221493Y176634D01*
X220047Y178581D01*
X219172Y179631D01*
X215942Y183086D01*
X220522Y188406D01*
X221778Y187199D01*
D02*
G37*
G36*
X30355Y249666D02*
Y234500D01*
X30733Y231628D01*
X30973Y231050D01*
X30733Y230472D01*
X30355Y227600D01*
X30733Y224728D01*
X31841Y222052D01*
X33605Y219755D01*
X35903Y217992D01*
X38578Y216883D01*
X41450Y216505D01*
X44322Y216883D01*
X46997Y217992D01*
X49295Y219755D01*
X51058Y222052D01*
X52167Y224728D01*
X52545Y227600D01*
X52167Y230472D01*
X51927Y231050D01*
X52167Y231628D01*
X52545Y234500D01*
Y249666D01*
X55755D01*
Y234500D01*
X56133Y231628D01*
X56373Y231050D01*
X56133Y230472D01*
X55755Y227600D01*
X56133Y224728D01*
X56694Y223375D01*
X53241Y219922D01*
X52026Y218103D01*
X51599Y215957D01*
Y214265D01*
X50544Y213456D01*
X49262Y211784D01*
X48456Y209838D01*
X48181Y207750D01*
Y194750D01*
X48456Y192662D01*
X49262Y190716D01*
X50544Y189044D01*
X52215Y187762D01*
X54162Y186956D01*
X56250Y186681D01*
X58338Y186956D01*
X60285Y187762D01*
X61956Y189044D01*
X63238Y190716D01*
X64044Y192662D01*
X64319Y194750D01*
Y207750D01*
X64044Y209838D01*
X63238Y211784D01*
X62814Y212337D01*
Y213634D01*
X65821Y216641D01*
X66850Y216505D01*
X69722Y216883D01*
X72397Y217992D01*
X74629Y219704D01*
X75468Y218747D01*
X73241Y216520D01*
X72026Y214701D01*
X72000Y214573D01*
X70544Y213456D01*
X69262Y211784D01*
X68456Y209838D01*
X68181Y207750D01*
Y194750D01*
X68456Y192662D01*
X69262Y190716D01*
X70544Y189044D01*
X72215Y187762D01*
X74162Y186956D01*
X76250Y186681D01*
X78338Y186956D01*
X80285Y187762D01*
X81956Y189044D01*
X83238Y190716D01*
X84044Y192662D01*
X84319Y194750D01*
Y207750D01*
X84044Y209838D01*
X83569Y210986D01*
X89454Y216871D01*
X92250Y216503D01*
X93582Y216679D01*
X93914Y215441D01*
X92215Y214738D01*
X90544Y213456D01*
X89262Y211784D01*
X88456Y209838D01*
X88181Y207750D01*
Y194750D01*
X88456Y192662D01*
X89262Y190716D01*
X90544Y189044D01*
X92215Y187762D01*
X94162Y186956D01*
X96250Y186681D01*
X98338Y186956D01*
X100285Y187762D01*
X101956Y189044D01*
X103238Y190716D01*
X104044Y192662D01*
X104319Y194750D01*
Y195642D01*
X136250D01*
X136333Y195659D01*
X137441Y194694D01*
X137429Y194085D01*
X137418Y194043D01*
X136228Y193469D01*
X134838Y194044D01*
X132750Y194319D01*
X119750D01*
X117662Y194044D01*
X115716Y193238D01*
X114044Y191956D01*
X112762Y190285D01*
X111956Y188339D01*
X111681Y186250D01*
X111956Y184162D01*
X112762Y182215D01*
X114044Y180544D01*
X115716Y179262D01*
X117662Y178456D01*
X119750Y178181D01*
X132750D01*
X134838Y178456D01*
X136507Y179147D01*
X137419Y178857D01*
X137924Y178535D01*
X138098Y177659D01*
X139424Y175674D01*
X141409Y174348D01*
X143750Y173883D01*
X146091Y174348D01*
X147630Y175376D01*
X148900Y174796D01*
Y164350D01*
X161400D01*
Y176850D01*
X161058D01*
Y179350D01*
X161600D01*
Y191850D01*
X161058D01*
Y194250D01*
X162000D01*
Y204589D01*
X162006Y204612D01*
X162516Y205294D01*
X162824Y205642D01*
X173927D01*
X186892Y192677D01*
Y134823D01*
X183277Y131208D01*
X180150D01*
Y132600D01*
X152150D01*
Y118600D01*
X180150D01*
Y119992D01*
X185600D01*
X187746Y120419D01*
X189565Y121635D01*
X196465Y128535D01*
X197681Y130354D01*
X198108Y132500D01*
Y195000D01*
X197824Y196427D01*
X198994Y197053D01*
X214366Y181682D01*
X213533Y179672D01*
X213155Y176800D01*
X213533Y173928D01*
X214641Y171252D01*
X216405Y168955D01*
X218703Y167192D01*
X221378Y166083D01*
X224250Y165705D01*
X227122Y166083D01*
X227875Y166395D01*
X228628Y166083D01*
X231500Y165705D01*
X246416D01*
Y86295D01*
X231500D01*
X228628Y85917D01*
X227875Y85605D01*
X227122Y85917D01*
X224250Y86295D01*
X221378Y85917D01*
X218703Y84809D01*
X216405Y83045D01*
X214688Y80808D01*
X202873D01*
X180150Y103531D01*
Y109600D01*
X152150D01*
Y103531D01*
X151185Y102565D01*
X149969Y100746D01*
X149542Y98600D01*
Y86850D01*
X148900D01*
Y74350D01*
X149542D01*
Y70850D01*
X148900D01*
Y59827D01*
X147630Y59301D01*
X140803Y66128D01*
X140819Y66250D01*
X140544Y68338D01*
X139738Y70285D01*
X138456Y71956D01*
X136784Y73238D01*
X134838Y74044D01*
X132750Y74319D01*
X119750D01*
X117662Y74044D01*
X115716Y73238D01*
X114044Y71956D01*
X112762Y70285D01*
X111956Y68338D01*
X111681Y66250D01*
X111956Y64162D01*
X112762Y62215D01*
X114044Y60544D01*
X115716Y59262D01*
X117662Y58456D01*
X119750Y58181D01*
X132750D01*
X132872Y58197D01*
X159832Y31238D01*
X158841Y29948D01*
X157733Y27272D01*
X157355Y24400D01*
X157733Y21528D01*
X157973Y20950D01*
X157733Y20372D01*
X157355Y17500D01*
Y2334D01*
X154145D01*
Y17500D01*
X153767Y20372D01*
X153527Y20950D01*
X153767Y21528D01*
X154145Y24400D01*
X153767Y27272D01*
X152659Y29948D01*
X150895Y32245D01*
X148597Y34009D01*
X145922Y35117D01*
X143050Y35495D01*
X140254Y35127D01*
X120165Y55215D01*
X118346Y56431D01*
X116200Y56858D01*
X104319D01*
Y57750D01*
X104044Y59838D01*
X103238Y61785D01*
X101956Y63456D01*
X100285Y64738D01*
X98338Y65544D01*
X96250Y65819D01*
X94162Y65544D01*
X92215Y64738D01*
X90544Y63456D01*
X89262Y61785D01*
X88456Y59838D01*
X88181Y57750D01*
Y44750D01*
X88456Y42662D01*
X89262Y40715D01*
X90544Y39044D01*
X92215Y37762D01*
X94162Y36956D01*
X96250Y36681D01*
X98338Y36956D01*
X100285Y37762D01*
X101956Y39044D01*
X103238Y40715D01*
X104044Y42662D01*
X104319Y44750D01*
Y45642D01*
X113877D01*
X126261Y33259D01*
X125422Y32302D01*
X123197Y34009D01*
X120522Y35117D01*
X117650Y35495D01*
X114778Y35117D01*
X112102Y34009D01*
X109805Y32245D01*
X108041Y29948D01*
X106933Y27272D01*
X106555Y24400D01*
X106933Y21528D01*
X107173Y20950D01*
X106933Y20372D01*
X106555Y17500D01*
Y2334D01*
X103345D01*
Y17500D01*
X102967Y20372D01*
X102727Y20950D01*
X102967Y21528D01*
X103345Y24400D01*
X102967Y27272D01*
X101859Y29948D01*
X100095Y32245D01*
X97797Y34009D01*
X95122Y35117D01*
X92250Y35495D01*
X89454Y35127D01*
X83422Y41159D01*
X84044Y42662D01*
X84319Y44750D01*
Y57750D01*
X84044Y59838D01*
X83238Y61785D01*
X81956Y63456D01*
X80285Y64738D01*
X78338Y65544D01*
X76250Y65819D01*
X74162Y65544D01*
X72215Y64738D01*
X70544Y63456D01*
X69262Y61785D01*
X68456Y59838D01*
X68181Y57750D01*
Y44750D01*
X68456Y42662D01*
X69262Y40715D01*
X70544Y39044D01*
X71883Y38017D01*
X72026Y37297D01*
X73241Y35478D01*
X75461Y33259D01*
X74622Y32302D01*
X72397Y34009D01*
X69722Y35117D01*
X66850Y35495D01*
X64054Y35127D01*
X62814Y36366D01*
Y40163D01*
X63238Y40715D01*
X64044Y42662D01*
X64319Y44750D01*
Y57750D01*
X64044Y59838D01*
X63238Y61785D01*
X61956Y63456D01*
X60285Y64738D01*
X58338Y65544D01*
X56250Y65819D01*
X54162Y65544D01*
X52215Y64738D01*
X50544Y63456D01*
X49262Y61785D01*
X48456Y59838D01*
X48181Y57750D01*
Y44750D01*
X48456Y42662D01*
X49262Y40715D01*
X50544Y39044D01*
X51599Y38235D01*
Y34043D01*
X52026Y31897D01*
X53241Y30078D01*
X56123Y27196D01*
X55755Y24400D01*
X56133Y21528D01*
X56373Y20950D01*
X56133Y20372D01*
X55755Y17500D01*
Y2334D01*
X52545D01*
Y17500D01*
X52167Y20372D01*
X51927Y20950D01*
X52167Y21528D01*
X52545Y24400D01*
X52167Y27272D01*
X51059Y29948D01*
X49295Y32245D01*
X46997Y34009D01*
X44322Y35117D01*
X42814Y35315D01*
Y40163D01*
X43238Y40715D01*
X44044Y42662D01*
X44319Y44750D01*
Y57750D01*
X44044Y59838D01*
X43238Y61785D01*
X41956Y63456D01*
X40285Y64738D01*
X38338Y65544D01*
X36250Y65819D01*
X34162Y65544D01*
X32215Y64738D01*
X30544Y63456D01*
X29262Y61785D01*
X28456Y59838D01*
X28181Y57750D01*
Y44750D01*
X28456Y42662D01*
X29262Y40715D01*
X30544Y39044D01*
X31599Y38235D01*
Y31620D01*
X31913Y30041D01*
X31841Y29948D01*
X30733Y27272D01*
X30355Y24400D01*
X30733Y21528D01*
X30973Y20950D01*
X30733Y20372D01*
X30355Y17500D01*
Y2334D01*
X6250D01*
X6231Y2330D01*
X4844Y2606D01*
X3652Y3402D01*
X2856Y4594D01*
X2580Y5981D01*
X2584Y6000D01*
Y246000D01*
X2580Y246019D01*
X2856Y247406D01*
X3652Y248598D01*
X4844Y249394D01*
X5074Y249440D01*
X6250Y249666D01*
Y249666D01*
X6250Y249666D01*
X30355D01*
D02*
G37*
G36*
X225910Y68224D02*
X225813Y68884D01*
X225522Y69475D01*
X225036Y69997D01*
X224357Y70448D01*
X223483Y70831D01*
X222415Y71144D01*
X221152Y71387D01*
X219696Y71561D01*
X218045Y71665D01*
X216200Y71700D01*
Y78700D01*
X218045Y78735D01*
X221152Y79013D01*
X222415Y79256D01*
X223483Y79569D01*
X224357Y79952D01*
X225036Y80403D01*
X225522Y80925D01*
X225813Y81516D01*
X225910Y82176D01*
Y68224D01*
D02*
G37*
G36*
X146499Y25827D02*
X135404Y22159D01*
X136046Y22455D01*
X136487Y22853D01*
X136728Y23353D01*
X136768Y23955D01*
X136608Y24658D01*
X136247Y25463D01*
X135686Y26370D01*
X134924Y27379D01*
X133961Y28490D01*
X132798Y29702D01*
X138678Y33722D01*
X146499Y25827D01*
D02*
G37*
G36*
X95699D02*
X84604Y22159D01*
X85246Y22455D01*
X85687Y22853D01*
X85928Y23353D01*
X85968Y23955D01*
X85808Y24658D01*
X85447Y25463D01*
X84886Y26370D01*
X84124Y27379D01*
X83161Y28490D01*
X81998Y29702D01*
X87878Y33722D01*
X95699Y25827D01*
D02*
G37*
G36*
X70299D02*
X59204Y22159D01*
X59846Y22455D01*
X60287Y22853D01*
X60528Y23353D01*
X60568Y23955D01*
X60408Y24658D01*
X60047Y25463D01*
X59486Y26370D01*
X58724Y27379D01*
X57761Y28490D01*
X56598Y29702D01*
X62478Y33722D01*
X70299Y25827D01*
D02*
G37*
G36*
X196585Y71235D02*
X198404Y70019D01*
X200550Y69592D01*
X214688D01*
X216405Y67355D01*
X218703Y65592D01*
X221378Y64483D01*
X224250Y64105D01*
X227122Y64483D01*
X227875Y64795D01*
X228628Y64483D01*
X231500Y64105D01*
X246416D01*
Y6000D01*
X246420Y5981D01*
X246144Y4594D01*
X245348Y3402D01*
X244156Y2606D01*
X243920Y2559D01*
X242750Y2334D01*
X242750D01*
X242675Y2334D01*
X241495Y2334D01*
X230345D01*
Y17500D01*
X229967Y20372D01*
X229727Y20950D01*
X229967Y21528D01*
X230345Y24400D01*
X229967Y27272D01*
X228859Y29948D01*
X227095Y32245D01*
X224797Y34009D01*
X222122Y35117D01*
X219250Y35495D01*
X216378Y35117D01*
X213703Y34009D01*
X211405Y32245D01*
X209641Y29948D01*
X208533Y27272D01*
X208155Y24400D01*
X208533Y21528D01*
X208773Y20950D01*
X208533Y20372D01*
X208155Y17500D01*
Y2334D01*
X204945D01*
Y17500D01*
X204567Y20372D01*
X204327Y20950D01*
X204567Y21528D01*
X204945Y24400D01*
X204567Y27272D01*
X203458Y29948D01*
X201695Y32245D01*
X199398Y34009D01*
X196722Y35117D01*
X193850Y35495D01*
X190978Y35117D01*
X188302Y34009D01*
X186005Y32245D01*
X184242Y29948D01*
X183133Y27272D01*
X182755Y24400D01*
X183133Y21528D01*
X183373Y20950D01*
X183133Y20372D01*
X182755Y17500D01*
Y2334D01*
X179545D01*
Y17500D01*
X179167Y20372D01*
X178927Y20950D01*
X179167Y21528D01*
X179545Y24400D01*
X179167Y27272D01*
X178058Y29948D01*
X176295Y32245D01*
X173997Y34009D01*
X171322Y35117D01*
X171314Y35118D01*
X170310Y36620D01*
X149851Y57080D01*
X150377Y58350D01*
X161400D01*
Y70850D01*
X160758D01*
Y74350D01*
X161400D01*
Y86850D01*
X160758D01*
Y95600D01*
X172219D01*
X196585Y71235D01*
D02*
G37*
%LPC*%
G36*
X132750Y154319D02*
X119750D01*
X117662Y154044D01*
X115716Y153238D01*
X114044Y151956D01*
X113969Y151858D01*
X101157D01*
X101091Y151902D01*
X98750Y152368D01*
X96409Y151902D01*
X94424Y150576D01*
X93098Y148591D01*
X92690Y146537D01*
X91500Y145931D01*
X88167Y149263D01*
X88152Y149341D01*
X86826Y151326D01*
X84841Y152652D01*
X82500Y153118D01*
X80159Y152652D01*
X78174Y151326D01*
X76848Y149341D01*
X76382Y147000D01*
X76848Y144659D01*
X78174Y142674D01*
X80159Y141348D01*
X80237Y141333D01*
X99285Y122285D01*
X101104Y121069D01*
X103250Y120642D01*
X113969D01*
X114044Y120544D01*
X115716Y119262D01*
X117662Y118456D01*
X119750Y118181D01*
X132750D01*
X134838Y118456D01*
X136784Y119262D01*
X138456Y120544D01*
X139738Y122215D01*
X140544Y124162D01*
X140819Y126250D01*
X140544Y128338D01*
X139738Y130285D01*
X138456Y131956D01*
X136784Y133238D01*
X134838Y134044D01*
X132750Y134319D01*
X119750D01*
X117662Y134044D01*
X115716Y133238D01*
X114044Y131956D01*
X113969Y131858D01*
X105573D01*
X98431Y139000D01*
X99037Y140190D01*
X101091Y140598D01*
X101157Y140642D01*
X113969D01*
X114044Y140544D01*
X115716Y139262D01*
X117662Y138456D01*
X119750Y138181D01*
X132750D01*
X134838Y138456D01*
X136784Y139262D01*
X138456Y140544D01*
X139738Y142215D01*
X140544Y144162D01*
X140819Y146250D01*
X140544Y148338D01*
X139738Y150285D01*
X138456Y151956D01*
X136784Y153238D01*
X134838Y154044D01*
X132750Y154319D01*
D02*
G37*
G36*
Y114319D02*
X119750D01*
X117662Y114044D01*
X115716Y113238D01*
X114044Y111956D01*
X113873Y111733D01*
X100684D01*
X98750Y112118D01*
X96409Y111652D01*
X94424Y110326D01*
X93098Y108341D01*
X92633Y106000D01*
X93098Y103659D01*
X94424Y101674D01*
X96409Y100348D01*
X98750Y99882D01*
X101091Y100348D01*
X101344Y100517D01*
X114080D01*
X115716Y99262D01*
X117662Y98456D01*
X119750Y98181D01*
X132750D01*
X134838Y98456D01*
X136784Y99262D01*
X138456Y100544D01*
X139738Y102215D01*
X140544Y104162D01*
X140819Y106250D01*
X140544Y108338D01*
X139738Y110285D01*
X138456Y111956D01*
X136784Y113238D01*
X134838Y114044D01*
X132750Y114319D01*
D02*
G37*
G36*
X238150Y144100D02*
X210150D01*
Y107100D01*
X238150D01*
Y144100D01*
D02*
G37*
G36*
X132750Y94319D02*
X119750D01*
X117662Y94044D01*
X115716Y93238D01*
X114044Y91956D01*
X113969Y91858D01*
X101157D01*
X101091Y91902D01*
X98750Y92367D01*
X96409Y91902D01*
X94424Y90576D01*
X93098Y88591D01*
X92633Y86250D01*
X93098Y83909D01*
X94424Y81924D01*
X96409Y80598D01*
X98750Y80133D01*
X101091Y80598D01*
X101157Y80642D01*
X113969D01*
X114044Y80544D01*
X115716Y79262D01*
X117662Y78456D01*
X119750Y78181D01*
X132750D01*
X134838Y78456D01*
X136784Y79262D01*
X138456Y80544D01*
X139738Y82215D01*
X140544Y84162D01*
X140819Y86250D01*
X140544Y88338D01*
X139738Y90285D01*
X138456Y91956D01*
X136784Y93238D01*
X134838Y94044D01*
X132750Y94319D01*
D02*
G37*
%LPD*%
D22*
X168450Y243000D02*
D03*
X143050Y242998D02*
D03*
X92250D02*
D03*
X117650D02*
D03*
X168450Y9000D02*
D03*
X92250D02*
D03*
X66850D02*
D03*
X143050D02*
D03*
X117650D02*
D03*
X41450D02*
D03*
X16050D02*
D03*
X219250D02*
D03*
X193850D02*
D03*
X219250Y243000D02*
D03*
X193850D02*
D03*
X41450D02*
D03*
X66850D02*
D03*
X16050D02*
D03*
D23*
X126250Y186250D02*
D03*
Y166250D02*
D03*
Y66250D02*
D03*
Y106250D02*
D03*
Y86250D02*
D03*
Y146250D02*
D03*
Y126250D02*
D03*
D24*
X96250Y201250D02*
D03*
X56250D02*
D03*
X76250D02*
D03*
X16250D02*
D03*
X36250D02*
D03*
X96250Y51250D02*
D03*
X56250D02*
D03*
X76250D02*
D03*
X16250D02*
D03*
X36250D02*
D03*
D25*
X240000Y176800D02*
D03*
Y49800D02*
D03*
Y75200D02*
D03*
Y202200D02*
D03*
D26*
X169150Y64600D02*
D03*
X155150D02*
D03*
X169150Y80600D02*
D03*
X155150D02*
D03*
X169350Y185600D02*
D03*
X155350D02*
D03*
X169150Y170600D02*
D03*
X155150D02*
D03*
X169750Y200500D02*
D03*
X155750D02*
D03*
D27*
X224150Y125600D02*
D03*
D28*
X166150Y102600D02*
D03*
Y125600D02*
D03*
Y148600D02*
D03*
D29*
X143750Y186250D02*
X154700D01*
X126250D02*
X143750D01*
Y193750D01*
Y180000D02*
Y186250D01*
X154700D02*
X155350Y185600D01*
X155450Y170900D02*
Y200200D01*
X136250Y201250D02*
X143050Y208050D01*
Y227598D01*
X96250Y201250D02*
X136250D01*
X224250Y202200D02*
Y205177D01*
X219250Y210177D02*
Y227600D01*
X64750Y166250D02*
X134103D01*
X36250Y194750D02*
X64750Y166250D01*
X82500Y147000D02*
X103250Y126250D01*
X126250D01*
X183750Y113750D02*
X192309Y105191D01*
X147500Y117851D02*
Y147347D01*
X151601Y113750D02*
X183750D01*
X147500Y117851D02*
X151601Y113750D01*
X168500Y158750D02*
X169150Y159400D01*
X169750Y170600D02*
Y200500D01*
X169150Y159400D02*
Y170600D01*
Y150100D02*
Y159400D01*
X166150Y148600D02*
X167650D01*
X169150Y150100D01*
X141603Y158750D02*
X168500D01*
X134103Y166250D02*
X141603Y158750D01*
X148753Y148600D02*
X166150D01*
X6020Y60000D02*
Y183167D01*
X18125Y200815D02*
X18560Y201250D01*
X16250Y197500D02*
X18125Y199375D01*
X16250Y193397D02*
Y197500D01*
X18560Y201250D02*
X36250D01*
X18125Y199375D02*
Y200815D01*
X36250Y194750D02*
Y201250D01*
X6020Y183167D02*
X16250Y193397D01*
X16150Y24500D02*
Y56497D01*
X7313Y58707D02*
X13940D01*
X6020Y60000D02*
X7313Y58707D01*
X13940D02*
X16150Y56497D01*
X76250Y201250D02*
X77207Y202207D01*
Y212555D01*
X92250Y227598D01*
X155750Y200500D02*
Y211250D01*
X176250D02*
X192500Y195000D01*
X155750Y211250D02*
X176250D01*
X155750D02*
Y214898D01*
X192500Y132500D02*
Y195000D01*
X224250Y176800D02*
Y179728D01*
X195927Y208051D02*
X224250Y179728D01*
X195927Y208051D02*
Y225523D01*
X193850Y227600D02*
X195927Y225523D01*
X219250Y210177D02*
X224250Y205177D01*
X185600Y125600D02*
X192500Y132500D01*
X147500Y147347D02*
X148753Y148600D01*
X192309Y100191D02*
Y105191D01*
Y100191D02*
X192500Y100000D01*
X173150Y102600D02*
X200550Y75200D01*
X166150Y102600D02*
X173150D01*
X159150D02*
X166150D01*
X169900Y79850D02*
X178900D01*
X183750Y75000D01*
X169150Y80600D02*
X169900Y79850D01*
X166150Y125600D02*
X185600D01*
X98875Y106125D02*
X126125D01*
X98750Y106000D02*
X98875Y106125D01*
X98750Y146250D02*
X98750Y146250D01*
X126250D01*
X126125Y106125D02*
X126250Y106250D01*
X200550Y75200D02*
X224250D01*
X155150Y170600D02*
X155450Y170900D01*
X169150Y64600D02*
X183950Y49800D01*
X224250D01*
X169150Y64600D02*
Y80600D01*
X155150D02*
Y98600D01*
X159150Y102600D01*
X155150Y64600D02*
Y80600D01*
X98750Y86250D02*
X126250D01*
X98750Y86250D02*
X98750Y86250D01*
X66850Y225600D02*
Y227600D01*
X57207Y215957D02*
X66850Y225600D01*
X56250Y201250D02*
X57207Y202207D01*
Y215957D01*
X16150Y201350D02*
Y227500D01*
Y201350D02*
X16250Y201250D01*
X16050Y227600D02*
X16150Y227500D01*
X132750Y66250D02*
X166345Y32655D01*
Y26505D02*
Y32655D01*
Y26505D02*
X168450Y24400D01*
X126250Y66250D02*
X132750D01*
X116200Y51250D02*
X143050Y24400D01*
X96250Y51250D02*
X116200D01*
X77207Y39443D02*
X92250Y24400D01*
X76250Y51250D02*
X77207Y50293D01*
Y39443D02*
Y50293D01*
X57207Y34043D02*
X66850Y24400D01*
X56250Y51250D02*
X57207Y50293D01*
Y34043D02*
Y50293D01*
X37207Y31620D02*
Y50293D01*
X36250Y51250D02*
X37207Y50293D01*
Y31620D02*
X41450Y27377D01*
Y24400D02*
Y27377D01*
X16050Y24400D02*
X16150Y24500D01*
D30*
X168450Y253000D02*
D03*
X92250Y252998D02*
D03*
X117650D02*
D03*
X143050D02*
D03*
X250000Y176800D02*
D03*
Y49800D02*
D03*
Y75200D02*
D03*
Y202200D02*
D03*
X219250Y-1000D02*
D03*
X168450D02*
D03*
X143050D02*
D03*
X117650D02*
D03*
X193850D02*
D03*
X16050D02*
D03*
X41450D02*
D03*
X66850D02*
D03*
X92250D02*
D03*
X219250Y253000D02*
D03*
X193850D02*
D03*
X41450D02*
D03*
X66850D02*
D03*
X16050D02*
D03*
D31*
X168450Y227600D02*
D03*
X193850D02*
D03*
X219250D02*
D03*
X92250Y227598D02*
D03*
X117650D02*
D03*
X143050D02*
D03*
X224250Y176800D02*
D03*
Y202200D02*
D03*
X219250Y24400D02*
D03*
X193850D02*
D03*
X168450D02*
D03*
X143050D02*
D03*
X117650D02*
D03*
X92250D02*
D03*
X66850D02*
D03*
X41450D02*
D03*
X16050D02*
D03*
X224250Y49800D02*
D03*
Y75200D02*
D03*
X66850Y227600D02*
D03*
X41450D02*
D03*
X16050D02*
D03*
D32*
X143750Y193750D02*
D03*
Y180000D02*
D03*
X181250Y185000D02*
D03*
X106250Y175000D02*
D03*
X236250Y155000D02*
D03*
Y95000D02*
D03*
X226250Y155000D02*
D03*
X201250Y125000D02*
D03*
X146250Y135000D02*
D03*
X106250Y35000D02*
D03*
X96250Y175000D02*
D03*
X86250D02*
D03*
X76250D02*
D03*
X81250Y165000D02*
D03*
X76250Y155000D02*
D03*
Y135000D02*
D03*
X81250Y125000D02*
D03*
X76250Y115000D02*
D03*
X66250Y175000D02*
D03*
X71250Y165000D02*
D03*
X66250Y155000D02*
D03*
X71250Y145000D02*
D03*
X66250Y135000D02*
D03*
X71250Y125000D02*
D03*
X66250Y115000D02*
D03*
X71250Y105000D02*
D03*
X66250Y95000D02*
D03*
X71250Y85000D02*
D03*
X66250Y75000D02*
D03*
X56250Y175000D02*
D03*
X61250Y165000D02*
D03*
X56250Y155000D02*
D03*
X61250Y145000D02*
D03*
X56250Y135000D02*
D03*
X61250Y125000D02*
D03*
X56250Y115000D02*
D03*
X61250Y105000D02*
D03*
X56250Y95000D02*
D03*
X61250Y85000D02*
D03*
X56250Y75000D02*
D03*
X51250Y165000D02*
D03*
Y145000D02*
D03*
Y125000D02*
D03*
Y105000D02*
D03*
Y85000D02*
D03*
X26250Y175000D02*
D03*
X31250Y165000D02*
D03*
X26250Y155000D02*
D03*
X31250Y145000D02*
D03*
X26250Y135000D02*
D03*
X31250Y125000D02*
D03*
X26250Y115000D02*
D03*
X31250Y105000D02*
D03*
X26250Y95000D02*
D03*
X31250Y85000D02*
D03*
X26250Y75000D02*
D03*
X16250Y175000D02*
D03*
X21250Y165000D02*
D03*
X16250Y155000D02*
D03*
X21250Y145000D02*
D03*
X16250Y135000D02*
D03*
X21250Y125000D02*
D03*
X16250Y115000D02*
D03*
X21250Y105000D02*
D03*
X16250Y95000D02*
D03*
X21250Y85000D02*
D03*
X16250Y75000D02*
D03*
X192500Y100000D02*
D03*
X183750Y75000D02*
D03*
X82500Y147000D02*
D03*
X98750Y106000D02*
D03*
Y146250D02*
D03*
X98750Y86250D02*
D03*
M02*
