M48
;Layer_Color=9474304
;FILE_FORMAT=4:4
METRIC,LZ
;TYPE=PLATED
T1F00S00C0.4000
T3F00S00C0.6000
T4F00S00C1.1000
%
T01
X000425Y0001125
X000725Y-0000875
X00111233Y00000158
X0018125Y-0002375
X0021875Y-0000625
X0021Y0001875
Y0002625
X00198155Y00052063
X00185Y000625
X0017125Y0006375
X001425Y0005125
X0009875Y00065
X0009125Y00045
X0005875Y0004625
Y0005625
Y0006625
Y0003625
X000325Y0003125
X000425Y0005125
X000325Y0007125
X000425Y0009125
X000725Y0011125
X001125
X001325
X001525
X001725
X0020625Y0009375
X0026125Y001075
X002725Y0011125
X002875Y001225
X001225Y0009125
X001025
X000125Y0007125
X000225Y0005125
X000125Y0003125
T03
X0006375Y0002235
Y0008015
T04
X0033125Y-0001225
Y0001315
Y0003855
Y0006395
Y0008935
Y0011475
M30
