G04*
G04 #@! TF.GenerationSoftware,Altium Limited,Altium Designer,22.1.2 (22)*
G04*
G04 Layer_Color=65535*
%FSLAX44Y44*%
%MOMM*%
G71*
G04*
G04 #@! TF.SameCoordinates,3CBB6683-9870-4264-921C-6CE77DAC6C85*
G04*
G04*
G04 #@! TF.FilePolarity,Positive*
G04*
G01*
G75*
%ADD10C,0.2000*%
%ADD11C,0.2500*%
%ADD12C,0.1270*%
G36*
X308875Y110925D02*
X307377D01*
X304202Y116097D01*
Y110925D01*
X302771D01*
Y118606D01*
X304324D01*
X307444Y113544D01*
Y118606D01*
X308875D01*
Y110925D01*
D02*
G37*
G36*
X313804Y118739D02*
X313915D01*
X314037Y118728D01*
X314170Y118706D01*
X314325Y118683D01*
X314647Y118628D01*
X315002Y118539D01*
X315369Y118417D01*
X315535Y118339D01*
X315713Y118251D01*
X315724Y118239D01*
X315746Y118228D01*
X315802Y118195D01*
X315857Y118151D01*
X315935Y118106D01*
X316013Y118040D01*
X316112Y117962D01*
X316212Y117873D01*
X316434Y117673D01*
X316656Y117418D01*
X316867Y117129D01*
X317056Y116796D01*
Y116785D01*
X317078Y116752D01*
X317100Y116697D01*
X317123Y116630D01*
X317156Y116541D01*
X317200Y116441D01*
X317234Y116319D01*
X317278Y116186D01*
X317322Y116042D01*
X317356Y115875D01*
X317433Y115531D01*
X317478Y115154D01*
X317500Y114743D01*
Y114732D01*
Y114688D01*
Y114621D01*
X317489Y114543D01*
Y114432D01*
X317478Y114310D01*
X317456Y114177D01*
X317433Y114022D01*
X317378Y113700D01*
X317289Y113333D01*
X317167Y112967D01*
X317089Y112789D01*
X317001Y112612D01*
X316989Y112601D01*
X316978Y112567D01*
X316945Y112523D01*
X316912Y112456D01*
X316856Y112379D01*
X316790Y112290D01*
X316712Y112190D01*
X316634Y112079D01*
X316534Y111968D01*
X316423Y111846D01*
X316301Y111724D01*
X316168Y111602D01*
X316024Y111491D01*
X315879Y111369D01*
X315535Y111169D01*
X315524D01*
X315502Y111147D01*
X315458Y111136D01*
X315402Y111102D01*
X315324Y111080D01*
X315247Y111047D01*
X315136Y111013D01*
X315025Y110969D01*
X314903Y110936D01*
X314758Y110902D01*
X314603Y110869D01*
X314447Y110836D01*
X314092Y110791D01*
X313693Y110780D01*
X313559D01*
X313460Y110791D01*
X313337Y110802D01*
X313193Y110814D01*
X313038Y110825D01*
X312871Y110858D01*
X312516Y110925D01*
X312150Y111036D01*
X311961Y111102D01*
X311784Y111180D01*
X311617Y111269D01*
X311462Y111380D01*
X311451Y111391D01*
X311428Y111402D01*
X311384Y111446D01*
X311329Y111491D01*
X311262Y111546D01*
X311195Y111624D01*
X311118Y111713D01*
X311029Y111813D01*
X310940Y111924D01*
X310851Y112046D01*
X310762Y112179D01*
X310685Y112334D01*
X310596Y112490D01*
X310529Y112656D01*
X310463Y112845D01*
X310418Y113034D01*
X311961Y113322D01*
Y113311D01*
X311972Y113300D01*
X311994Y113233D01*
X312039Y113133D01*
X312105Y113000D01*
X312183Y112856D01*
X312294Y112712D01*
X312427Y112567D01*
X312583Y112434D01*
X312605Y112423D01*
X312660Y112379D01*
X312760Y112323D01*
X312882Y112268D01*
X313049Y112201D01*
X313238Y112157D01*
X313449Y112112D01*
X313693Y112101D01*
X313793D01*
X313859Y112112D01*
X313948Y112123D01*
X314048Y112135D01*
X314159Y112157D01*
X314281Y112179D01*
X314536Y112257D01*
X314669Y112312D01*
X314803Y112379D01*
X314936Y112456D01*
X315069Y112534D01*
X315191Y112645D01*
X315313Y112756D01*
X315324Y112767D01*
X315336Y112789D01*
X315369Y112823D01*
X315402Y112878D01*
X315446Y112945D01*
X315502Y113022D01*
X315557Y113122D01*
X315602Y113233D01*
X315657Y113367D01*
X315713Y113511D01*
X315768Y113666D01*
X315813Y113833D01*
X315846Y114022D01*
X315879Y114232D01*
X315891Y114443D01*
X315902Y114676D01*
Y114688D01*
Y114732D01*
Y114810D01*
X315891Y114898D01*
X315879Y115021D01*
X315868Y115143D01*
X315846Y115298D01*
X315824Y115453D01*
X315757Y115786D01*
X315646Y116131D01*
X315580Y116297D01*
X315502Y116452D01*
X315402Y116608D01*
X315302Y116741D01*
X315291Y116752D01*
X315269Y116774D01*
X315236Y116807D01*
X315191Y116852D01*
X315125Y116896D01*
X315058Y116963D01*
X314969Y117018D01*
X314869Y117085D01*
X314758Y117152D01*
X314647Y117207D01*
X314370Y117318D01*
X314214Y117362D01*
X314059Y117396D01*
X313881Y117418D01*
X313704Y117429D01*
X313615D01*
X313526Y117418D01*
X313393Y117407D01*
X313249Y117385D01*
X313082Y117351D01*
X312905Y117307D01*
X312727Y117240D01*
X312716D01*
X312705Y117229D01*
X312649Y117207D01*
X312549Y117163D01*
X312438Y117107D01*
X312305Y117041D01*
X312161Y116963D01*
X312017Y116874D01*
X311884Y116774D01*
Y115786D01*
X313659D01*
Y114488D01*
X310318D01*
Y117573D01*
X310341Y117596D01*
X310374Y117618D01*
X310407Y117651D01*
X310463Y117696D01*
X310518Y117740D01*
X310674Y117851D01*
X310884Y117973D01*
X311129Y118117D01*
X311406Y118262D01*
X311739Y118395D01*
X311750D01*
X311784Y118406D01*
X311828Y118428D01*
X311895Y118450D01*
X311983Y118472D01*
X312083Y118506D01*
X312194Y118539D01*
X312316Y118572D01*
X312594Y118639D01*
X312916Y118694D01*
X313249Y118739D01*
X313604Y118750D01*
X313726D01*
X313804Y118739D01*
D02*
G37*
G36*
X301128Y110925D02*
X298064D01*
X297975Y110936D01*
X297764Y110947D01*
X297531Y110958D01*
X297287Y110991D01*
X297054Y111025D01*
X296843Y111080D01*
X296832D01*
X296810Y111091D01*
X296777Y111102D01*
X296732Y111113D01*
X296599Y111169D01*
X296444Y111247D01*
X296266Y111346D01*
X296066Y111468D01*
X295877Y111613D01*
X295689Y111790D01*
X295678D01*
X295667Y111813D01*
X295611Y111879D01*
X295522Y111990D01*
X295422Y112135D01*
X295300Y112312D01*
X295178Y112523D01*
X295056Y112767D01*
X294956Y113034D01*
Y113045D01*
X294945Y113067D01*
X294934Y113111D01*
X294912Y113167D01*
X294901Y113233D01*
X294879Y113322D01*
X294856Y113422D01*
X294823Y113533D01*
X294801Y113655D01*
X294779Y113799D01*
X294757Y113944D01*
X294745Y114110D01*
X294712Y114454D01*
X294701Y114843D01*
Y114854D01*
Y114887D01*
Y114932D01*
Y114998D01*
X294712Y115087D01*
Y115176D01*
X294723Y115287D01*
X294734Y115409D01*
X294757Y115664D01*
X294801Y115931D01*
X294867Y116208D01*
X294945Y116475D01*
Y116486D01*
X294956Y116508D01*
X294979Y116552D01*
X295001Y116619D01*
X295023Y116685D01*
X295067Y116763D01*
X295156Y116963D01*
X295267Y117174D01*
X295411Y117407D01*
X295578Y117629D01*
X295767Y117840D01*
X295789Y117862D01*
X295844Y117906D01*
X295933Y117973D01*
X296055Y118062D01*
X296210Y118162D01*
X296388Y118262D01*
X296610Y118362D01*
X296854Y118450D01*
X296865D01*
X296877Y118461D01*
X296910D01*
X296943Y118472D01*
X297065Y118495D01*
X297221Y118528D01*
X297409Y118561D01*
X297642Y118583D01*
X297920Y118595D01*
X298220Y118606D01*
X301128D01*
Y110925D01*
D02*
G37*
G36*
X305994Y93739D02*
X306116Y93728D01*
X306249Y93717D01*
X306404Y93694D01*
X306571Y93661D01*
X306937Y93583D01*
X307126Y93528D01*
X307304Y93472D01*
X307492Y93395D01*
X307670Y93306D01*
X307836Y93206D01*
X307992Y93084D01*
X308003Y93073D01*
X308025Y93051D01*
X308069Y93017D01*
X308114Y92962D01*
X308180Y92884D01*
X308247Y92795D01*
X308325Y92696D01*
X308402Y92584D01*
X308480Y92451D01*
X308558Y92307D01*
X308636Y92141D01*
X308713Y91963D01*
X308769Y91774D01*
X308835Y91563D01*
X308880Y91341D01*
X308913Y91108D01*
X307403Y90964D01*
Y90975D01*
X307392Y90997D01*
Y91042D01*
X307381Y91086D01*
X307337Y91219D01*
X307281Y91386D01*
X307215Y91574D01*
X307115Y91763D01*
X307004Y91930D01*
X306860Y92085D01*
X306837Y92096D01*
X306782Y92141D01*
X306693Y92196D01*
X306560Y92263D01*
X306393Y92329D01*
X306205Y92385D01*
X305983Y92429D01*
X305727Y92440D01*
X305605D01*
X305472Y92418D01*
X305306Y92396D01*
X305128Y92362D01*
X304939Y92307D01*
X304762Y92229D01*
X304606Y92129D01*
X304584Y92118D01*
X304540Y92074D01*
X304484Y92007D01*
X304407Y91918D01*
X304340Y91807D01*
X304273Y91674D01*
X304229Y91541D01*
X304218Y91386D01*
Y91375D01*
Y91341D01*
X304229Y91286D01*
X304240Y91219D01*
X304262Y91153D01*
X304284Y91075D01*
X304329Y90997D01*
X304384Y90920D01*
X304395Y90908D01*
X304418Y90886D01*
X304451Y90853D01*
X304506Y90809D01*
X304584Y90753D01*
X304684Y90698D01*
X304795Y90642D01*
X304939Y90587D01*
X304950D01*
X304995Y90564D01*
X305072Y90542D01*
X305128Y90520D01*
X305195Y90509D01*
X305272Y90487D01*
X305361Y90453D01*
X305461Y90431D01*
X305572Y90398D01*
X305705Y90365D01*
X305849Y90331D01*
X306005Y90287D01*
X306182Y90243D01*
X306194D01*
X306238Y90231D01*
X306305Y90209D01*
X306382Y90187D01*
X306482Y90154D01*
X306604Y90120D01*
X306726Y90076D01*
X306871Y90032D01*
X307159Y89921D01*
X307437Y89787D01*
X307581Y89721D01*
X307703Y89643D01*
X307825Y89565D01*
X307925Y89488D01*
X307936Y89477D01*
X307958Y89454D01*
X307992Y89421D01*
X308036Y89377D01*
X308092Y89310D01*
X308147Y89232D01*
X308214Y89155D01*
X308269Y89055D01*
X308402Y88822D01*
X308513Y88555D01*
X308558Y88411D01*
X308591Y88267D01*
X308613Y88100D01*
X308624Y87934D01*
Y87923D01*
Y87912D01*
Y87878D01*
Y87834D01*
X308602Y87723D01*
X308580Y87578D01*
X308547Y87412D01*
X308491Y87223D01*
X308414Y87023D01*
X308302Y86835D01*
Y86824D01*
X308291Y86813D01*
X308236Y86746D01*
X308169Y86657D01*
X308058Y86546D01*
X307925Y86424D01*
X307759Y86291D01*
X307570Y86169D01*
X307348Y86058D01*
X307337D01*
X307315Y86047D01*
X307281Y86036D01*
X307237Y86013D01*
X307170Y85991D01*
X307104Y85969D01*
X307015Y85947D01*
X306915Y85913D01*
X306693Y85869D01*
X306438Y85825D01*
X306149Y85791D01*
X305827Y85780D01*
X305694D01*
X305594Y85791D01*
X305472Y85802D01*
X305328Y85814D01*
X305184Y85836D01*
X305017Y85858D01*
X304662Y85936D01*
X304484Y85991D01*
X304307Y86047D01*
X304129Y86124D01*
X303962Y86213D01*
X303807Y86313D01*
X303663Y86424D01*
X303652Y86435D01*
X303629Y86457D01*
X303596Y86491D01*
X303552Y86535D01*
X303496Y86602D01*
X303430Y86679D01*
X303363Y86768D01*
X303285Y86868D01*
X303219Y86990D01*
X303152Y87112D01*
X303086Y87257D01*
X303030Y87412D01*
X302975Y87567D01*
X302930Y87745D01*
X302897Y87923D01*
X302886Y88122D01*
X304440Y88178D01*
Y88167D01*
Y88156D01*
X304462Y88078D01*
X304484Y87978D01*
X304529Y87856D01*
X304584Y87712D01*
X304662Y87578D01*
X304762Y87445D01*
X304873Y87334D01*
X304884Y87323D01*
X304928Y87290D01*
X305006Y87246D01*
X305117Y87201D01*
X305250Y87157D01*
X305417Y87112D01*
X305616Y87079D01*
X305849Y87068D01*
X305961D01*
X306083Y87079D01*
X306227Y87101D01*
X306393Y87135D01*
X306571Y87190D01*
X306737Y87257D01*
X306893Y87357D01*
X306904Y87368D01*
X306926Y87390D01*
X306971Y87423D01*
X307015Y87479D01*
X307059Y87545D01*
X307104Y87634D01*
X307126Y87723D01*
X307137Y87834D01*
Y87845D01*
Y87878D01*
X307126Y87934D01*
X307104Y87989D01*
X307082Y88067D01*
X307048Y88145D01*
X306993Y88222D01*
X306915Y88300D01*
X306904Y88311D01*
X306849Y88344D01*
X306815Y88367D01*
X306760Y88389D01*
X306704Y88422D01*
X306626Y88455D01*
X306538Y88489D01*
X306438Y88533D01*
X306316Y88577D01*
X306194Y88622D01*
X306038Y88666D01*
X305872Y88711D01*
X305694Y88755D01*
X305494Y88811D01*
X305483D01*
X305439Y88822D01*
X305383Y88833D01*
X305306Y88855D01*
X305217Y88877D01*
X305106Y88911D01*
X304984Y88944D01*
X304862Y88977D01*
X304595Y89066D01*
X304318Y89155D01*
X304051Y89255D01*
X303940Y89310D01*
X303829Y89366D01*
X303818D01*
X303807Y89377D01*
X303741Y89421D01*
X303641Y89488D01*
X303519Y89577D01*
X303385Y89688D01*
X303241Y89821D01*
X303097Y89976D01*
X302975Y90154D01*
X302964Y90176D01*
X302930Y90243D01*
X302875Y90342D01*
X302819Y90487D01*
X302764Y90664D01*
X302708Y90875D01*
X302675Y91108D01*
X302664Y91375D01*
Y91386D01*
Y91408D01*
Y91441D01*
Y91486D01*
X302675Y91541D01*
X302686Y91619D01*
X302708Y91774D01*
X302753Y91974D01*
X302819Y92185D01*
X302919Y92396D01*
X303041Y92618D01*
Y92629D01*
X303063Y92640D01*
X303108Y92707D01*
X303197Y92818D01*
X303308Y92940D01*
X303452Y93084D01*
X303641Y93217D01*
X303840Y93350D01*
X304085Y93472D01*
X304096D01*
X304118Y93484D01*
X304151Y93495D01*
X304207Y93517D01*
X304273Y93539D01*
X304351Y93561D01*
X304440Y93583D01*
X304540Y93606D01*
X304662Y93639D01*
X304784Y93661D01*
X305072Y93706D01*
X305394Y93739D01*
X305750Y93750D01*
X305894D01*
X305994Y93739D01*
D02*
G37*
G36*
X316250Y85925D02*
X312787D01*
X312687Y85936D01*
X312565D01*
X312443Y85947D01*
X312299D01*
X312010Y85980D01*
X311710Y86013D01*
X311433Y86069D01*
X311311Y86102D01*
X311200Y86136D01*
X311189D01*
X311177Y86147D01*
X311111Y86180D01*
X311011Y86235D01*
X310878Y86302D01*
X310733Y86413D01*
X310589Y86535D01*
X310445Y86691D01*
X310312Y86879D01*
Y86890D01*
X310301Y86901D01*
X310278Y86935D01*
X310256Y86968D01*
X310201Y87079D01*
X310134Y87223D01*
X310079Y87401D01*
X310023Y87601D01*
X309979Y87834D01*
X309967Y88078D01*
Y88089D01*
Y88111D01*
Y88167D01*
X309979Y88222D01*
Y88300D01*
X309990Y88378D01*
X310034Y88577D01*
X310090Y88811D01*
X310178Y89044D01*
X310312Y89288D01*
X310389Y89399D01*
X310478Y89510D01*
X310489Y89521D01*
X310500Y89532D01*
X310534Y89565D01*
X310578Y89599D01*
X310622Y89643D01*
X310689Y89699D01*
X310767Y89754D01*
X310856Y89810D01*
X310955Y89876D01*
X311077Y89932D01*
X311200Y89987D01*
X311333Y90043D01*
X311488Y90098D01*
X311644Y90143D01*
X311810Y90187D01*
X311999Y90220D01*
X311988D01*
X311977Y90231D01*
X311910Y90276D01*
X311821Y90331D01*
X311710Y90409D01*
X311577Y90509D01*
X311444Y90609D01*
X311299Y90731D01*
X311177Y90864D01*
X311166Y90875D01*
X311111Y90931D01*
X311044Y91019D01*
X310944Y91153D01*
X310811Y91319D01*
X310744Y91430D01*
X310667Y91541D01*
X310578Y91663D01*
X310489Y91796D01*
X310389Y91952D01*
X310289Y92107D01*
X309346Y93606D01*
X311211D01*
X312321Y91941D01*
X312332Y91930D01*
X312343Y91896D01*
X312376Y91852D01*
X312421Y91796D01*
X312465Y91730D01*
X312521Y91641D01*
X312643Y91463D01*
X312787Y91264D01*
X312920Y91086D01*
X313042Y90920D01*
X313098Y90864D01*
X313142Y90809D01*
X313153Y90798D01*
X313175Y90775D01*
X313220Y90731D01*
X313275Y90675D01*
X313353Y90631D01*
X313431Y90576D01*
X313519Y90531D01*
X313608Y90487D01*
X313619D01*
X313653Y90476D01*
X313708Y90453D01*
X313797Y90442D01*
X313908Y90420D01*
X314041Y90409D01*
X314196Y90398D01*
X314696D01*
Y93606D01*
X316250D01*
Y85925D01*
D02*
G37*
G36*
X299611Y87223D02*
X301887D01*
Y85925D01*
X295793D01*
Y87223D01*
X298057D01*
Y93606D01*
X299611D01*
Y87223D01*
D02*
G37*
G36*
X306638Y63504D02*
X309046Y59819D01*
X307237D01*
X305716Y62116D01*
X304196Y59819D01*
X302386D01*
X304795Y63504D01*
X302153Y67500D01*
X304018D01*
X305716Y64903D01*
X307426Y67500D01*
X309290D01*
X306638Y63504D01*
D02*
G37*
G36*
X316250Y59819D02*
X312787D01*
X312687Y59830D01*
X312565D01*
X312443Y59841D01*
X312299D01*
X312010Y59874D01*
X311710Y59908D01*
X311433Y59963D01*
X311311Y59997D01*
X311200Y60030D01*
X311189D01*
X311177Y60041D01*
X311111Y60074D01*
X311011Y60130D01*
X310878Y60196D01*
X310733Y60307D01*
X310589Y60429D01*
X310445Y60585D01*
X310312Y60774D01*
Y60785D01*
X310301Y60796D01*
X310278Y60829D01*
X310256Y60862D01*
X310201Y60973D01*
X310134Y61118D01*
X310079Y61295D01*
X310023Y61495D01*
X309979Y61728D01*
X309967Y61972D01*
Y61983D01*
Y62006D01*
Y62061D01*
X309979Y62116D01*
Y62194D01*
X309990Y62272D01*
X310034Y62472D01*
X310090Y62705D01*
X310178Y62938D01*
X310312Y63182D01*
X310389Y63293D01*
X310478Y63404D01*
X310489Y63415D01*
X310500Y63426D01*
X310534Y63460D01*
X310578Y63493D01*
X310622Y63537D01*
X310689Y63593D01*
X310767Y63648D01*
X310856Y63704D01*
X310955Y63770D01*
X311077Y63826D01*
X311200Y63881D01*
X311333Y63937D01*
X311488Y63992D01*
X311644Y64037D01*
X311810Y64081D01*
X311999Y64114D01*
X311988D01*
X311977Y64126D01*
X311910Y64170D01*
X311821Y64226D01*
X311710Y64303D01*
X311577Y64403D01*
X311444Y64503D01*
X311299Y64625D01*
X311177Y64758D01*
X311166Y64769D01*
X311111Y64825D01*
X311044Y64914D01*
X310944Y65047D01*
X310811Y65213D01*
X310744Y65324D01*
X310667Y65435D01*
X310578Y65557D01*
X310489Y65691D01*
X310389Y65846D01*
X310289Y66002D01*
X309346Y67500D01*
X311211D01*
X312321Y65835D01*
X312332Y65824D01*
X312343Y65791D01*
X312376Y65746D01*
X312421Y65691D01*
X312465Y65624D01*
X312521Y65535D01*
X312643Y65358D01*
X312787Y65158D01*
X312920Y64980D01*
X313042Y64814D01*
X313098Y64758D01*
X313142Y64703D01*
X313153Y64692D01*
X313175Y64669D01*
X313220Y64625D01*
X313275Y64570D01*
X313353Y64525D01*
X313431Y64470D01*
X313519Y64425D01*
X313608Y64381D01*
X313619D01*
X313653Y64370D01*
X313708Y64348D01*
X313797Y64337D01*
X313908Y64314D01*
X314041Y64303D01*
X314196Y64292D01*
X314696D01*
Y67500D01*
X316250D01*
Y59819D01*
D02*
G37*
G36*
X307281Y38504D02*
X309690Y34819D01*
X307881D01*
X306360Y37116D01*
X304839Y34819D01*
X303030D01*
X305439Y38504D01*
X302797Y42500D01*
X304662D01*
X306360Y39903D01*
X308069Y42500D01*
X309934D01*
X307281Y38504D01*
D02*
G37*
G36*
X313974Y36118D02*
X316250D01*
Y34819D01*
X310156D01*
Y36118D01*
X312421D01*
Y42500D01*
X313974D01*
Y36118D01*
D02*
G37*
G36*
X313908Y17489D02*
X313997Y17478D01*
X314097Y17467D01*
X314208Y17444D01*
X314341Y17422D01*
X314607Y17356D01*
X314896Y17245D01*
X315051Y17178D01*
X315184Y17100D01*
X315329Y17000D01*
X315462Y16901D01*
X315473Y16889D01*
X315495Y16867D01*
X315529Y16834D01*
X315573Y16790D01*
X315628Y16734D01*
X315684Y16656D01*
X315751Y16579D01*
X315817Y16479D01*
X315884Y16368D01*
X315961Y16257D01*
X316084Y15990D01*
X316183Y15680D01*
X316228Y15513D01*
X316250Y15336D01*
X314829Y15158D01*
Y15169D01*
Y15180D01*
X314818Y15247D01*
X314796Y15347D01*
X314763Y15469D01*
X314707Y15602D01*
X314652Y15746D01*
X314563Y15879D01*
X314463Y16001D01*
X314452Y16013D01*
X314407Y16046D01*
X314341Y16090D01*
X314263Y16135D01*
X314152Y16190D01*
X314030Y16235D01*
X313897Y16268D01*
X313741Y16279D01*
X313719D01*
X313664Y16268D01*
X313586Y16257D01*
X313475Y16235D01*
X313353Y16190D01*
X313231Y16135D01*
X313098Y16046D01*
X312976Y15935D01*
X312964Y15924D01*
X312920Y15868D01*
X312876Y15791D01*
X312809Y15691D01*
X312754Y15558D01*
X312698Y15391D01*
X312665Y15202D01*
X312654Y14991D01*
Y14980D01*
Y14969D01*
Y14903D01*
X312665Y14803D01*
X312687Y14670D01*
X312731Y14525D01*
X312787Y14381D01*
X312865Y14237D01*
X312964Y14103D01*
X312976Y14092D01*
X313020Y14048D01*
X313086Y13993D01*
X313164Y13937D01*
X313275Y13870D01*
X313397Y13826D01*
X313531Y13782D01*
X313686Y13771D01*
X313797D01*
X313875Y13782D01*
X313974Y13793D01*
X314097Y13815D01*
X314219Y13848D01*
X314363Y13881D01*
X314208Y12694D01*
X314108D01*
X313997Y12683D01*
X313864Y12672D01*
X313719Y12638D01*
X313564Y12594D01*
X313419Y12527D01*
X313286Y12438D01*
X313275Y12427D01*
X313231Y12383D01*
X313186Y12328D01*
X313120Y12239D01*
X313064Y12139D01*
X313009Y12017D01*
X312976Y11872D01*
X312964Y11706D01*
Y11684D01*
Y11639D01*
X312976Y11573D01*
X312998Y11484D01*
X313020Y11384D01*
X313064Y11284D01*
X313120Y11173D01*
X313197Y11084D01*
X313209Y11073D01*
X313242Y11051D01*
X313286Y11007D01*
X313364Y10962D01*
X313453Y10929D01*
X313553Y10884D01*
X313686Y10862D01*
X313819Y10851D01*
X313886D01*
X313952Y10862D01*
X314041Y10884D01*
X314141Y10918D01*
X314252Y10962D01*
X314363Y11029D01*
X314463Y11118D01*
X314474Y11129D01*
X314507Y11162D01*
X314552Y11229D01*
X314607Y11317D01*
X314663Y11417D01*
X314707Y11551D01*
X314751Y11706D01*
X314785Y11883D01*
X316139Y11661D01*
Y11650D01*
X316128Y11628D01*
Y11595D01*
X316117Y11539D01*
X316084Y11417D01*
X316039Y11251D01*
X315972Y11073D01*
X315906Y10884D01*
X315817Y10707D01*
X315717Y10540D01*
X315706Y10518D01*
X315662Y10474D01*
X315595Y10396D01*
X315506Y10296D01*
X315395Y10196D01*
X315262Y10085D01*
X315096Y9974D01*
X314918Y9874D01*
X314907D01*
X314896Y9863D01*
X314829Y9841D01*
X314718Y9797D01*
X314585Y9752D01*
X314419Y9708D01*
X314219Y9664D01*
X314008Y9641D01*
X313775Y9630D01*
X313675D01*
X313597Y9641D01*
X313497Y9652D01*
X313397Y9664D01*
X313275Y9686D01*
X313153Y9719D01*
X312876Y9797D01*
X312731Y9852D01*
X312576Y9930D01*
X312432Y10008D01*
X312299Y10096D01*
X312154Y10207D01*
X312032Y10330D01*
X312021Y10341D01*
X312010Y10352D01*
X311977Y10385D01*
X311943Y10429D01*
X311854Y10540D01*
X311755Y10696D01*
X311655Y10884D01*
X311577Y11106D01*
X311510Y11351D01*
X311499Y11473D01*
X311488Y11606D01*
Y11617D01*
Y11650D01*
X311499Y11706D01*
X311510Y11773D01*
X311521Y11861D01*
X311544Y11961D01*
X311577Y12072D01*
X311621Y12194D01*
X311688Y12316D01*
X311755Y12450D01*
X311843Y12583D01*
X311954Y12716D01*
X312088Y12849D01*
X312232Y12982D01*
X312398Y13104D01*
X312598Y13227D01*
X312587D01*
X312565Y13238D01*
X312532D01*
X312487Y13260D01*
X312365Y13293D01*
X312221Y13360D01*
X312054Y13449D01*
X311877Y13560D01*
X311699Y13704D01*
X311544Y13870D01*
X311521Y13893D01*
X311477Y13959D01*
X311422Y14059D01*
X311344Y14203D01*
X311266Y14370D01*
X311211Y14581D01*
X311166Y14803D01*
X311144Y15058D01*
Y15069D01*
Y15102D01*
Y15158D01*
X311155Y15224D01*
X311166Y15313D01*
X311189Y15413D01*
X311211Y15535D01*
X311233Y15657D01*
X311322Y15924D01*
X311388Y16068D01*
X311455Y16223D01*
X311544Y16368D01*
X311644Y16512D01*
X311755Y16656D01*
X311888Y16790D01*
X311899Y16801D01*
X311921Y16823D01*
X311966Y16856D01*
X312021Y16901D01*
X312099Y16956D01*
X312176Y17012D01*
X312287Y17078D01*
X312398Y17145D01*
X312521Y17211D01*
X312665Y17278D01*
X312820Y17334D01*
X312976Y17389D01*
X313153Y17433D01*
X313331Y17467D01*
X313531Y17489D01*
X313730Y17500D01*
X313830D01*
X313908Y17489D01*
D02*
G37*
G36*
X300777D02*
X300866Y17478D01*
X300966Y17467D01*
X301077Y17444D01*
X301210Y17422D01*
X301476Y17356D01*
X301765Y17245D01*
X301920Y17178D01*
X302053Y17100D01*
X302198Y17000D01*
X302331Y16901D01*
X302342Y16889D01*
X302364Y16867D01*
X302397Y16834D01*
X302442Y16790D01*
X302497Y16734D01*
X302553Y16656D01*
X302619Y16579D01*
X302686Y16479D01*
X302753Y16368D01*
X302830Y16257D01*
X302952Y15990D01*
X303052Y15680D01*
X303097Y15513D01*
X303119Y15336D01*
X301698Y15158D01*
Y15169D01*
Y15180D01*
X301687Y15247D01*
X301665Y15347D01*
X301632Y15469D01*
X301576Y15602D01*
X301521Y15746D01*
X301432Y15879D01*
X301332Y16001D01*
X301321Y16013D01*
X301276Y16046D01*
X301210Y16090D01*
X301132Y16135D01*
X301021Y16190D01*
X300899Y16235D01*
X300766Y16268D01*
X300610Y16279D01*
X300588D01*
X300533Y16268D01*
X300455Y16257D01*
X300344Y16235D01*
X300222Y16190D01*
X300100Y16135D01*
X299967Y16046D01*
X299844Y15935D01*
X299833Y15924D01*
X299789Y15868D01*
X299745Y15791D01*
X299678Y15691D01*
X299622Y15558D01*
X299567Y15391D01*
X299534Y15202D01*
X299523Y14991D01*
Y14980D01*
Y14969D01*
Y14903D01*
X299534Y14803D01*
X299556Y14670D01*
X299600Y14525D01*
X299656Y14381D01*
X299734Y14237D01*
X299833Y14103D01*
X299844Y14092D01*
X299889Y14048D01*
X299956Y13993D01*
X300033Y13937D01*
X300144Y13870D01*
X300266Y13826D01*
X300399Y13782D01*
X300555Y13771D01*
X300666D01*
X300744Y13782D01*
X300844Y13793D01*
X300966Y13815D01*
X301088Y13848D01*
X301232Y13881D01*
X301077Y12694D01*
X300977D01*
X300866Y12683D01*
X300732Y12672D01*
X300588Y12638D01*
X300433Y12594D01*
X300289Y12527D01*
X300155Y12438D01*
X300144Y12427D01*
X300100Y12383D01*
X300055Y12328D01*
X299989Y12239D01*
X299933Y12139D01*
X299878Y12017D01*
X299844Y11872D01*
X299833Y11706D01*
Y11684D01*
Y11639D01*
X299844Y11573D01*
X299867Y11484D01*
X299889Y11384D01*
X299933Y11284D01*
X299989Y11173D01*
X300067Y11084D01*
X300078Y11073D01*
X300111Y11051D01*
X300155Y11007D01*
X300233Y10962D01*
X300322Y10929D01*
X300422Y10884D01*
X300555Y10862D01*
X300688Y10851D01*
X300755D01*
X300821Y10862D01*
X300910Y10884D01*
X301010Y10918D01*
X301121Y10962D01*
X301232Y11029D01*
X301332Y11118D01*
X301343Y11129D01*
X301376Y11162D01*
X301421Y11229D01*
X301476Y11317D01*
X301532Y11417D01*
X301576Y11551D01*
X301621Y11706D01*
X301654Y11883D01*
X303008Y11661D01*
Y11650D01*
X302997Y11628D01*
Y11595D01*
X302986Y11539D01*
X302952Y11417D01*
X302908Y11251D01*
X302841Y11073D01*
X302775Y10884D01*
X302686Y10707D01*
X302586Y10540D01*
X302575Y10518D01*
X302531Y10474D01*
X302464Y10396D01*
X302375Y10296D01*
X302264Y10196D01*
X302131Y10085D01*
X301964Y9974D01*
X301787Y9874D01*
X301776D01*
X301765Y9863D01*
X301698Y9841D01*
X301587Y9797D01*
X301454Y9752D01*
X301287Y9708D01*
X301088Y9664D01*
X300877Y9641D01*
X300644Y9630D01*
X300544D01*
X300466Y9641D01*
X300366Y9652D01*
X300266Y9664D01*
X300144Y9686D01*
X300022Y9719D01*
X299745Y9797D01*
X299600Y9852D01*
X299445Y9930D01*
X299301Y10008D01*
X299167Y10096D01*
X299023Y10207D01*
X298901Y10330D01*
X298890Y10341D01*
X298879Y10352D01*
X298846Y10385D01*
X298812Y10429D01*
X298723Y10540D01*
X298624Y10696D01*
X298524Y10884D01*
X298446Y11106D01*
X298379Y11351D01*
X298368Y11473D01*
X298357Y11606D01*
Y11617D01*
Y11650D01*
X298368Y11706D01*
X298379Y11773D01*
X298390Y11861D01*
X298413Y11961D01*
X298446Y12072D01*
X298490Y12194D01*
X298557Y12316D01*
X298624Y12450D01*
X298712Y12583D01*
X298823Y12716D01*
X298957Y12849D01*
X299101Y12982D01*
X299267Y13104D01*
X299467Y13227D01*
X299456D01*
X299434Y13238D01*
X299401D01*
X299356Y13260D01*
X299234Y13293D01*
X299090Y13360D01*
X298923Y13449D01*
X298746Y13560D01*
X298568Y13704D01*
X298413Y13870D01*
X298390Y13893D01*
X298346Y13959D01*
X298291Y14059D01*
X298213Y14203D01*
X298135Y14370D01*
X298080Y14581D01*
X298035Y14803D01*
X298013Y15058D01*
Y15069D01*
Y15102D01*
Y15158D01*
X298024Y15224D01*
X298035Y15313D01*
X298057Y15413D01*
X298080Y15535D01*
X298102Y15657D01*
X298191Y15924D01*
X298257Y16068D01*
X298324Y16223D01*
X298413Y16368D01*
X298512Y16512D01*
X298624Y16656D01*
X298757Y16790D01*
X298768Y16801D01*
X298790Y16823D01*
X298834Y16856D01*
X298890Y16901D01*
X298968Y16956D01*
X299045Y17012D01*
X299156Y17078D01*
X299267Y17145D01*
X299389Y17211D01*
X299534Y17278D01*
X299689Y17334D01*
X299844Y17389D01*
X300022Y17433D01*
X300200Y17467D01*
X300399Y17489D01*
X300599Y17500D01*
X300699D01*
X300777Y17489D01*
D02*
G37*
G36*
X310678Y9675D02*
X309002D01*
X307048Y15358D01*
X305172Y9675D01*
X303519D01*
X306249Y17356D01*
X307925D01*
X310678Y9675D01*
D02*
G37*
G36*
X316250Y-16575D02*
X312876D01*
X312676Y-16564D01*
X312454Y-16553D01*
X312232Y-16542D01*
X312021Y-16520D01*
X311832Y-16498D01*
X311810D01*
X311755Y-16487D01*
X311677Y-16464D01*
X311566Y-16431D01*
X311444Y-16387D01*
X311311Y-16331D01*
X311166Y-16265D01*
X311033Y-16176D01*
X311022Y-16165D01*
X310978Y-16131D01*
X310911Y-16076D01*
X310822Y-16009D01*
X310733Y-15909D01*
X310634Y-15798D01*
X310534Y-15676D01*
X310445Y-15532D01*
X310434Y-15510D01*
X310411Y-15465D01*
X310367Y-15377D01*
X310323Y-15266D01*
X310278Y-15132D01*
X310234Y-14988D01*
X310212Y-14811D01*
X310201Y-14633D01*
Y-14622D01*
Y-14611D01*
Y-14544D01*
X310212Y-14444D01*
X310234Y-14311D01*
X310278Y-14156D01*
X310323Y-13989D01*
X310400Y-13823D01*
X310500Y-13645D01*
X310511Y-13623D01*
X310556Y-13567D01*
X310622Y-13490D01*
X310700Y-13390D01*
X310811Y-13290D01*
X310944Y-13168D01*
X311100Y-13068D01*
X311277Y-12968D01*
X311266D01*
X311244Y-12957D01*
X311211Y-12946D01*
X311166Y-12935D01*
X311033Y-12879D01*
X310878Y-12802D01*
X310711Y-12713D01*
X310522Y-12591D01*
X310356Y-12446D01*
X310201Y-12269D01*
X310189Y-12247D01*
X310145Y-12180D01*
X310079Y-12080D01*
X310012Y-11947D01*
X309945Y-11769D01*
X309879Y-11580D01*
X309834Y-11358D01*
X309823Y-11114D01*
Y-11103D01*
Y-11092D01*
Y-11026D01*
X309834Y-10926D01*
X309856Y-10792D01*
X309879Y-10637D01*
X309923Y-10459D01*
X309990Y-10282D01*
X310067Y-10093D01*
X310079Y-10071D01*
X310112Y-10015D01*
X310167Y-9927D01*
X310245Y-9816D01*
X310334Y-9682D01*
X310456Y-9560D01*
X310578Y-9427D01*
X310733Y-9305D01*
X310756Y-9294D01*
X310811Y-9261D01*
X310900Y-9205D01*
X311022Y-9150D01*
X311177Y-9083D01*
X311355Y-9028D01*
X311555Y-8972D01*
X311777Y-8939D01*
X311821D01*
X311866Y-8928D01*
X311977D01*
X312054Y-8917D01*
X312265D01*
X312398Y-8905D01*
X312731D01*
X312920Y-8894D01*
X316250D01*
Y-16575D01*
D02*
G37*
G36*
X290077Y-15277D02*
X292352D01*
Y-16575D01*
X286258D01*
Y-15277D01*
X288523D01*
Y-8894D01*
X290077D01*
Y-15277D01*
D02*
G37*
G36*
X305261Y-8761D02*
X305372Y-8772D01*
X305516Y-8783D01*
X305683Y-8806D01*
X305872Y-8839D01*
X306071Y-8883D01*
X306294Y-8939D01*
X306504Y-9005D01*
X306737Y-9094D01*
X306959Y-9194D01*
X307193Y-9305D01*
X307403Y-9449D01*
X307614Y-9605D01*
X307814Y-9793D01*
X307825Y-9804D01*
X307859Y-9838D01*
X307903Y-9904D01*
X307969Y-9982D01*
X308047Y-10093D01*
X308136Y-10226D01*
X308225Y-10371D01*
X308314Y-10548D01*
X308414Y-10737D01*
X308502Y-10959D01*
X308591Y-11192D01*
X308669Y-11447D01*
X308735Y-11725D01*
X308780Y-12025D01*
X308813Y-12346D01*
X308824Y-12679D01*
Y-12691D01*
Y-12735D01*
Y-12790D01*
X308813Y-12879D01*
Y-12979D01*
X308802Y-13090D01*
X308791Y-13223D01*
X308780Y-13368D01*
X308735Y-13678D01*
X308680Y-14011D01*
X308591Y-14344D01*
X308480Y-14655D01*
Y-14666D01*
X308469Y-14677D01*
X308447Y-14711D01*
X308436Y-14755D01*
X308369Y-14866D01*
X308291Y-15010D01*
X308192Y-15177D01*
X308069Y-15343D01*
X307925Y-15532D01*
X307770Y-15710D01*
X307759Y-15721D01*
X307747Y-15732D01*
X307692Y-15787D01*
X307592Y-15876D01*
X307470Y-15976D01*
X307326Y-16087D01*
X307159Y-16209D01*
X306971Y-16320D01*
X306771Y-16409D01*
X306760D01*
X306737Y-16420D01*
X306693Y-16442D01*
X306638Y-16453D01*
X306571Y-16487D01*
X306493Y-16509D01*
X306393Y-16531D01*
X306294Y-16564D01*
X306049Y-16620D01*
X305772Y-16675D01*
X305450Y-16709D01*
X305117Y-16720D01*
X305039D01*
X304950Y-16709D01*
X304839D01*
X304695Y-16686D01*
X304529Y-16664D01*
X304340Y-16631D01*
X304140Y-16587D01*
X303929Y-16531D01*
X303707Y-16464D01*
X303485Y-16376D01*
X303252Y-16276D01*
X303030Y-16154D01*
X302808Y-16009D01*
X302597Y-15843D01*
X302397Y-15654D01*
X302386Y-15643D01*
X302353Y-15610D01*
X302297Y-15543D01*
X302242Y-15465D01*
X302164Y-15354D01*
X302076Y-15221D01*
X301987Y-15066D01*
X301887Y-14888D01*
X301787Y-14699D01*
X301698Y-14477D01*
X301609Y-14233D01*
X301532Y-13978D01*
X301465Y-13690D01*
X301421Y-13390D01*
X301387Y-13068D01*
X301376Y-12724D01*
Y-12702D01*
Y-12646D01*
X301387Y-12546D01*
Y-12413D01*
X301410Y-12258D01*
X301432Y-12080D01*
X301465Y-11869D01*
X301498Y-11658D01*
X301554Y-11425D01*
X301621Y-11181D01*
X301709Y-10937D01*
X301809Y-10692D01*
X301920Y-10459D01*
X302064Y-10226D01*
X302220Y-10004D01*
X302397Y-9793D01*
X302409Y-9782D01*
X302442Y-9749D01*
X302497Y-9693D01*
X302586Y-9627D01*
X302686Y-9549D01*
X302808Y-9460D01*
X302952Y-9372D01*
X303108Y-9272D01*
X303297Y-9172D01*
X303496Y-9083D01*
X303718Y-8994D01*
X303962Y-8917D01*
X304218Y-8850D01*
X304495Y-8794D01*
X304784Y-8761D01*
X305095Y-8750D01*
X305172D01*
X305261Y-8761D01*
D02*
G37*
G36*
X296914D02*
X297025Y-8772D01*
X297169Y-8783D01*
X297336Y-8806D01*
X297525Y-8839D01*
X297724Y-8883D01*
X297946Y-8939D01*
X298157Y-9005D01*
X298390Y-9094D01*
X298612Y-9194D01*
X298846Y-9305D01*
X299056Y-9449D01*
X299267Y-9605D01*
X299467Y-9793D01*
X299478Y-9804D01*
X299512Y-9838D01*
X299556Y-9904D01*
X299622Y-9982D01*
X299700Y-10093D01*
X299789Y-10226D01*
X299878Y-10371D01*
X299967Y-10548D01*
X300067Y-10737D01*
X300155Y-10959D01*
X300244Y-11192D01*
X300322Y-11447D01*
X300388Y-11725D01*
X300433Y-12025D01*
X300466Y-12346D01*
X300477Y-12679D01*
Y-12691D01*
Y-12735D01*
Y-12790D01*
X300466Y-12879D01*
Y-12979D01*
X300455Y-13090D01*
X300444Y-13223D01*
X300433Y-13368D01*
X300388Y-13678D01*
X300333Y-14011D01*
X300244Y-14344D01*
X300133Y-14655D01*
Y-14666D01*
X300122Y-14677D01*
X300100Y-14711D01*
X300089Y-14755D01*
X300022Y-14866D01*
X299944Y-15010D01*
X299844Y-15177D01*
X299722Y-15343D01*
X299578Y-15532D01*
X299423Y-15710D01*
X299412Y-15721D01*
X299401Y-15732D01*
X299345Y-15787D01*
X299245Y-15876D01*
X299123Y-15976D01*
X298979Y-16087D01*
X298812Y-16209D01*
X298624Y-16320D01*
X298424Y-16409D01*
X298413D01*
X298390Y-16420D01*
X298346Y-16442D01*
X298291Y-16453D01*
X298224Y-16487D01*
X298146Y-16509D01*
X298046Y-16531D01*
X297946Y-16564D01*
X297702Y-16620D01*
X297425Y-16675D01*
X297103Y-16709D01*
X296770Y-16720D01*
X296692D01*
X296603Y-16709D01*
X296492D01*
X296348Y-16686D01*
X296182Y-16664D01*
X295993Y-16631D01*
X295793Y-16587D01*
X295582Y-16531D01*
X295360Y-16464D01*
X295138Y-16376D01*
X294905Y-16276D01*
X294683Y-16154D01*
X294461Y-16009D01*
X294250Y-15843D01*
X294050Y-15654D01*
X294039Y-15643D01*
X294006Y-15610D01*
X293951Y-15543D01*
X293895Y-15465D01*
X293817Y-15354D01*
X293729Y-15221D01*
X293640Y-15066D01*
X293540Y-14888D01*
X293440Y-14699D01*
X293351Y-14477D01*
X293262Y-14233D01*
X293185Y-13978D01*
X293118Y-13690D01*
X293074Y-13390D01*
X293040Y-13068D01*
X293029Y-12724D01*
Y-12702D01*
Y-12646D01*
X293040Y-12546D01*
Y-12413D01*
X293062Y-12258D01*
X293085Y-12080D01*
X293118Y-11869D01*
X293151Y-11658D01*
X293207Y-11425D01*
X293273Y-11181D01*
X293362Y-10937D01*
X293462Y-10692D01*
X293573Y-10459D01*
X293717Y-10226D01*
X293873Y-10004D01*
X294050Y-9793D01*
X294062Y-9782D01*
X294095Y-9749D01*
X294150Y-9693D01*
X294239Y-9627D01*
X294339Y-9549D01*
X294461Y-9460D01*
X294605Y-9372D01*
X294761Y-9272D01*
X294949Y-9172D01*
X295149Y-9083D01*
X295371Y-8994D01*
X295616Y-8917D01*
X295871Y-8850D01*
X296148Y-8794D01*
X296437Y-8761D01*
X296748Y-8750D01*
X296825D01*
X296914Y-8761D01*
D02*
G37*
%LPC*%
G36*
X299574Y117307D02*
X298209D01*
X298064Y117296D01*
X297909D01*
X297753Y117274D01*
X297609Y117263D01*
X297487Y117240D01*
X297465D01*
X297420Y117218D01*
X297354Y117196D01*
X297265Y117163D01*
X297165Y117118D01*
X297065Y117063D01*
X296965Y116996D01*
X296865Y116918D01*
X296854Y116907D01*
X296821Y116874D01*
X296777Y116819D01*
X296721Y116741D01*
X296666Y116641D01*
X296588Y116519D01*
X296532Y116363D01*
X296466Y116186D01*
Y116175D01*
X296455Y116164D01*
Y116131D01*
X296444Y116086D01*
X296421Y116042D01*
X296410Y115975D01*
X296377Y115809D01*
X296355Y115609D01*
X296322Y115376D01*
X296310Y115087D01*
X296299Y114776D01*
Y114765D01*
Y114732D01*
Y114688D01*
Y114632D01*
Y114554D01*
X296310Y114466D01*
X296322Y114277D01*
X296344Y114055D01*
X296366Y113822D01*
X296410Y113611D01*
X296466Y113411D01*
Y113400D01*
X296477Y113389D01*
X296499Y113333D01*
X296532Y113244D01*
X296577Y113133D01*
X296643Y113022D01*
X296721Y112900D01*
X296810Y112778D01*
X296910Y112667D01*
X296921Y112656D01*
X296954Y112623D01*
X297021Y112578D01*
X297099Y112523D01*
X297209Y112456D01*
X297332Y112401D01*
X297465Y112345D01*
X297620Y112301D01*
X297631D01*
X297687Y112290D01*
X297776Y112279D01*
X297898Y112257D01*
X297975D01*
X298075Y112246D01*
X298175D01*
X298286Y112234D01*
X298419D01*
X298564Y112223D01*
X299574D01*
Y117307D01*
D02*
G37*
G36*
X314696Y89177D02*
X313186D01*
X312964Y89166D01*
X312731Y89155D01*
X312498Y89144D01*
X312398Y89132D01*
X312310Y89121D01*
X312221Y89099D01*
X312165Y89088D01*
X312154D01*
X312121Y89066D01*
X312065Y89044D01*
X312010Y89010D01*
X311866Y88911D01*
X311799Y88844D01*
X311732Y88766D01*
X311721Y88755D01*
X311710Y88722D01*
X311677Y88677D01*
X311644Y88611D01*
X311621Y88522D01*
X311588Y88422D01*
X311577Y88311D01*
X311566Y88189D01*
Y88167D01*
Y88122D01*
X311577Y88056D01*
X311588Y87967D01*
X311621Y87867D01*
X311655Y87767D01*
X311710Y87656D01*
X311777Y87567D01*
X311788Y87556D01*
X311810Y87523D01*
X311866Y87490D01*
X311932Y87434D01*
X312010Y87379D01*
X312110Y87334D01*
X312232Y87290D01*
X312365Y87257D01*
X312376D01*
X312409Y87246D01*
X312476D01*
X312576Y87234D01*
X312820D01*
X312920Y87223D01*
X314696D01*
Y89177D01*
D02*
G37*
G36*
Y63071D02*
X313186D01*
X312964Y63060D01*
X312731Y63049D01*
X312498Y63038D01*
X312398Y63027D01*
X312310Y63016D01*
X312221Y62993D01*
X312165Y62982D01*
X312154D01*
X312121Y62960D01*
X312065Y62938D01*
X312010Y62905D01*
X311866Y62805D01*
X311799Y62738D01*
X311732Y62660D01*
X311721Y62649D01*
X311710Y62616D01*
X311677Y62572D01*
X311644Y62505D01*
X311621Y62416D01*
X311588Y62316D01*
X311577Y62205D01*
X311566Y62083D01*
Y62061D01*
Y62017D01*
X311577Y61950D01*
X311588Y61861D01*
X311621Y61761D01*
X311655Y61661D01*
X311710Y61550D01*
X311777Y61462D01*
X311788Y61451D01*
X311810Y61417D01*
X311866Y61384D01*
X311932Y61329D01*
X312010Y61273D01*
X312110Y61229D01*
X312232Y61184D01*
X312365Y61151D01*
X312376D01*
X312409Y61140D01*
X312476D01*
X312576Y61129D01*
X312820D01*
X312920Y61118D01*
X314696D01*
Y63071D01*
D02*
G37*
G36*
Y-10193D02*
X312987D01*
X312820Y-10204D01*
X312643D01*
X312465Y-10215D01*
X312321Y-10226D01*
X312254D01*
X312210Y-10237D01*
X312199D01*
X312154Y-10249D01*
X312088Y-10271D01*
X312010Y-10293D01*
X311921Y-10337D01*
X311821Y-10393D01*
X311732Y-10459D01*
X311644Y-10537D01*
X311632Y-10548D01*
X311610Y-10582D01*
X311577Y-10637D01*
X311533Y-10715D01*
X311488Y-10804D01*
X311455Y-10914D01*
X311433Y-11048D01*
X311422Y-11192D01*
Y-11203D01*
Y-11248D01*
X311433Y-11314D01*
X311444Y-11392D01*
X311466Y-11492D01*
X311499Y-11580D01*
X311544Y-11680D01*
X311599Y-11780D01*
X311610Y-11791D01*
X311632Y-11825D01*
X311666Y-11869D01*
X311721Y-11913D01*
X311788Y-11980D01*
X311877Y-12036D01*
X311977Y-12091D01*
X312088Y-12135D01*
X312099D01*
X312154Y-12158D01*
X312243Y-12169D01*
X312299Y-12180D01*
X312376Y-12191D01*
X312454Y-12202D01*
X312554Y-12213D01*
X312665Y-12224D01*
X312798D01*
X312931Y-12235D01*
X313086Y-12247D01*
X314696D01*
Y-10193D01*
D02*
G37*
G36*
Y-13523D02*
X313209D01*
X313020Y-13534D01*
X312676D01*
X312609Y-13545D01*
X312543D01*
X312498Y-13556D01*
X312432Y-13567D01*
X312332Y-13601D01*
X312232Y-13634D01*
X312132Y-13678D01*
X312032Y-13734D01*
X311943Y-13812D01*
X311932Y-13823D01*
X311910Y-13856D01*
X311866Y-13900D01*
X311821Y-13978D01*
X311788Y-14067D01*
X311744Y-14167D01*
X311721Y-14289D01*
X311710Y-14422D01*
Y-14433D01*
Y-14477D01*
X311721Y-14544D01*
X311732Y-14633D01*
X311755Y-14722D01*
X311799Y-14811D01*
X311843Y-14910D01*
X311910Y-14999D01*
X311921Y-15010D01*
X311943Y-15033D01*
X311999Y-15077D01*
X312054Y-15121D01*
X312143Y-15166D01*
X312243Y-15210D01*
X312365Y-15243D01*
X312498Y-15266D01*
X312509D01*
X312554Y-15277D01*
X312676D01*
X312743Y-15288D01*
X313031D01*
X313153Y-15299D01*
X314696D01*
Y-13523D01*
D02*
G37*
G36*
X305095Y-10071D02*
X305006D01*
X304939Y-10082D01*
X304862Y-10093D01*
X304773Y-10104D01*
X304562Y-10160D01*
X304318Y-10237D01*
X304196Y-10293D01*
X304062Y-10348D01*
X303940Y-10426D01*
X303807Y-10515D01*
X303685Y-10615D01*
X303574Y-10737D01*
X303563Y-10748D01*
X303552Y-10770D01*
X303519Y-10804D01*
X303485Y-10859D01*
X303430Y-10937D01*
X303385Y-11026D01*
X303330Y-11125D01*
X303274Y-11248D01*
X303219Y-11381D01*
X303163Y-11525D01*
X303108Y-11691D01*
X303063Y-11880D01*
X303030Y-12069D01*
X302997Y-12280D01*
X302986Y-12513D01*
X302975Y-12757D01*
Y-12768D01*
Y-12813D01*
Y-12879D01*
X302986Y-12979D01*
X302997Y-13090D01*
X303008Y-13212D01*
X303019Y-13356D01*
X303052Y-13501D01*
X303119Y-13823D01*
X303219Y-14156D01*
X303285Y-14322D01*
X303363Y-14466D01*
X303463Y-14611D01*
X303563Y-14744D01*
X303574Y-14755D01*
X303585Y-14777D01*
X303618Y-14799D01*
X303663Y-14844D01*
X303729Y-14899D01*
X303796Y-14955D01*
X303874Y-15010D01*
X303974Y-15077D01*
X304074Y-15132D01*
X304196Y-15188D01*
X304451Y-15299D01*
X304595Y-15343D01*
X304751Y-15366D01*
X304917Y-15388D01*
X305095Y-15399D01*
X305184D01*
X305250Y-15388D01*
X305339Y-15377D01*
X305428Y-15366D01*
X305650Y-15321D01*
X305894Y-15232D01*
X306027Y-15188D01*
X306160Y-15121D01*
X306282Y-15044D01*
X306416Y-14955D01*
X306538Y-14855D01*
X306649Y-14733D01*
X306660Y-14722D01*
X306671Y-14699D01*
X306704Y-14666D01*
X306737Y-14611D01*
X306782Y-14533D01*
X306826Y-14455D01*
X306882Y-14355D01*
X306937Y-14233D01*
X306993Y-14100D01*
X307048Y-13956D01*
X307093Y-13789D01*
X307137Y-13612D01*
X307170Y-13412D01*
X307204Y-13201D01*
X307215Y-12979D01*
X307226Y-12735D01*
Y-12724D01*
Y-12679D01*
Y-12613D01*
X307215Y-12524D01*
X307204Y-12413D01*
X307193Y-12280D01*
X307170Y-12147D01*
X307148Y-11991D01*
X307082Y-11669D01*
X306971Y-11347D01*
X306904Y-11181D01*
X306826Y-11026D01*
X306726Y-10881D01*
X306626Y-10748D01*
X306615Y-10737D01*
X306593Y-10715D01*
X306560Y-10681D01*
X306516Y-10648D01*
X306460Y-10593D01*
X306382Y-10537D01*
X306305Y-10470D01*
X306205Y-10415D01*
X305994Y-10282D01*
X305727Y-10182D01*
X305583Y-10137D01*
X305428Y-10104D01*
X305261Y-10082D01*
X305095Y-10071D01*
D02*
G37*
G36*
X296748D02*
X296659D01*
X296592Y-10082D01*
X296514Y-10093D01*
X296426Y-10104D01*
X296215Y-10160D01*
X295971Y-10237D01*
X295849Y-10293D01*
X295715Y-10348D01*
X295593Y-10426D01*
X295460Y-10515D01*
X295338Y-10615D01*
X295227Y-10737D01*
X295216Y-10748D01*
X295205Y-10770D01*
X295172Y-10804D01*
X295138Y-10859D01*
X295083Y-10937D01*
X295038Y-11026D01*
X294983Y-11125D01*
X294927Y-11248D01*
X294872Y-11381D01*
X294816Y-11525D01*
X294761Y-11691D01*
X294716Y-11880D01*
X294683Y-12069D01*
X294650Y-12280D01*
X294639Y-12513D01*
X294628Y-12757D01*
Y-12768D01*
Y-12813D01*
Y-12879D01*
X294639Y-12979D01*
X294650Y-13090D01*
X294661Y-13212D01*
X294672Y-13356D01*
X294705Y-13501D01*
X294772Y-13823D01*
X294872Y-14156D01*
X294938Y-14322D01*
X295016Y-14466D01*
X295116Y-14611D01*
X295216Y-14744D01*
X295227Y-14755D01*
X295238Y-14777D01*
X295271Y-14799D01*
X295316Y-14844D01*
X295382Y-14899D01*
X295449Y-14955D01*
X295527Y-15010D01*
X295627Y-15077D01*
X295727Y-15132D01*
X295849Y-15188D01*
X296104Y-15299D01*
X296248Y-15343D01*
X296404Y-15366D01*
X296570Y-15388D01*
X296748Y-15399D01*
X296836D01*
X296903Y-15388D01*
X296992Y-15377D01*
X297081Y-15366D01*
X297303Y-15321D01*
X297547Y-15232D01*
X297680Y-15188D01*
X297813Y-15121D01*
X297935Y-15044D01*
X298069Y-14955D01*
X298191Y-14855D01*
X298302Y-14733D01*
X298313Y-14722D01*
X298324Y-14699D01*
X298357Y-14666D01*
X298390Y-14611D01*
X298435Y-14533D01*
X298479Y-14455D01*
X298535Y-14355D01*
X298590Y-14233D01*
X298646Y-14100D01*
X298701Y-13956D01*
X298746Y-13789D01*
X298790Y-13612D01*
X298823Y-13412D01*
X298857Y-13201D01*
X298868Y-12979D01*
X298879Y-12735D01*
Y-12724D01*
Y-12679D01*
Y-12613D01*
X298868Y-12524D01*
X298857Y-12413D01*
X298846Y-12280D01*
X298823Y-12147D01*
X298801Y-11991D01*
X298734Y-11669D01*
X298624Y-11347D01*
X298557Y-11181D01*
X298479Y-11026D01*
X298379Y-10881D01*
X298279Y-10748D01*
X298268Y-10737D01*
X298246Y-10715D01*
X298213Y-10681D01*
X298168Y-10648D01*
X298113Y-10593D01*
X298035Y-10537D01*
X297957Y-10470D01*
X297858Y-10415D01*
X297647Y-10282D01*
X297380Y-10182D01*
X297236Y-10137D01*
X297081Y-10104D01*
X296914Y-10082D01*
X296748Y-10071D01*
D02*
G37*
%LPD*%
D10*
X209760Y77500D02*
G03*
X209760Y77500I-1000J0D01*
G01*
X201750Y104750D02*
Y130250D01*
X213250Y104750D02*
Y130250D01*
X201750Y104750D02*
X213250D01*
X201750Y130250D02*
X213250D01*
X241750Y104750D02*
Y130250D01*
X253250Y104750D02*
Y130250D01*
X241750Y104750D02*
X253250D01*
X241750Y130250D02*
X253250D01*
X215000Y104250D02*
Y130750D01*
X227500Y104250D02*
Y130750D01*
X215000Y104250D02*
X227500D01*
X215000Y130750D02*
X227500D01*
X229250Y130250D02*
X240750D01*
X229250Y104750D02*
X240750D01*
Y130250D01*
X229250Y104750D02*
Y130250D01*
X85500Y88500D02*
Y114000D01*
X97000Y88500D02*
Y114000D01*
X85500Y88500D02*
X97000D01*
X85500Y114000D02*
X97000D01*
X178250Y-17750D02*
Y7750D01*
X166750Y-17750D02*
Y7750D01*
X178250D01*
X166750Y-17750D02*
X178250D01*
X243250Y19250D02*
X269250D01*
X243250Y83250D02*
X269250D01*
Y19250D02*
Y83250D01*
X243250Y19250D02*
Y83250D01*
X97000Y-11500D02*
Y14000D01*
X85500Y-11500D02*
Y14000D01*
X97000D01*
X85500Y-11500D02*
X97000D01*
X119250Y-17750D02*
Y7750D01*
X130750Y-17750D02*
Y7750D01*
X119250Y-17750D02*
X130750D01*
X119250Y7750D02*
X130750D01*
X215500Y100750D02*
X241000D01*
X215500Y89250D02*
X241000D01*
X215500D02*
Y100750D01*
X241000Y89250D02*
Y100750D01*
X138500D02*
X164000D01*
X138500Y89250D02*
X164000D01*
X138500D02*
Y100750D01*
X164000Y89250D02*
Y100750D01*
X181250Y-17000D02*
X189250D01*
X181250D02*
Y-7000D01*
X203250Y-17000D02*
X211250D01*
Y-7000D01*
X37500Y96000D02*
X56500D01*
X37500Y6500D02*
X56500D01*
X133750Y-17000D02*
X141750D01*
X133750D02*
Y-7000D01*
X155750Y-17000D02*
X163750D01*
Y-7000D01*
X216000Y1750D02*
X241500D01*
X216000Y13250D02*
X241500D01*
Y1750D02*
Y13250D01*
X216000Y1750D02*
Y13250D01*
D11*
X228500Y84750D02*
G03*
X228500Y84750I-1250J0D01*
G01*
D12*
X203750Y32250D02*
Y67750D01*
X103750Y32250D02*
Y67750D01*
X203750Y32250D02*
Y67750D01*
X103750Y32250D02*
Y67750D01*
M02*
